<svg width="24" height="23" viewBox="0 0 24 23" fill="none" xmlns="http://www.w3.org/2000/svg">
<path d="M16.4651 15.5561L17.0263 14.9986L15.723 13.6892L15.1643 14.2467L16.4651 15.5561ZM18.908 14.7648L21.2598 16.0434L22.1397 14.4214L19.7891 13.144L18.908 14.7648ZM21.7114 18.5835L19.9639 20.3224L21.2647 21.6306L23.0122 19.8929L21.7114 18.5835ZM18.8981 20.8811C17.1137 21.0485 12.4987 20.8996 7.49982 15.9302L6.19779 17.2384C11.652 22.6619 16.8442 22.9277 19.0704 22.7197L18.8981 20.8811ZM7.49982 15.9302C2.73596 11.1922 1.94588 7.20858 1.84742 5.47951L0.00390538 5.58412C0.126971 7.75991 1.10534 12.1755 6.19779 17.2384L7.49982 15.9302ZM9.19197 8.32478L9.54516 7.97282L8.24559 6.66463L7.8924 7.01537L9.19197 8.32478ZM9.82575 3.49939L8.27513 1.42697L6.79711 2.53456L8.34774 4.60575L9.82575 3.49939ZM3.05593 0.975319L1.1238 2.89514L2.42583 4.20455L4.35673 2.28473L3.05593 0.975319ZM8.54218 7.67008C7.88993 7.01537 7.88993 7.01537 7.88993 7.01783H7.88747L7.88378 7.02275C7.82568 7.08206 7.77334 7.14675 7.72749 7.21596C7.66103 7.31442 7.58842 7.44364 7.52689 7.60731C7.37704 8.02982 7.33971 8.48405 7.41859 8.92534C7.5835 9.98986 8.31697 11.3965 10.1949 13.2646L11.497 11.9552C9.73838 10.2077 9.31995 9.1444 9.24242 8.64229C9.2055 8.40355 9.24365 8.2854 9.25473 8.25833C9.26088 8.2411 9.26334 8.23987 9.25473 8.25094C9.24388 8.26801 9.23152 8.28407 9.21781 8.29894L9.2055 8.31125C9.20152 8.31507 9.19742 8.31877 9.1932 8.32232L8.54218 7.67008ZM10.1949 13.2646C12.0742 15.1328 13.4882 15.8613 14.5539 16.0238C15.0991 16.1074 15.5384 16.041 15.872 15.9167C16.0584 15.8477 16.2329 15.7496 16.3888 15.6263C16.41 15.6085 16.4305 15.5901 16.4504 15.5709L16.459 15.5635L16.4627 15.5598L16.4639 15.5573C16.4639 15.5573 16.4651 15.5561 15.8141 14.9014C15.1619 14.2467 15.1656 14.2455 15.1656 14.2455L15.168 14.243L15.1705 14.2405L15.1779 14.2344L15.1902 14.2221C15.205 14.2088 15.2206 14.1965 15.2369 14.1852C15.2492 14.1765 15.2456 14.1802 15.2283 14.1876C15.1976 14.1987 15.077 14.2368 14.8345 14.1999C14.325 14.1212 13.2544 13.7027 11.497 11.9552L10.1949 13.2646ZM8.27513 1.42574C7.01986 -0.247951 4.55363 -0.513772 3.05593 0.975319L4.35673 2.28473C5.01144 1.63372 6.17317 1.7014 6.79711 2.53456L8.27513 1.42574ZM1.84866 5.48074C1.82404 5.05494 2.01972 4.60944 2.42583 4.20579L1.12257 2.89637C0.461709 3.55354 -0.058858 4.48391 0.00390538 5.58412L1.84866 5.48074ZM19.9639 20.3224C19.6267 20.6596 19.2624 20.8491 18.8994 20.8824L19.0704 22.7197C19.975 22.6348 20.7146 22.1795 21.2659 21.6318L19.9639 20.3224ZM9.54516 7.97282C10.7574 6.76801 10.8472 4.86418 9.82698 3.50062L8.34897 4.60698C8.84492 5.2703 8.77108 6.14037 8.24436 6.66586L9.54516 7.97282ZM21.261 16.0447C22.2664 16.5911 22.4227 17.8783 21.7126 18.5847L23.0147 19.8929C24.6637 18.2525 24.1555 15.5167 22.1409 14.4227L21.261 16.0447ZM17.0263 14.9998C17.4989 14.5297 18.2594 14.4141 18.9092 14.766L19.7904 13.1453C18.4563 12.4192 16.8023 12.6198 15.7243 13.6904L17.0263 14.9998Z" fill="white" fill-opacity="0.7"/>
</svg>
