<svg width="23" height="26" viewBox="0 0 23 26" fill="none" xmlns="http://www.w3.org/2000/svg">
<path d="M11.4581 10.3962C14.3412 10.3962 16.6783 8.29275 16.6783 5.69801C16.6783 3.10327 14.3412 0.999817 11.4581 0.999817C8.57508 0.999817 6.23792 3.10327 6.23792 5.69801C6.23792 8.29275 8.57508 10.3962 11.4581 10.3962Z" stroke="white" stroke-opacity="0.7" stroke-width="1.88235"/>
<path d="M21.8782 19.7918C21.8809 19.5992 21.8809 19.403 21.8809 19.2045C21.8809 16.2858 17.2062 13.9191 11.4404 13.9191C5.6747 13.9191 1 16.2858 1 19.2045C1 22.1233 1 24.49 11.4404 24.49C14.352 24.49 16.4518 24.3056 17.9657 23.9767" stroke="white" stroke-opacity="0.7" stroke-width="1.88235" stroke-linecap="round"/>
</svg>
