<svg width="47" height="57" viewBox="0 0 47 57" fill="none" xmlns="http://www.w3.org/2000/svg">
<path fill-rule="evenodd" clip-rule="evenodd" d="M28.5491 5.75857C28.5815 5.77725 28.6136 5.79626 28.6455 5.81563L28.593 5.78532L28.5461 5.75793C27.7134 5.27733 26.7478 5.02708 25.6837 5.02734C24.208 5.02759 22.5429 5.5097 20.7801 6.52747L20.7803 6.52763C20.6469 6.60469 20.514 6.68418 20.3817 6.76601C16.218 9.34097 12.6564 14.2435 10.9167 19.3193L10.9168 19.3193C4.82816 23.2548 0.000354767 31.8549 0.000354767 38.9917V38.9925L-0.000919342 38.9917C-0.000919342 42.8258 1.32044 45.5217 3.4376 46.7436L3.52117 46.7919C3.4927 46.7761 3.46437 46.7601 3.43618 46.7439L10.4673 50.8033C12.4392 51.9414 15.1015 51.8008 18.0295 50.1103L10.9996 46.0516L11.0012 46.0507L29.3381 35.4638L29.3394 35.4645L11.0029 46.0511L18.034 50.1105L36.3716 39.5233L36.37 39.5224C41.824 36.0293 46.1484 28.5943 46.1484 22.5846L39.1182 18.5257V18.525V18.5249L46.1484 22.5838C46.1484 19.5907 45.0759 17.489 43.3257 16.4789L38.3575 13.6105C37.8313 11.8474 36.863 10.5583 35.5787 9.81711L28.5491 5.75857ZM31.7435 11.9761C31.6777 10.9621 31.5012 10.0474 31.2273 9.23988L31.2258 9.24017C31.4997 10.0477 31.6762 10.9625 31.742 11.9765L31.7435 11.9761Z" fill="#D4E4FE"/>
<path d="M17.9482 23.3783C19.743 18.1416 23.4771 13.0893 27.8109 10.5872C33.6155 7.2359 38.3608 9.69252 38.7723 16.0362C43.0404 14.9773 46.1484 17.4895 46.1484 22.5847C46.1484 28.5948 41.8234 36.0304 36.369 39.5232L18.0314 50.1104C11.9597 53.6159 7.03058 50.4567 7.03058 43.0515C7.03058 35.9141 11.859 27.3134 17.9482 23.3783Z" fill="white"/>
</svg>
