<svg width="118" height="200" viewBox="0 0 118 200" fill="none" xmlns="http://www.w3.org/2000/svg">
<g opacity="0.01">
<path d="M116.028 163.837L62.1369 132.723C60.1665 131.585 56.9769 131.585 55.0172 132.724L1.47791 163.838C-0.481739 164.977 -0.469549 166.823 1.50119 167.96L55.3927 199.075C57.363 200.213 60.5505 200.214 62.5105 199.075L116.05 167.962C118.009 166.822 117.999 164.975 116.028 163.837Z" fill="#00D7FF"/>
</g>
<g opacity="0.05">
<path d="M116.028 154.429L62.1369 123.315C60.1665 122.177 56.9769 122.177 55.0172 123.316L1.47791 154.43C-0.481739 155.569 -0.469549 157.415 1.50119 158.553L55.3927 189.667C57.363 190.804 60.5505 190.806 62.5105 189.667L116.05 158.553C118.009 157.415 117.999 155.567 116.028 154.429Z" fill="#00D7FF"/>
</g>
<g opacity="0.15">
<path d="M116.028 145.02L62.1369 113.906C60.1665 112.768 56.9769 112.768 55.0172 113.907L1.47791 145.021C-0.481739 146.16 -0.469549 148.006 1.50119 149.143L55.3927 180.257C57.363 181.395 60.5505 181.396 62.5105 180.257L116.05 149.144C118.009 148.005 117.999 146.157 116.028 145.02Z" fill="#00D7FF"/>
</g>
<g opacity="0.25">
<path d="M116.028 135.99L62.1369 104.876C60.1665 103.738 56.9769 103.738 55.0172 104.877L1.47791 135.991C-0.481739 137.13 -0.469549 138.976 1.50119 140.114L55.3927 171.228C57.363 172.366 60.5505 172.367 62.5105 171.228L116.05 140.114C118.009 138.975 117.999 137.128 116.028 135.99Z" fill="#00D7FF"/>
</g>
<g opacity="0.5">
<path d="M116.028 126.52L62.1369 95.4058C60.1665 94.2681 56.9769 94.2682 55.0172 95.4072L1.47791 126.521C-0.481739 127.66 -0.469549 129.506 1.50119 130.643L55.3927 161.758C57.363 162.895 60.5505 162.897 62.5105 161.758L116.05 130.644C118.009 129.505 117.999 127.658 116.028 126.52Z" fill="#00D7FF"/>
</g>
<g opacity="0.8">
<path d="M116.028 116.063L62.1369 84.9483C60.1665 83.8106 56.9769 83.8106 55.0172 84.9497L1.47791 116.063C-0.481739 117.202 -0.469549 119.049 1.50119 120.186L55.3927 151.3C57.363 152.438 60.5505 152.439 62.5105 151.3L116.05 120.187C118.009 119.048 117.999 117.2 116.028 116.063Z" fill="#00D7FF"/>
</g>
<g opacity="0.01">
<path d="M116.028 163.837L62.1369 132.723C60.1665 131.585 56.9769 131.585 55.0172 132.724L1.47791 163.838C-0.481739 164.977 -0.469549 166.823 1.50119 167.96L55.3927 199.075C57.363 200.213 60.5505 200.214 62.5105 199.075L116.05 167.962C118.009 166.822 117.999 164.975 116.028 163.837Z" fill="#00D7FF"/>
</g>
<g opacity="0.05">
<path d="M116.028 154.429L62.1369 123.315C60.1665 122.177 56.9769 122.177 55.0172 123.316L1.47791 154.43C-0.481739 155.569 -0.469549 157.415 1.50119 158.553L55.3927 189.667C57.363 190.804 60.5505 190.806 62.5105 189.667L116.05 158.553C118.009 157.415 117.999 155.567 116.028 154.429Z" fill="#00D7FF"/>
</g>
<g opacity="0.15">
<path d="M116.028 145.02L62.1369 113.906C60.1665 112.768 56.9769 112.768 55.0172 113.907L1.47791 145.021C-0.481739 146.16 -0.469549 148.006 1.50119 149.143L55.3927 180.257C57.363 181.395 60.5505 181.396 62.5105 180.257L116.05 149.144C118.009 148.005 117.999 146.157 116.028 145.02Z" fill="#00D7FF"/>
</g>
<g opacity="0.25">
<path d="M116.028 135.99L62.1369 104.876C60.1665 103.738 56.9769 103.738 55.0172 104.877L1.47791 135.991C-0.481739 137.13 -0.469549 138.976 1.50119 140.114L55.3927 171.228C57.363 172.366 60.5505 172.367 62.5105 171.228L116.05 140.114C118.009 138.975 117.999 137.128 116.028 135.99Z" fill="#00D7FF"/>
</g>
<g opacity="0.5">
<path d="M116.028 126.52L62.1369 95.4058C60.1665 94.2681 56.9769 94.2682 55.0172 95.4072L1.47791 126.521C-0.481739 127.66 -0.469549 129.506 1.50119 130.643L55.3927 161.758C57.363 162.895 60.5505 162.897 62.5105 161.758L116.05 130.644C118.009 129.505 117.999 127.658 116.028 126.52Z" fill="#00D7FF"/>
</g>
<g opacity="0.8">
<path d="M116.028 116.063L62.1369 84.9483C60.1665 83.8106 56.9769 83.8106 55.0172 84.9497L1.47791 116.063C-0.481739 117.202 -0.469549 119.049 1.50119 120.186L55.3927 151.3C57.363 152.438 60.5505 152.439 62.5105 151.3L116.05 120.187C118.009 119.048 117.999 117.2 116.028 116.063Z" fill="#00D7FF"/>
</g>
<path d="M117.835 93.5663V106.882L117.692 106.951C117.667 107.674 117.183 108.392 116.234 108.943L62.6949 140.057C60.7359 141.196 57.5474 141.194 55.5777 140.057L1.68591 108.943C0.742942 108.398 0.254076 107.692 0.208986 106.979L0 106.882V93.5663H0.199681C0.203617 94.3135 0.700357 95.0593 1.68591 95.6279L55.5777 126.742C57.5474 127.879 60.7356 127.881 62.6949 126.742L116.234 95.629C117.214 95.0589 117.701 94.3117 117.697 93.5659L117.835 93.5663Z" fill="url(#paint0_linear_1266_19878)"/>
<path d="M116.212 91.504L62.3205 60.3897C60.3501 59.252 57.1605 59.252 55.2008 60.3911L1.6615 91.5047C-0.298146 92.6437 -0.285956 94.49 1.68479 95.6272L55.5762 126.742C57.5466 127.88 60.7341 127.881 62.6937 126.742L116.233 95.6283C118.193 94.4893 118.183 92.6416 116.212 91.504Z" fill="#F1F2FF"/>
<path d="M58.9133 72.6624V114.464C58.0104 114.446 57.1168 114.243 56.419 113.845L23.957 95.1014C23.223 94.6767 22.8516 94.1198 22.8516 93.5634C22.8516 93.0055 23.2137 92.4565 23.9398 92.0331L56.1982 73.2897C56.9411 72.8567 57.9306 72.6528 58.9133 72.6624Z" fill="#B0B0FF"/>
<path d="M95.0413 93.5709C95.0413 94.1288 94.6884 94.6763 93.9627 95.1011L61.7043 113.844C60.936 114.287 59.9186 114.49 58.9102 114.464V72.6621C59.8384 72.67 60.7667 72.8832 61.4753 73.2894L93.9455 92.0328C94.6791 92.4562 95.0413 93.0141 95.0413 93.5709Z" fill="#9093F4"/>
<path d="M117.835 93.5663V106.882L117.692 106.951C117.667 107.674 117.183 108.392 116.234 108.943L62.6949 140.057C60.7359 141.196 57.5474 141.194 55.5777 140.057L1.68591 108.943C0.742942 108.398 0.254076 107.692 0.208986 106.979L0 106.882V93.5663H0.199681C0.203617 94.3135 0.700357 95.0593 1.68591 95.6279L55.5777 126.742C57.5474 127.879 60.7356 127.881 62.6949 126.742L116.234 95.629C117.214 95.0589 117.701 94.3117 117.697 93.5659L117.835 93.5663Z" fill="url(#paint1_linear_1266_19878)"/>
<path d="M116.212 91.504L62.3205 60.3897C60.3501 59.252 57.1605 59.252 55.2008 60.3911L1.6615 91.5047C-0.298146 92.6437 -0.285956 94.49 1.68479 95.6272L55.5762 126.742C57.5466 127.88 60.7341 127.881 62.6937 126.742L116.233 95.6283C118.193 94.4893 118.183 92.6416 116.212 91.504Z" fill="#F1F2FF"/>
<g opacity="0.7">
<path d="M8 0L21.5 95L58.4934 117L99 95L109 0H8Z" fill="url(#paint2_linear_1266_19878)" style="mix-blend-mode:screen"/>
</g>
<path style="mix-blend-mode:screen" d="M89.1373 31.3616L87.671 29.6096L89.4224 28.1426L90.8887 29.8947L89.1373 31.3616ZM84.274 90.7296C84.2697 90.7818 84.255 90.8326 84.2308 90.879C84.2067 90.9255 84.1735 90.9667 84.1333 91.0002C84.093 91.0337 84.0465 91.0589 83.9965 91.0743C83.9464 91.0896 83.8938 91.0948 83.8417 91.0896C83.7371 91.0798 83.6407 91.0291 83.5733 90.9485C83.5058 90.868 83.4729 90.7641 83.4816 90.6594C83.4925 90.555 83.5434 90.4589 83.6237 90.3913C83.7039 90.3237 83.8073 90.2899 83.9119 90.2969C84.0171 90.3068 84.114 90.3578 84.1818 90.4388C84.2496 90.5198 84.2827 90.6243 84.274 90.7296ZM83.9943 93.8874C83.9902 93.9398 83.9757 93.9909 83.9517 94.0376C83.9276 94.0844 83.8945 94.1258 83.8542 94.1596C83.8139 94.1933 83.7673 94.2187 83.717 94.2341C83.6668 94.2496 83.614 94.2549 83.5618 94.2497C83.4568 94.2398 83.3601 94.1888 83.2926 94.1077C83.2252 94.0267 83.1925 93.9223 83.2018 93.8172C83.2133 93.7133 83.2644 93.6178 83.3446 93.5506C83.4247 93.4835 83.5277 93.4499 83.632 93.4569C83.737 93.4662 83.834 93.5167 83.9019 93.5974C83.9698 93.6781 84.003 93.7823 83.9943 93.8874ZM84.8331 84.4182C84.8282 84.4699 84.8132 84.5201 84.7888 84.5659C84.7644 84.6118 84.7312 84.6523 84.691 84.6851C84.6508 84.718 84.6046 84.7426 84.5549 84.7575C84.5052 84.7723 84.453 84.7772 84.4014 84.7718C84.3238 84.764 84.2502 84.7334 84.1899 84.6838C84.1297 84.6342 84.0855 84.5679 84.0629 84.4931C84.0404 84.4184 84.0405 84.3387 84.0633 84.264C84.086 84.1894 84.1304 84.1231 84.1907 84.0737C84.2511 84.0243 84.3248 83.9938 84.4024 83.9863C84.4801 83.9787 84.5582 83.9944 84.627 84.0313C84.6958 84.0681 84.752 84.1246 84.7887 84.1935C84.8254 84.2623 84.8409 84.3406 84.8331 84.4182ZM84.5532 87.5783C84.5433 87.6832 84.4923 87.78 84.4113 87.8475C84.3302 87.915 84.2259 87.9476 84.1209 87.9383C84.0168 87.9274 83.921 87.8764 83.8538 87.7961C83.7866 87.7158 83.7532 87.6125 83.7608 87.5081C83.7706 87.4035 83.8213 87.307 83.9018 87.2395C83.9824 87.172 84.0862 87.1391 84.1909 87.1478C84.2432 87.1515 84.2942 87.1657 84.341 87.1896C84.3877 87.2134 84.4291 87.2463 84.4629 87.2864C84.4967 87.3266 84.5221 87.3731 84.5376 87.4232C84.5531 87.4733 84.5584 87.5261 84.5532 87.5783ZM85.113 81.2582C85.1037 81.3636 85.0529 81.461 84.9718 81.5289C84.8907 81.5969 84.7859 81.6298 84.6806 81.6205C84.5761 81.6095 84.48 81.5581 84.4128 81.4774C84.3456 81.3966 84.3125 81.2928 84.3206 81.188C84.3305 81.0834 84.3812 80.9869 84.4617 80.9194C84.5422 80.852 84.6461 80.819 84.7508 80.8277C84.803 80.8318 84.8539 80.8461 84.9004 80.8701C84.947 80.894 84.9884 80.9269 85.0221 80.967C85.0558 81.0071 85.0812 81.0534 85.0968 81.1034C85.1125 81.1534 85.118 81.206 85.113 81.2582ZM83.7143 97.0474C83.7103 97.0998 83.6958 97.1507 83.6717 97.1973C83.6477 97.244 83.6145 97.2853 83.5742 97.3188C83.5339 97.3524 83.4873 97.3776 83.4371 97.3928C83.3869 97.408 83.3342 97.413 83.282 97.4075C83.1774 97.3977 83.081 97.347 83.0136 97.2664C82.9462 97.1859 82.9132 97.082 82.9219 96.9772C82.9328 96.8731 82.9838 96.7773 83.0641 96.71C83.1444 96.6428 83.2476 96.6094 83.352 96.617C83.457 96.6263 83.5541 96.6768 83.6219 96.7574C83.6898 96.8381 83.723 96.9424 83.7143 97.0474ZM83.1546 103.365C83.1506 103.418 83.1361 103.469 83.112 103.515C83.088 103.562 83.0548 103.603 83.0145 103.637C82.9742 103.67 82.9276 103.695 82.8774 103.711C82.8272 103.726 82.7745 103.731 82.7223 103.725C82.6178 103.716 82.5213 103.665 82.4539 103.584C82.3865 103.504 82.3535 103.4 82.3622 103.295C82.3731 103.191 82.4241 103.095 82.5044 103.028C82.5847 102.961 82.6879 102.927 82.7924 102.935C82.8973 102.944 82.9944 102.995 83.0623 103.075C83.1301 103.156 83.1633 103.26 83.1546 103.365ZM83.4344 100.207C83.43 100.26 83.4154 100.311 83.3912 100.357C83.367 100.403 83.3339 100.445 83.2936 100.478C83.2534 100.512 83.2069 100.537 83.1568 100.552C83.1068 100.568 83.0542 100.573 83.0021 100.568C82.8975 100.558 82.801 100.507 82.7336 100.426C82.6662 100.346 82.6333 100.242 82.642 100.137C82.6529 100.033 82.7038 99.9368 82.7841 99.8693C82.8643 99.8017 82.9676 99.7678 83.0723 99.7748C83.1774 99.7847 83.2744 99.8357 83.3422 99.9167C83.41 99.9977 83.4431 100.102 83.4344 100.207ZM81.9483 115.716C81.9811 115.756 82.0056 115.802 82.0205 115.851C82.0354 115.9 82.0404 115.952 82.035 116.003C82.0305 116.054 82.0179 116.105 81.9977 116.152C81.9704 116.196 81.9373 116.236 81.8991 116.271C81.8606 116.306 81.8147 116.332 81.7648 116.347C81.7126 116.364 81.6573 116.369 81.6028 116.363C81.5516 116.359 81.502 116.344 81.457 116.32C81.364 116.267 81.2932 116.183 81.2581 116.082C81.2425 116.032 81.236 115.98 81.2387 115.928C81.2497 115.824 81.3017 115.728 81.3833 115.662C81.4659 115.595 81.5713 115.563 81.6769 115.573C81.7826 115.584 81.88 115.635 81.9483 115.716ZM82.315 112.843C82.3051 112.948 82.2541 113.045 82.1731 113.113C82.0921 113.18 81.9877 113.213 81.8827 113.203C81.7786 113.192 81.6828 113.141 81.6156 113.061C81.5484 112.981 81.515 112.878 81.5226 112.773C81.5324 112.668 81.5831 112.572 81.6637 112.505C81.7442 112.437 81.8481 112.404 81.9527 112.413C82.0049 112.417 82.0558 112.431 82.1024 112.455C82.149 112.479 82.1903 112.512 82.224 112.552C82.2578 112.592 82.2832 112.639 82.2988 112.689C82.3144 112.739 82.3199 112.791 82.315 112.843ZM82.5949 109.683C82.585 109.788 82.5341 109.885 82.4531 109.953C82.3721 110.021 82.2677 110.054 82.1624 110.045C82.0582 110.034 81.9624 109.983 81.8953 109.902C81.8282 109.821 81.7949 109.718 81.8025 109.613C81.8124 109.508 81.8631 109.412 81.9436 109.344C82.0241 109.277 82.128 109.244 82.2327 109.253C82.2849 109.257 82.3357 109.271 82.3823 109.295C82.4289 109.319 82.4703 109.352 82.504 109.392C82.5377 109.432 82.5631 109.478 82.5787 109.528C82.5943 109.578 82.5998 109.631 82.5949 109.683ZM82.8747 106.525C82.8703 106.578 82.8557 106.628 82.8315 106.675C82.8074 106.721 82.7742 106.763 82.734 106.796C82.6937 106.83 82.6472 106.855 82.5971 106.87C82.5471 106.885 82.4945 106.891 82.4424 106.885C82.3376 106.876 82.2408 106.826 82.1732 106.745C82.1057 106.664 82.073 106.56 82.0823 106.455C82.0916 106.35 82.1421 106.253 82.2228 106.186C82.3034 106.118 82.4076 106.086 82.5124 106.095C82.5646 106.099 82.6155 106.113 82.6621 106.137C82.7086 106.161 82.75 106.194 82.7837 106.234C82.8175 106.274 82.8429 106.321 82.8585 106.371C82.8741 106.421 82.8796 106.473 82.8747 106.525ZM85.3928 78.1003C85.3829 78.2053 85.3319 78.3021 85.2509 78.3696C85.1699 78.4371 85.0655 78.4697 84.9605 78.4604C84.8564 78.4495 84.7606 78.3985 84.6934 78.3182C84.6262 78.2379 84.5928 78.1346 84.6004 78.0301C84.6102 77.9255 84.6609 77.829 84.7415 77.7616C84.822 77.6941 84.9259 77.6612 85.0305 77.6699C85.0829 77.6739 85.134 77.6884 85.1807 77.7125C85.2274 77.7365 85.2688 77.7697 85.3026 77.81C85.3363 77.8503 85.3616 77.8969 85.3771 77.9472C85.3926 77.9974 85.3978 78.0502 85.3926 78.1025L85.3928 78.1003ZM87.6317 52.8266C87.6277 52.8789 87.6132 52.9299 87.5892 52.9765C87.5651 53.0231 87.5319 53.0644 87.4916 53.098C87.4513 53.1316 87.4047 53.1567 87.3545 53.1719C87.3043 53.1872 87.2516 53.1922 87.1995 53.1867C87.0949 53.1768 86.9984 53.1261 86.931 53.0456C86.8636 52.965 86.8306 52.8611 86.8393 52.7564C86.8503 52.6522 86.9013 52.5564 86.9815 52.4892C87.0618 52.4219 87.1651 52.3886 87.2695 52.3961C87.3745 52.4054 87.4715 52.4559 87.5394 52.5366C87.6073 52.6172 87.6405 52.7215 87.6317 52.8266ZM87.9115 49.6687C87.9072 49.7209 87.8925 49.7718 87.8683 49.8182C87.8442 49.8647 87.811 49.9059 87.7708 49.9394C87.7305 49.9729 87.684 49.9981 87.634 50.0134C87.5839 50.0288 87.5313 50.034 87.4792 50.0288C87.3746 50.019 87.2782 49.9683 87.2108 49.8877C87.1433 49.8072 87.1104 49.7033 87.1191 49.5985C87.13 49.4942 87.1809 49.3981 87.2612 49.3305C87.3414 49.2629 87.4448 49.2291 87.5494 49.2361C87.6546 49.246 87.7515 49.297 87.8193 49.378C87.8871 49.459 87.9202 49.5635 87.9115 49.6687ZM88.4714 43.3487C88.4673 43.4011 88.4529 43.4522 88.4288 43.4989C88.4047 43.5456 88.3716 43.5871 88.3313 43.6208C88.291 43.6546 88.2444 43.6799 88.1942 43.6954C88.144 43.7109 88.0912 43.7162 88.0389 43.7109C87.9603 43.704 87.8855 43.6739 87.8241 43.6244C87.7626 43.5749 87.7172 43.5084 87.6936 43.4331C87.6699 43.3578 87.6691 43.2772 87.6913 43.2014C87.7135 43.1257 87.7576 43.0582 87.8181 43.0075C87.8785 42.9569 87.9527 42.9253 88.0311 42.9168C88.1095 42.9083 88.1887 42.9232 88.2587 42.9597C88.3286 42.9962 88.3861 43.0527 88.424 43.1219C88.4618 43.1912 88.4783 43.2701 88.4714 43.3487ZM88.1914 46.5087C88.1871 46.5609 88.1724 46.6117 88.1483 46.6582C88.1241 46.7047 88.091 46.7459 88.0507 46.7794C88.0105 46.8129 87.964 46.8381 87.9139 46.8534C87.8638 46.8688 87.8112 46.874 87.7591 46.8688C87.6546 46.859 87.5581 46.8082 87.4907 46.7277C87.4233 46.6471 87.3903 46.5432 87.399 46.4385C87.41 46.3343 87.461 46.2385 87.5412 46.1713C87.6215 46.1041 87.7248 46.0707 87.8292 46.0782C87.9342 46.0875 88.0312 46.138 88.0991 46.2187C88.167 46.2994 88.2002 46.4036 88.1914 46.5087ZM88.7511 40.1908C88.747 40.2435 88.7326 40.2949 88.7086 40.342C88.6846 40.3891 88.6515 40.431 88.6112 40.4653C88.571 40.4996 88.5244 40.5256 88.474 40.5417C88.4237 40.5579 88.3707 40.564 88.3181 40.5596C88.2176 40.5432 88.127 40.4894 88.0646 40.4089C88.0022 40.3285 87.9725 40.2274 87.9815 40.1259C87.9905 40.0245 88.0375 39.9302 88.1131 39.862C88.1887 39.7938 88.2873 39.7567 88.3891 39.7582C88.4942 39.7681 88.5912 39.819 88.659 39.9C88.7268 39.981 88.7599 40.0855 88.7511 40.1908ZM88.9443 36.7436C89.0097 36.8243 89.0408 36.9274 89.0311 37.0308C89.0289 37.0838 89.0157 37.1357 88.9922 37.1833C88.9687 37.2308 88.9355 37.2729 88.8948 37.3068C88.8541 37.3408 88.8067 37.3658 88.7557 37.3803C88.7047 37.3947 88.6512 37.3983 88.5988 37.3909C88.5482 37.387 88.4987 37.3745 88.4524 37.3537C88.4091 37.3264 88.3691 37.2941 88.3334 37.2573C88.2666 37.1733 88.2329 37.0678 88.2387 36.9606C88.2536 36.8573 88.3049 36.7627 88.3833 36.6939C88.4234 36.661 88.4688 36.6352 88.5176 36.6177C88.5934 36.5965 88.6736 36.597 88.7491 36.6193C88.8245 36.6415 88.8922 36.6846 88.9443 36.7436ZM87.0721 59.1445C87.068 59.1969 87.0535 59.248 87.0295 59.2947C87.0054 59.3414 86.9723 59.3829 86.932 59.4166C86.8917 59.4504 86.8451 59.4757 86.7949 59.4912C86.7446 59.5067 86.6919 59.512 86.6396 59.5068C86.5402 59.4905 86.4507 59.4372 86.389 59.3576C86.3273 59.2781 86.2979 59.1781 86.3068 59.0778C86.3157 58.9775 86.3622 58.8842 86.4369 58.8168C86.5117 58.7493 86.6091 58.7126 86.7098 58.714C86.762 58.7181 86.8129 58.7325 86.8594 58.7564C86.906 58.7803 86.9474 58.8132 86.9811 58.8533C87.0148 58.8934 87.0402 58.9397 87.0559 58.9897C87.0715 59.0397 87.077 59.0923 87.0721 59.1445ZM86.2324 68.6224C86.2225 68.7274 86.1715 68.8242 86.0905 68.8917C86.0095 68.9591 85.9051 68.9918 85.8001 68.9825C85.696 68.9716 85.6002 68.9206 85.533 68.8403C85.4658 68.76 85.4325 68.6567 85.44 68.5522C85.4499 68.4476 85.5006 68.3511 85.5811 68.2837C85.6616 68.2162 85.7655 68.1832 85.8702 68.1919C85.9224 68.196 85.9732 68.2104 86.0198 68.2343C86.0664 68.2582 86.1078 68.2911 86.1415 68.3312C86.1752 68.3713 86.2006 68.4177 86.2162 68.4677C86.2318 68.5177 86.2373 68.5703 86.2324 68.6224ZM86.5122 65.4646C86.5023 65.5695 86.4513 65.6663 86.3703 65.7338C86.2893 65.8013 86.1849 65.8339 86.0799 65.8246C85.976 65.8132 85.8805 65.762 85.8134 65.6819C85.7463 65.6017 85.7128 65.4987 85.7198 65.3944C85.7291 65.2893 85.7796 65.1922 85.8602 65.1243C85.9408 65.0564 86.0451 65.0232 86.1501 65.0319C86.2025 65.036 86.2535 65.0504 86.3002 65.0745C86.347 65.0986 86.3884 65.1317 86.4221 65.172C86.4559 65.2123 86.4812 65.259 86.4967 65.3092C86.5121 65.3594 86.5174 65.4123 86.5122 65.4646ZM85.9525 71.7824C85.9426 71.8874 85.8916 71.9842 85.8106 72.0517C85.7296 72.1192 85.6252 72.1518 85.5202 72.1425C85.4208 72.1262 85.3313 72.073 85.2696 71.9934C85.2079 71.9139 85.1785 71.8139 85.1874 71.7136C85.1963 71.6133 85.2428 71.52 85.3175 71.4525C85.3923 71.3851 85.4898 71.3484 85.5904 71.3498C85.6428 71.3538 85.6938 71.3683 85.7406 71.3924C85.7873 71.4164 85.8287 71.4496 85.8624 71.4899C85.8962 71.5302 85.9215 71.5768 85.937 71.6271C85.9524 71.6773 85.9577 71.7301 85.9525 71.7824ZM87.3518 55.9866C87.3475 56.0388 87.3328 56.0897 87.3086 56.1361C87.2845 56.1826 87.2513 56.2238 87.2111 56.2573C87.1708 56.2908 87.1243 56.316 87.0743 56.3313C87.0242 56.3467 86.9716 56.3519 86.9195 56.3467C86.8202 56.3304 86.7307 56.2772 86.6689 56.1976C86.6072 56.118 86.5778 56.0181 86.5867 55.9178C86.5956 55.8174 86.6421 55.7242 86.7169 55.6567C86.7916 55.5892 86.8891 55.5526 86.9897 55.554C87.0421 55.558 87.0932 55.5725 87.1399 55.5966C87.1866 55.6206 87.228 55.6538 87.2618 55.6941C87.2955 55.7344 87.3208 55.781 87.3363 55.8313C87.3518 55.8815 87.357 55.9343 87.3518 55.9866ZM86.7921 62.3045C86.7878 62.3567 86.7731 62.4075 86.749 62.454C86.7248 62.5005 86.6916 62.5417 86.6514 62.5752C86.6112 62.6087 86.5646 62.6339 86.5146 62.6492C86.4645 62.6646 86.4119 62.6698 86.3598 62.6646C86.255 62.6553 86.1582 62.6048 86.0907 62.5241C86.0232 62.4434 85.9904 62.3392 85.9997 62.2343C86.009 62.1295 86.0595 62.0326 86.1402 61.9651C86.2209 61.8975 86.3251 61.8648 86.4299 61.874C86.4822 61.8778 86.5332 61.892 86.5799 61.9158C86.6266 61.9396 86.6681 61.9726 86.7019 62.0127C86.7356 62.0528 86.7611 62.0994 86.7766 62.1495C86.7921 62.1996 86.7973 62.2523 86.7921 62.3045ZM85.6727 74.9403C85.6628 75.0455 85.6119 75.1425 85.5309 75.2103C85.4499 75.2782 85.3455 75.3113 85.2402 75.3026C85.136 75.2911 85.0402 75.2396 84.9731 75.1589C84.906 75.0783 84.8727 74.9748 84.8803 74.8701C84.8902 74.7655 84.9409 74.669 85.0214 74.6015C85.1019 74.5341 85.2058 74.5011 85.3105 74.5098C85.3627 74.5139 85.4135 74.5283 85.4601 74.5522C85.5067 74.5761 85.5481 74.609 85.5818 74.6491C85.6155 74.6892 85.6409 74.7356 85.6565 74.7855C85.6721 74.8355 85.6777 74.8882 85.6727 74.9403Z" fill="url(#paint3_linear_1266_19878)"/>
<path style="mix-blend-mode:screen" d="M31.9732 23.3941L30.1851 21.9721L31.6063 20.1834L33.3944 21.6054L31.9732 23.3941ZM39.1284 82.5296C39.1347 82.5816 39.1305 82.6343 39.1162 82.6847C39.1018 82.7351 39.0776 82.7821 39.0449 82.823C39.0122 82.8639 38.9717 82.8979 38.9258 82.923C38.8798 82.9481 38.8293 82.9638 38.7772 82.9691C38.6728 82.9805 38.5681 82.9502 38.4859 82.8848C38.4037 82.8194 38.3506 82.7242 38.3381 82.6199C38.3278 82.5155 38.3584 82.4111 38.4235 82.3288C38.4885 82.2465 38.5829 82.1926 38.6869 82.1784C38.7918 82.167 38.8971 82.1975 38.9798 82.2632C39.0624 82.329 39.1159 82.4247 39.1284 82.5296ZM39.4884 85.6793C39.4949 85.7315 39.491 85.7844 39.4768 85.835C39.4626 85.8856 39.4385 85.9329 39.4058 85.974C39.3731 86.0152 39.3325 86.0494 39.2864 86.0746C39.2404 86.0999 39.1897 86.1156 39.1374 86.121C39.0326 86.1324 38.9276 86.1018 38.8453 86.036C38.7629 85.9702 38.71 85.8744 38.698 85.7696C38.6884 85.6655 38.7193 85.5617 38.7843 85.4798C38.8494 85.398 38.9435 85.3444 39.0471 85.3303C39.1518 85.3183 39.257 85.3483 39.3397 85.4137C39.4224 85.4791 39.4758 85.5746 39.4884 85.6793ZM38.409 76.2345C38.4146 76.2861 38.4099 76.3383 38.3952 76.3881C38.3805 76.4379 38.3561 76.4842 38.3234 76.5245C38.2906 76.5648 38.2503 76.5982 38.2046 76.6227C38.1588 76.6472 38.1087 76.6625 38.0571 76.6675C37.9795 76.6755 37.9012 76.6603 37.8322 76.6238C37.7633 76.5873 37.7067 76.5312 37.6696 76.4625C37.6325 76.3938 37.6166 76.3157 37.6239 76.238C37.6312 76.1603 37.6613 76.0865 37.7106 76.026C37.7598 75.9654 37.8258 75.9208 37.9004 75.8978C37.9749 75.8748 38.0546 75.8745 38.1294 75.8968C38.2042 75.9191 38.2706 75.9631 38.3204 76.0232C38.3702 76.0833 38.401 76.1569 38.409 76.2345ZM38.7692 79.3864C38.7806 79.4912 38.7501 79.5963 38.6842 79.6787C38.6184 79.761 38.5227 79.814 38.418 79.8259C38.3138 79.8361 38.2097 79.8054 38.1278 79.7402C38.0458 79.6751 37.9924 79.5806 37.9789 79.4767C37.9675 79.3723 37.9978 79.2675 38.0631 79.1853C38.1285 79.1031 38.2236 79.0499 38.3279 79.0374C38.3799 79.0306 38.4327 79.0343 38.4833 79.0482C38.5338 79.0622 38.5811 79.0861 38.6222 79.1186C38.6634 79.1512 38.6976 79.1916 38.7228 79.2376C38.7481 79.2836 38.7638 79.3342 38.7692 79.3864ZM38.0488 73.0826C38.0608 73.1877 38.0306 73.2933 37.9648 73.3762C37.8989 73.459 37.8029 73.5123 37.6978 73.5243C37.5933 73.5346 37.4889 73.5036 37.4068 73.4379C37.3247 73.3723 37.2715 73.2772 37.2584 73.1729C37.2471 73.0685 37.2774 72.9638 37.3427 72.8815C37.4081 72.7993 37.5032 72.7461 37.6075 72.7336C37.6594 72.7271 37.7122 72.731 37.7626 72.7451C37.813 72.7591 37.8602 72.7831 37.9012 72.8156C37.9423 72.8481 37.9765 72.8884 38.0018 72.9343C38.0272 72.9801 38.0431 73.0305 38.0488 73.0826ZM39.8486 88.8312C39.8551 88.8832 39.8512 88.9361 39.837 88.9866C39.8228 89.0371 39.7985 89.0842 39.7658 89.1252C39.7331 89.1662 39.6924 89.2002 39.6463 89.2252C39.6002 89.2502 39.5496 89.2657 39.4974 89.2707C39.393 89.2821 39.2883 89.2518 39.2061 89.1864C39.1239 89.121 39.0707 89.0258 39.0582 88.9215C39.048 88.8173 39.0787 88.7132 39.1439 88.6312C39.209 88.5492 39.3035 88.4958 39.4073 88.4822C39.512 88.4702 39.6172 88.5002 39.6999 88.5656C39.7826 88.631 39.836 88.7265 39.8486 88.8312ZM40.5688 95.1328C40.5753 95.1849 40.5714 95.2377 40.5571 95.2882C40.5429 95.3387 40.5187 95.3858 40.486 95.4268C40.4532 95.4678 40.4126 95.5018 40.3665 95.5268C40.3204 95.5518 40.2698 95.5673 40.2176 95.5723C40.1132 95.5837 40.0085 95.5534 39.9263 95.488C39.844 95.4226 39.7909 95.3274 39.7784 95.2231C39.7682 95.1189 39.7989 95.0148 39.864 94.9328C39.9292 94.8508 40.0236 94.7974 40.1274 94.7838C40.2322 94.7719 40.3374 94.8018 40.42 94.8672C40.5027 94.9326 40.5562 95.0281 40.5688 95.1328ZM40.2088 91.9831C40.215 92.0351 40.2109 92.0878 40.1965 92.1382C40.1822 92.1886 40.158 92.2356 40.1253 92.2765C40.0926 92.3174 40.0521 92.3514 40.0061 92.3765C39.9602 92.4016 39.9097 92.4173 39.8576 92.4226C39.7532 92.434 39.6485 92.4037 39.5663 92.3383C39.4841 92.2729 39.4309 92.1777 39.4184 92.0734C39.4082 91.969 39.4388 91.8646 39.5038 91.7823C39.5689 91.7 39.6633 91.6461 39.7672 91.6319C39.8722 91.6205 39.9775 91.651 40.0601 91.7167C40.1428 91.7825 40.1962 91.8782 40.2088 91.9831ZM41.8667 107.474C41.9068 107.507 41.94 107.547 41.9645 107.592C41.989 107.637 42.0043 107.687 42.0093 107.738C42.0152 107.789 42.0129 107.841 42.0026 107.891C41.9847 107.94 41.9603 107.986 41.9299 108.028C41.8992 108.07 41.8595 108.104 41.8136 108.129C41.7658 108.156 41.7128 108.173 41.6581 108.178C41.6072 108.184 41.5556 108.179 41.5066 108.164C41.4049 108.132 41.3187 108.063 41.264 107.971C41.2388 107.926 41.2219 107.876 41.2141 107.825C41.2039 107.72 41.2356 107.616 41.3023 107.534C41.3698 107.452 41.4667 107.4 41.5722 107.389C41.6777 107.378 41.7835 107.408 41.8667 107.474ZM41.6491 104.586C41.6605 104.691 41.63 104.796 41.5642 104.879C41.4984 104.961 41.4027 105.014 41.2979 105.026C41.1938 105.036 41.0897 105.005 41.0077 104.94C40.9258 104.875 40.8723 104.78 40.8588 104.677C40.8474 104.572 40.8777 104.467 40.9431 104.385C41.0084 104.303 41.1035 104.25 41.2078 104.237C41.2598 104.231 41.3125 104.235 41.3629 104.249C41.4134 104.263 41.4605 104.287 41.5016 104.319C41.5427 104.352 41.5769 104.392 41.6022 104.438C41.6275 104.484 41.6435 104.534 41.6491 104.586ZM41.2889 101.434C41.3004 101.539 41.2699 101.645 41.2042 101.727C41.1385 101.81 41.0428 101.864 40.938 101.876C40.8335 101.886 40.7294 101.855 40.6474 101.789C40.5655 101.724 40.5121 101.629 40.4986 101.525C40.4872 101.42 40.5175 101.316 40.5828 101.233C40.6482 101.151 40.7433 101.098 40.8476 101.085C40.8996 101.079 40.9523 101.083 41.0027 101.097C41.0532 101.111 41.1003 101.135 41.1414 101.167C41.1824 101.2 41.2166 101.24 41.242 101.286C41.2673 101.332 41.2833 101.382 41.2889 101.434ZM40.929 98.2847C40.9352 98.3367 40.931 98.3894 40.9167 98.4398C40.9024 98.4902 40.8781 98.5372 40.8455 98.5781C40.8128 98.619 40.7723 98.653 40.7263 98.6781C40.6803 98.7032 40.6299 98.7189 40.5778 98.7242C40.4733 98.7362 40.3683 98.7061 40.2859 98.6406C40.2035 98.5751 40.1506 98.4796 40.1386 98.375C40.1267 98.2705 40.1567 98.1654 40.2222 98.083C40.2876 98.0007 40.3831 97.9477 40.4877 97.9357C40.5396 97.9292 40.5923 97.9331 40.6428 97.9472C40.6932 97.9612 40.7403 97.9852 40.7814 98.0177C40.8225 98.0502 40.8567 98.0905 40.882 98.1363C40.9074 98.1822 40.9233 98.2326 40.929 98.2847ZM37.6888 69.9329C37.7002 70.0377 37.6697 70.1428 37.6039 70.2251C37.5381 70.3075 37.4424 70.3605 37.3376 70.3724C37.2334 70.3826 37.1294 70.3519 37.0474 70.2867C36.9655 70.2215 36.912 70.1271 36.8985 70.0232C36.8871 69.9188 36.9174 69.814 36.9828 69.7318C37.0481 69.6495 37.1432 69.5964 37.2475 69.5839C37.2997 69.5774 37.3526 69.5813 37.4032 69.5955C37.4538 69.6097 37.501 69.6338 37.5421 69.6665C37.5833 69.6993 37.6175 69.7399 37.6427 69.786C37.6679 69.8321 37.6837 69.8828 37.6891 69.9351L37.6888 69.9329ZM34.8079 44.7243C34.8145 44.7763 34.8105 44.8291 34.7963 44.8796C34.7821 44.9301 34.7579 44.9773 34.7251 45.0183C34.6924 45.0592 34.6518 45.0932 34.6057 45.1182C34.5595 45.1432 34.5089 45.1587 34.4567 45.1638C34.3523 45.1752 34.2476 45.1448 34.1654 45.0795C34.0832 45.0141 34.0301 44.9189 34.0176 44.8146C34.0073 44.7103 34.0381 44.6062 34.1032 44.5242C34.1683 44.4423 34.2628 44.3888 34.3666 44.3753C34.4713 44.3633 34.5765 44.3933 34.6592 44.4587C34.7419 44.5241 34.7954 44.6196 34.8079 44.7243ZM34.448 41.5745C34.4542 41.6265 34.45 41.6793 34.4357 41.7296C34.4213 41.78 34.3971 41.827 34.3644 41.8679C34.3318 41.9089 34.2912 41.9429 34.2453 41.9679C34.1993 41.993 34.1488 42.0087 34.0968 42.0141C33.9923 42.0254 33.8877 41.9951 33.8054 41.9297C33.7232 41.8644 33.6701 41.7692 33.6576 41.6649C33.6473 41.5604 33.6779 41.4561 33.743 41.3738C33.808 41.2914 33.9025 41.2375 34.0064 41.2234C34.1114 41.212 34.2166 41.2424 34.2993 41.3082C34.382 41.3739 34.4354 41.4696 34.448 41.5745ZM33.7275 35.2707C33.7341 35.3229 33.7302 35.3758 33.716 35.4264C33.7018 35.4771 33.6777 35.5243 33.645 35.5655C33.6123 35.6066 33.5717 35.6408 33.5256 35.6661C33.4795 35.6913 33.4289 35.7071 33.3766 35.7125C33.2982 35.7214 33.2189 35.7069 33.1488 35.6708C33.0786 35.6347 33.0208 35.5786 32.9825 35.5096C32.9442 35.4406 32.9273 35.3618 32.9338 35.2831C32.9403 35.2045 32.9699 35.1295 33.019 35.0677C33.0681 35.006 33.1344 34.9601 33.2095 34.936C33.2846 34.912 33.3652 34.9107 33.4411 34.9324C33.5169 34.9542 33.5846 34.9979 33.6356 35.0581C33.6866 35.1183 33.7186 35.1923 33.7275 35.2707ZM34.0877 38.4226C34.094 38.4746 34.0898 38.5274 34.0755 38.5777C34.0611 38.6281 34.0369 38.6751 34.0042 38.716C33.9715 38.757 33.931 38.791 33.8851 38.816C33.8391 38.8411 33.7886 38.8568 33.7365 38.8622C33.6321 38.8735 33.5275 38.8432 33.4452 38.7779C33.363 38.7125 33.3099 38.6173 33.2974 38.513C33.2872 38.4087 33.3179 38.3046 33.383 38.2226C33.4482 38.1407 33.5426 38.0872 33.6464 38.0737C33.7512 38.0617 33.8563 38.0917 33.939 38.1571C34.0217 38.2225 34.0752 38.3179 34.0877 38.4226ZM33.3676 32.121C33.3742 32.1735 33.3703 32.2267 33.3562 32.2777C33.3422 32.3287 33.3182 32.3764 33.2856 32.418C33.2531 32.4597 33.2126 32.4945 33.1666 32.5204C33.1205 32.5464 33.0699 32.563 33.0174 32.5693C32.9157 32.5734 32.8161 32.5388 32.7388 32.4725C32.6615 32.4062 32.6121 32.3132 32.6006 32.212C32.589 32.1108 32.6161 32.009 32.6765 31.927C32.7369 31.845 32.826 31.7889 32.926 31.7699C33.031 31.7585 33.1362 31.7889 33.2189 31.8547C33.3016 31.9204 33.355 32.0161 33.3676 32.121ZM32.8647 28.7052C32.945 28.7711 32.9962 28.8659 33.0074 28.9691C33.0159 29.0215 33.0134 29.075 32.9999 29.1263C32.9865 29.1776 32.9624 29.2255 32.9293 29.2669C32.8962 29.3083 32.8548 29.3424 32.8078 29.3668C32.7607 29.3912 32.7091 29.4055 32.6562 29.4087C32.6059 29.4151 32.5548 29.4127 32.5054 29.4016C32.4574 29.3836 32.4117 29.3599 32.3694 29.3311C32.2871 29.2623 32.2328 29.1656 32.217 29.0595C32.2109 28.9553 32.2422 28.8523 32.3052 28.7691C32.3378 28.7289 32.3772 28.6945 32.4215 28.6676C32.4914 28.6315 32.5701 28.6159 32.6485 28.6226C32.7269 28.6293 32.8018 28.6579 32.8647 28.7052ZM35.5281 51.0259C35.5346 51.078 35.5307 51.131 35.5165 51.1816C35.5023 51.2322 35.4782 51.2795 35.4455 51.3206C35.4128 51.3618 35.3722 51.396 35.3261 51.4212C35.2801 51.4464 35.2294 51.4622 35.1771 51.4676C35.0765 51.4716 34.9782 51.4374 34.9017 51.3718C34.8253 51.3063 34.7764 51.2142 34.765 51.1142C34.7536 51.0141 34.7804 50.9134 34.8401 50.8323C34.8997 50.7512 34.9879 50.6957 35.0868 50.6769C35.1387 50.6704 35.1914 50.6743 35.2419 50.6883C35.2923 50.7024 35.3394 50.7264 35.3805 50.7589C35.4216 50.7913 35.4558 50.8317 35.4811 50.8775C35.5065 50.9234 35.5224 50.9738 35.5281 51.0259ZM36.6085 60.4794C36.6199 60.5842 36.5893 60.6893 36.5235 60.7716C36.4577 60.854 36.362 60.907 36.2573 60.9189C36.1531 60.9291 36.049 60.8984 35.967 60.8332C35.8851 60.768 35.8317 60.6735 35.8181 60.5697C35.8067 60.4652 35.837 60.3605 35.9024 60.2783C35.9677 60.196 36.0629 60.1429 36.1671 60.1304C36.2191 60.1239 36.2718 60.1278 36.3223 60.1418C36.3727 60.1559 36.4198 60.1799 36.4609 60.2124C36.502 60.2448 36.5362 60.2852 36.5615 60.331C36.5868 60.3769 36.6028 60.4273 36.6085 60.4794ZM36.2485 57.3297C36.2599 57.4345 36.2293 57.5396 36.1635 57.6219C36.0977 57.7043 36.002 57.7572 35.8973 57.7692C35.7932 57.7788 35.6894 57.7479 35.6076 57.6828C35.5258 57.6178 35.4722 57.5236 35.4581 57.42C35.4462 57.3152 35.4761 57.21 35.5415 57.1272C35.6068 57.0445 35.7023 56.991 35.8069 56.9785C35.8591 56.972 35.912 56.9759 35.9626 56.9901C36.0132 57.0043 36.0604 57.0284 36.1015 57.0611C36.1427 57.0939 36.1769 57.1345 36.2021 57.1806C36.2273 57.2267 36.2431 57.2774 36.2485 57.3297ZM36.9687 63.6313C36.9801 63.7361 36.9495 63.8412 36.8837 63.9235C36.8179 64.0059 36.7222 64.0588 36.6175 64.0708C36.5169 64.0748 36.4185 64.0406 36.3421 63.975C36.2656 63.9095 36.2168 63.8175 36.2053 63.7174C36.1939 63.6173 36.2207 63.5167 36.2804 63.4356C36.3401 63.3545 36.4282 63.2989 36.5271 63.2801C36.5792 63.2736 36.6321 63.2775 36.6827 63.2917C36.7333 63.3059 36.7806 63.33 36.8217 63.3628C36.8629 63.3955 36.897 63.4361 36.9223 63.4822C36.9475 63.5283 36.9633 63.579 36.9687 63.6313ZM35.1681 47.8761C35.1744 47.9282 35.1702 47.9809 35.1559 48.0313C35.1415 48.0816 35.1173 48.1286 35.0846 48.1696C35.0519 48.2105 35.0114 48.2445 34.9654 48.2696C34.9195 48.2946 34.869 48.3103 34.8169 48.3157C34.7163 48.3197 34.6179 48.2855 34.5415 48.2199C34.4651 48.1544 34.4162 48.0623 34.4048 47.9623C34.3934 47.8622 34.4202 47.7615 34.4799 47.6804C34.5395 47.5993 34.6277 47.5438 34.7266 47.525C34.7787 47.5184 34.8316 47.5224 34.8822 47.5366C34.9328 47.5508 34.98 47.5749 35.0212 47.6076C35.0623 47.6404 35.0965 47.681 35.1217 47.7271C35.147 47.7732 35.1627 47.8239 35.1681 47.8761ZM35.8883 54.1778C35.8945 54.2298 35.8904 54.2825 35.876 54.3329C35.8617 54.3832 35.8375 54.4303 35.8048 54.4712C35.7721 54.5121 35.7316 54.5461 35.6856 54.5712C35.6397 54.5963 35.5892 54.6119 35.5371 54.6173C35.4326 54.6292 35.3276 54.5992 35.2452 54.5337C35.1629 54.4682 35.1099 54.3727 35.0979 54.2681C35.086 54.1635 35.116 54.0585 35.1815 53.9761C35.247 53.8937 35.3425 53.8407 35.447 53.8288C35.499 53.822 35.5518 53.8256 35.6024 53.8396C35.6529 53.8535 35.7001 53.8775 35.7413 53.91C35.7824 53.9426 35.8167 53.983 35.8419 54.029C35.8672 54.075 35.8829 54.1256 35.8883 54.1778ZM37.3286 66.781C37.3401 66.886 37.3096 66.9913 37.2439 67.074C37.1782 67.1567 37.0825 67.2102 36.9777 67.2227C36.8732 67.2324 36.7691 67.2012 36.6871 67.1356C36.6052 67.0701 36.5518 66.9754 36.5383 66.8713C36.5269 66.7669 36.5572 66.6621 36.6225 66.5799C36.6879 66.4977 36.783 66.4445 36.8873 66.432C36.9393 66.4255 36.992 66.4294 37.0424 66.4434C37.0929 66.4575 37.14 66.4815 37.1811 66.514C37.2221 66.5465 37.2563 66.5868 37.2817 66.6326C37.307 66.6785 37.323 66.7289 37.3286 66.781Z" fill="url(#paint4_linear_1266_19878)"/>
<path style="mix-blend-mode:screen" d="M61.463 10.9333L59.8479 9.31746L61.463 7.70166L63.0781 9.31746L61.463 10.9333ZM61.8575 70.5097C61.8578 70.5619 61.8477 70.6136 61.8279 70.6619C61.808 70.7102 61.7788 70.7541 61.7419 70.791C61.7051 70.8279 61.6612 70.8571 61.6129 70.8769C61.5647 70.8968 61.513 70.9068 61.4608 70.9065C61.3554 70.9065 61.2543 70.8648 61.1796 70.7905C61.1048 70.7161 61.0626 70.6152 61.062 70.5097C61.0637 70.4044 61.1062 70.3039 61.1807 70.2294C61.2551 70.155 61.3556 70.1124 61.4608 70.1107C61.5662 70.1113 61.6671 70.1536 61.7414 70.2283C61.8158 70.3031 61.8575 70.4043 61.8575 70.5097ZM61.8575 73.6799C61.8581 73.7322 61.8482 73.7841 61.8285 73.8325C61.8088 73.8809 61.7796 73.9249 61.7426 73.9618C61.7057 73.9988 61.6617 74.028 61.6133 74.0478C61.5649 74.0675 61.5131 74.0773 61.4608 74.0768C61.3554 74.0768 61.2543 74.035 61.1796 73.9607C61.1048 73.8863 61.0626 73.7854 61.062 73.6799C61.0637 73.5749 61.1063 73.4746 61.1808 73.4005C61.2553 73.3263 61.3558 73.2842 61.4608 73.2831C61.564 73.2836 61.6629 73.3241 61.7369 73.396C61.8108 73.468 61.8541 73.5658 61.8575 73.669V73.6799ZM61.8575 64.1737C61.8572 64.2254 61.8467 64.2766 61.8266 64.3242C61.8065 64.3718 61.7771 64.415 61.7403 64.4513C61.7034 64.4876 61.6597 64.5162 61.6118 64.5355C61.5638 64.5548 61.5125 64.5645 61.4608 64.5639C61.4067 64.568 61.3523 64.5608 61.3011 64.5428C61.2499 64.5249 61.2029 64.4966 61.1631 64.4596C61.1233 64.4227 61.0916 64.3779 61.0699 64.3282C61.0482 64.2784 61.037 64.2247 61.037 64.1704C61.037 64.1161 61.0482 64.0624 61.0699 64.0126C61.0916 63.9628 61.1233 63.9181 61.1631 63.8811C61.2029 63.8442 61.2499 63.8159 61.3011 63.7979C61.3523 63.78 61.4067 63.7728 61.4608 63.7768C61.5645 63.7757 61.6644 63.8156 61.7387 63.8879C61.8131 63.9602 61.8558 64.059 61.8575 64.1627V64.1737ZM61.8575 67.3461C61.8569 67.4511 61.8149 67.5517 61.7407 67.626C61.6664 67.7003 61.5658 67.7423 61.4608 67.7429C61.3559 67.7412 61.2558 67.6989 61.1814 67.6249C61.107 67.5509 61.0642 67.451 61.062 67.3461C61.0626 67.2404 61.1048 67.1393 61.1794 67.0646C61.2541 66.9899 61.3552 66.9476 61.4608 66.9471C61.5647 66.9465 61.6646 66.9869 61.7389 67.0595C61.8131 67.1322 61.8558 67.2312 61.8575 67.3351V67.3461ZM61.8575 61.0013C61.8575 61.1067 61.8158 61.2079 61.7414 61.2826C61.6671 61.3574 61.5662 61.3997 61.4608 61.4003C61.3556 61.3986 61.2551 61.356 61.1807 61.2815C61.1062 61.2071 61.0637 61.1065 61.062 61.0013C61.0626 60.8958 61.1048 60.7949 61.1796 60.7205C61.2543 60.6462 61.3554 60.6044 61.4608 60.6044C61.5643 60.6038 61.6639 60.6439 61.7381 60.7161C61.8123 60.7883 61.8552 60.8868 61.8575 60.9903V61.0013ZM61.8575 76.8523C61.8581 76.9046 61.8482 76.9565 61.8285 77.0049C61.8088 77.0533 61.7796 77.0973 61.7426 77.1342C61.7057 77.1712 61.6617 77.2004 61.6133 77.2202C61.5649 77.2399 61.5131 77.2498 61.4608 77.2492C61.3554 77.2492 61.2543 77.2074 61.1796 77.1331C61.1048 77.0587 61.0626 76.9578 61.062 76.8523C61.0637 76.7473 61.1063 76.647 61.1808 76.5729C61.2553 76.4988 61.3558 76.4566 61.4608 76.4555C61.564 76.456 61.6629 76.4965 61.7369 76.5685C61.8108 76.6404 61.8541 76.7382 61.8575 76.8414V76.8523ZM61.8575 83.195C61.8581 83.2473 61.8482 83.2991 61.8285 83.3475C61.8088 83.3959 61.7796 83.4399 61.7426 83.4769C61.7057 83.5138 61.6617 83.5431 61.6133 83.5628C61.5649 83.5825 61.5131 83.5924 61.4608 83.5918C61.3554 83.5918 61.2543 83.5501 61.1796 83.4757C61.1048 83.4014 61.0626 83.3004 61.062 83.195C61.0637 83.0899 61.1063 82.9896 61.1808 82.9155C61.2553 82.8414 61.3558 82.7993 61.4608 82.7981C61.564 82.7987 61.6629 82.8391 61.7369 82.9111C61.8108 82.983 61.8541 83.0809 61.8575 83.184V83.195ZM61.8575 80.0248C61.8578 80.077 61.8477 80.1287 61.8279 80.177C61.808 80.2252 61.7788 80.2691 61.7419 80.306C61.7051 80.3429 61.6612 80.3721 61.6129 80.392C61.5647 80.4118 61.513 80.4219 61.4608 80.4216C61.3554 80.4216 61.2543 80.3798 61.1796 80.3055C61.1048 80.2311 61.0626 80.1302 61.062 80.0248C61.0637 79.9195 61.1062 79.819 61.1807 79.7445C61.2551 79.67 61.3556 79.6274 61.4608 79.6257C61.5643 79.6263 61.6636 79.6671 61.7376 79.7395C61.8117 79.8119 61.8546 79.9103 61.8575 80.0138V80.0248ZM61.7457 95.604C61.7819 95.6407 61.8104 95.6842 61.8296 95.732C61.8488 95.7798 61.8583 95.8309 61.8575 95.8824C61.8606 95.9339 61.8522 95.9854 61.8328 96.0332C61.8135 96.081 61.7837 96.1239 61.7457 96.1587C61.7116 96.1984 61.6679 96.2286 61.6186 96.2464C61.5693 96.2694 61.5152 96.2806 61.4608 96.2793C61.4086 96.2799 61.3569 96.2687 61.3096 96.2464C61.2604 96.2286 61.2166 96.1984 61.1825 96.1587C61.1443 96.1232 61.1144 96.0798 61.0949 96.0315C61.0757 95.984 61.0646 95.9336 61.062 95.8824C61.0637 95.7773 61.1071 95.6772 61.1825 95.604C61.2567 95.5295 61.3568 95.4867 61.4619 95.4847C61.567 95.4826 61.6687 95.5215 61.7457 95.593V95.604ZM61.8575 92.71C61.8569 92.8151 61.8149 92.9157 61.7407 92.99C61.6664 93.0643 61.5658 93.1063 61.4608 93.1068C61.3558 93.1057 61.2553 93.0636 61.1808 92.9895C61.1063 92.9154 61.0637 92.8151 61.062 92.71C61.0626 92.6046 61.1048 92.5036 61.1796 92.4293C61.2543 92.3549 61.3554 92.3132 61.4608 92.3132C61.5645 92.312 61.6644 92.3519 61.7387 92.4242C61.8131 92.4966 61.8558 92.5954 61.8575 92.6991V92.71ZM61.8575 89.5376C61.8575 89.6431 61.8158 89.7442 61.7414 89.819C61.6671 89.8938 61.5662 89.936 61.4608 89.9366C61.3556 89.9349 61.2551 89.8923 61.1807 89.8179C61.1062 89.7434 61.0637 89.6429 61.062 89.5376C61.0626 89.4322 61.1048 89.3312 61.1796 89.2569C61.2543 89.1825 61.3554 89.1408 61.4608 89.1408C61.5643 89.1402 61.6639 89.1803 61.7381 89.2525C61.8123 89.3247 61.8552 89.4231 61.8575 89.5266V89.5376ZM61.8575 86.3674C61.8578 86.4196 61.8477 86.4713 61.8279 86.5196C61.808 86.5679 61.7788 86.6117 61.7419 86.6486C61.7051 86.6855 61.6612 86.7148 61.6129 86.7346C61.5647 86.7544 61.513 86.7645 61.4608 86.7642C61.4061 86.7683 61.3511 86.761 61.2994 86.7428C61.2476 86.7247 61.2001 86.6961 61.1599 86.6587C61.1197 86.6214 61.0876 86.5761 61.0657 86.5258C61.0438 86.4755 61.0324 86.4212 61.0324 86.3663C61.0324 86.3114 61.0438 86.2571 61.0657 86.2068C61.0876 86.1565 61.1197 86.1112 61.1599 86.0739C61.2001 86.0365 61.2476 86.0079 61.2994 85.9897C61.3511 85.9716 61.4061 85.9643 61.4608 85.9684C61.5647 85.9678 61.6646 86.0082 61.7389 86.0808C61.8131 86.1535 61.8558 86.2525 61.8575 86.3564V86.3674ZM61.8575 57.831C61.8569 57.9361 61.8149 58.0367 61.7407 58.111C61.6664 58.1853 61.5658 58.2273 61.4608 58.2279C61.3558 58.2267 61.2553 58.1846 61.1808 58.1105C61.1063 58.0364 61.0637 57.9361 61.062 57.831C61.0626 57.7256 61.1048 57.6247 61.1796 57.5503C61.2543 57.4759 61.3554 57.4342 61.4608 57.4342C61.5645 57.433 61.6644 57.473 61.7387 57.5453C61.8131 57.6176 61.8558 57.7164 61.8575 57.8201V57.831ZM61.8575 32.4583C61.8581 32.5106 61.8482 32.5625 61.8285 32.6109C61.8088 32.6593 61.7796 32.7033 61.7426 32.7402C61.7057 32.7772 61.6617 32.8064 61.6133 32.8261C61.5649 32.8459 61.5131 32.8557 61.4608 32.8551C61.3554 32.8551 61.2543 32.8134 61.1796 32.739C61.1048 32.6647 61.0626 32.5638 61.062 32.4583C61.0637 32.3532 61.1063 32.253 61.1808 32.1788C61.2553 32.1047 61.3558 32.0626 61.4608 32.0615C61.564 32.062 61.6629 32.1025 61.7369 32.1744C61.8108 32.2464 61.8541 32.3442 61.8575 32.4474V32.4583ZM61.8575 29.2859C61.8581 29.3383 61.8482 29.3902 61.8285 29.4388C61.8088 29.4873 61.7797 29.5314 61.7427 29.5686C61.7058 29.6057 61.6619 29.6351 61.6135 29.6551C61.5651 29.6751 61.5132 29.6852 61.4608 29.6849C61.3552 29.6843 61.2541 29.6421 61.1794 29.5674C61.1048 29.4927 61.0626 29.3915 61.062 29.2859C61.0642 29.181 61.107 29.081 61.1814 29.007C61.2558 28.933 61.3559 28.8908 61.4608 28.8891C61.564 28.8896 61.6629 28.9301 61.7369 29.002C61.8108 29.074 61.8541 29.1718 61.8575 29.2749V29.2859ZM61.8575 22.9433C61.8581 22.9955 61.8482 23.0474 61.8285 23.0958C61.8088 23.1442 61.7796 23.1882 61.7426 23.2252C61.7057 23.2621 61.6617 23.2913 61.6133 23.3111C61.5649 23.3308 61.5131 23.3407 61.4608 23.3401C61.3554 23.3401 61.2543 23.2984 61.1796 23.224C61.1048 23.1496 61.0626 23.0487 61.062 22.9433C61.0637 22.8382 61.1063 22.7379 61.1808 22.6638C61.2553 22.5897 61.3558 22.5476 61.4608 22.5464C61.5643 22.547 61.6636 22.5878 61.7376 22.6602C61.8117 22.7326 61.8546 22.831 61.8575 22.9345V22.9433ZM61.8575 26.1157C61.8578 26.1679 61.8477 26.2196 61.8279 26.2679C61.808 26.3162 61.7788 26.36 61.7419 26.3969C61.7051 26.4338 61.6612 26.4631 61.6129 26.4829C61.5647 26.5027 61.513 26.5128 61.4608 26.5125C61.3554 26.5125 61.2543 26.4708 61.1796 26.3964C61.1048 26.3221 61.0626 26.2211 61.062 26.1157C61.0637 26.0104 61.1062 25.9099 61.1807 25.8354C61.2551 25.7609 61.3556 25.7184 61.4608 25.7167C61.5643 25.7172 61.6636 25.758 61.7376 25.8304C61.8117 25.9028 61.8546 26.0012 61.8575 26.1047V26.1157ZM61.8575 19.7709C61.8584 19.8237 61.8488 19.8763 61.8293 19.9254C61.8098 19.9746 61.7808 20.0194 61.7439 20.0573C61.7071 20.0952 61.6631 20.1254 61.6145 20.1462C61.5659 20.1671 61.5137 20.1781 61.4608 20.1786C61.3593 20.1711 61.2644 20.1255 61.1951 20.0509C61.1258 19.9763 61.0873 19.8782 61.0873 19.7763C61.0873 19.6745 61.1258 19.5764 61.1951 19.5018C61.2644 19.4272 61.3593 19.3815 61.4608 19.374C61.564 19.3745 61.6629 19.415 61.7369 19.487C61.8108 19.5589 61.8541 19.6567 61.8575 19.7599V19.7709ZM61.7457 16.3222C61.818 16.3968 61.8581 16.4968 61.8575 16.6006C61.8593 16.6532 61.8503 16.7057 61.831 16.7546C61.8117 16.8036 61.7826 16.8481 61.7454 16.8853C61.7082 16.9225 61.6637 16.9517 61.6148 16.971C61.5658 16.9903 61.5134 16.9993 61.4608 16.9975C61.4094 16.9981 61.3583 16.9899 61.3096 16.9733C61.2639 16.9492 61.2213 16.9198 61.1825 16.8857C61.1445 16.8492 61.1143 16.8055 61.0936 16.7571C61.073 16.7087 61.0623 16.6566 61.0623 16.6039C61.0623 16.5513 61.073 16.4992 61.0936 16.4508C61.1143 16.4024 61.1445 16.3586 61.1825 16.3222C61.2196 16.2859 61.2625 16.2563 61.3096 16.2345C61.3822 16.2052 61.4615 16.1969 61.5386 16.2105C61.6157 16.224 61.6875 16.2589 61.7457 16.3112V16.3222ZM61.8575 38.8009C61.8581 38.8532 61.8482 38.9051 61.8285 38.9535C61.8088 39.0019 61.7796 39.0459 61.7426 39.0828C61.7057 39.1198 61.6617 39.149 61.6133 39.1688C61.5649 39.1885 61.5131 39.1984 61.4608 39.1978C61.3556 39.1978 61.2547 39.156 61.1803 39.0815C61.106 39.0071 61.0642 38.9062 61.0642 38.8009C61.0642 38.6957 61.106 38.5948 61.1803 38.5203C61.2547 38.4459 61.3556 38.4041 61.4608 38.4041C61.5643 38.4035 61.6639 38.4436 61.7381 38.5158C61.8123 38.588 61.8552 38.6865 61.8575 38.79V38.8009ZM61.8575 48.316C61.8569 48.4211 61.8149 48.5217 61.7407 48.596C61.6664 48.6702 61.5658 48.7122 61.4608 48.7128C61.3558 48.7117 61.2553 48.6696 61.1808 48.5955C61.1063 48.5214 61.0637 48.4211 61.062 48.316C61.0626 48.2105 61.1048 48.1096 61.1796 48.0353C61.2543 47.9609 61.3554 47.9192 61.4608 47.9192C61.5645 47.918 61.6644 47.9579 61.7387 48.0302C61.8131 48.1025 61.8558 48.2013 61.8575 48.305V48.316ZM61.8575 45.1436C61.8575 45.249 61.8158 45.3502 61.7414 45.4249C61.6671 45.4997 61.5662 45.542 61.4608 45.5426C61.3556 45.5409 61.2551 45.4983 61.1807 45.4239C61.1062 45.3494 61.0637 45.2489 61.062 45.1436C61.0626 45.0381 61.1048 44.9372 61.1796 44.8628C61.2543 44.7885 61.3554 44.7467 61.4608 44.7467C61.5643 44.7461 61.6639 44.7863 61.7381 44.8584C61.8123 44.9306 61.8552 45.0291 61.8575 45.1326V45.1436ZM61.8575 51.4884C61.8569 51.5935 61.8149 51.6941 61.7407 51.7684C61.6664 51.8427 61.5658 51.8846 61.4608 51.8852C61.3559 51.8835 61.2558 51.8413 61.1814 51.7673C61.107 51.6933 61.0642 51.5933 61.062 51.4884C61.0626 51.3827 61.1048 51.2816 61.1794 51.2069C61.2541 51.1322 61.3552 51.09 61.4608 51.0894C61.5647 51.0888 61.6646 51.1292 61.7389 51.2019C61.8131 51.2745 61.8558 51.3735 61.8575 51.4774V51.4884ZM61.8575 35.6307C61.8578 35.6829 61.8477 35.7346 61.8279 35.7829C61.808 35.8312 61.7788 35.8751 61.7419 35.912C61.7051 35.9489 61.6612 35.9781 61.6129 35.9979C61.5647 36.0178 61.513 36.0278 61.4608 36.0275C61.4061 36.0316 61.3511 36.0243 61.2994 36.0062C61.2476 35.988 61.2001 35.9594 61.1599 35.922C61.1197 35.8847 61.0876 35.8394 61.0657 35.7891C61.0438 35.7388 61.0324 35.6845 61.0324 35.6296C61.0324 35.5747 61.0438 35.5204 61.0657 35.4701C61.0876 35.4198 61.1197 35.3746 61.1599 35.3372C61.2001 35.2999 61.2476 35.2712 61.2994 35.2531C61.3511 35.2349 61.4061 35.2276 61.4608 35.2317C61.5647 35.2311 61.6646 35.2715 61.7389 35.3442C61.8131 35.4168 61.8558 35.5159 61.8575 35.6198V35.6307ZM61.8575 41.9734C61.8578 42.0255 61.8477 42.0773 61.8279 42.1256C61.808 42.1738 61.7788 42.2177 61.7419 42.2546C61.7051 42.2915 61.6612 42.3207 61.6129 42.3406C61.5647 42.3604 61.513 42.3705 61.4608 42.3702C61.3556 42.3702 61.2547 42.3284 61.1803 42.254C61.106 42.1795 61.0642 42.0786 61.0642 41.9734C61.0642 41.8681 61.106 41.7672 61.1803 41.6928C61.2547 41.6183 61.3556 41.5765 61.4608 41.5765C61.5645 41.5754 61.6644 41.6153 61.7387 41.6876C61.8131 41.7599 61.8558 41.8587 61.8575 41.9624V41.9734ZM61.8575 54.6586C61.8575 54.7641 61.8158 54.8652 61.7414 54.94C61.6671 55.0148 61.5662 55.0571 61.4608 55.0576C61.3556 55.0559 61.2551 55.0134 61.1807 54.9389C61.1062 54.8644 61.0637 54.7639 61.062 54.6586C61.0626 54.5532 61.1048 54.4522 61.1796 54.3779C61.2543 54.3035 61.3554 54.2618 61.4608 54.2618C61.5643 54.2612 61.6639 54.3013 61.7381 54.3735C61.8123 54.4457 61.8552 54.5441 61.8575 54.6477V54.6586Z" fill="url(#paint5_linear_1266_19878)"/>
<defs>
<linearGradient id="paint0_linear_1266_19878" x1="0" y1="117.239" x2="117.835" y2="117.239" gradientUnits="userSpaceOnUse">
<stop stop-color="#00D7FF"/>
<stop offset="0.1226" stop-color="#00D2FB"/>
<stop offset="0.2608" stop-color="#00C5EF"/>
<stop offset="0.4066" stop-color="#00AEDC"/>
<stop offset="0.5577" stop-color="#008FC0"/>
<stop offset="0.7128" stop-color="#01669D"/>
<stop offset="0.869" stop-color="#013573"/>
<stop offset="1" stop-color="#01064A"/>
</linearGradient>
<linearGradient id="paint1_linear_1266_19878" x1="0" y1="117.239" x2="117.835" y2="117.239" gradientUnits="userSpaceOnUse">
<stop stop-color="#00D7FF"/>
<stop offset="0.1226" stop-color="#00D2FB"/>
<stop offset="0.2608" stop-color="#00C5EF"/>
<stop offset="0.4066" stop-color="#00AEDC"/>
<stop offset="0.5577" stop-color="#008FC0"/>
<stop offset="0.7128" stop-color="#01669D"/>
<stop offset="0.869" stop-color="#013573"/>
<stop offset="1" stop-color="#01064A"/>
</linearGradient>
<linearGradient id="paint2_linear_1266_19878" x1="58.5" y1="110.537" x2="58.5458" y2="16.9998" gradientUnits="userSpaceOnUse">
<stop stop-color="#00B3FF"/>
<stop offset="0.9" stop-color="#D3E4FF" stop-opacity="0"/>
</linearGradient>
<linearGradient id="paint3_linear_1266_19878" x1="82.0389" y1="111.489" x2="88.5366" y2="38.1425" gradientUnits="userSpaceOnUse">
<stop/>
<stop offset="1" stop-color="#05BEB7"/>
</linearGradient>
<linearGradient id="paint4_linear_1266_19878" x1="41.1069" y1="103.315" x2="32.7461" y2="30.1575" gradientUnits="userSpaceOnUse">
<stop/>
<stop offset="1" stop-color="#05BEB7"/>
</linearGradient>
<linearGradient id="paint5_linear_1266_19878" x1="61.463" y1="91.3748" x2="61.463" y2="17.7407" gradientUnits="userSpaceOnUse">
<stop/>
<stop offset="1" stop-color="#05BEB7"/>
</linearGradient>
</defs>
</svg>
