<svg width="216" height="172" viewBox="0 0 216 172" fill="none" xmlns="http://www.w3.org/2000/svg">
<g clip-path="url(#clip0_1097_3014)">
<path style="mix-blend-mode:color-dodge" opacity="0.5" d="M40.5651 67.7715C40.9527 67.7724 41.324 67.9268 41.5977 68.2008C41.8714 68.4748 42.0251 68.8459 42.0251 69.2329V120.333H39.1016V69.2329C39.1025 68.8456 39.257 68.4744 39.5313 68.2006C39.8055 67.9267 40.1773 67.7724 40.5651 67.7715Z" fill="url(#paint0_linear_1097_3014)"/>
<path style="mix-blend-mode:screen" opacity="0.7" d="M153.24 56.4326C153.341 56.4322 153.441 56.4515 153.534 56.4897C153.627 56.5278 153.712 56.5839 153.783 56.6548C153.854 56.7257 153.911 56.8099 153.949 56.9027C153.988 56.9955 154.008 57.0949 154.008 57.1954V101.552H152.477V57.1954C152.477 56.9931 152.557 56.7991 152.7 56.656C152.844 56.513 153.038 56.4326 153.24 56.4326Z" fill="url(#paint1_linear_1097_3014)"/>
<path style="mix-blend-mode:color-dodge" opacity="0.7" d="M175.217 57.1743C175.318 57.1739 175.417 57.1932 175.51 57.2314C175.604 57.2695 175.688 57.3256 175.76 57.3965C175.831 57.4674 175.887 57.5516 175.926 57.6444C175.965 57.7372 175.985 57.8366 175.985 57.9371V102.293H174.453V57.9371C174.453 57.7348 174.534 57.5408 174.677 57.3977C174.82 57.2547 175.014 57.1743 175.217 57.1743Z" fill="url(#paint2_linear_1097_3014)"/>
<path style="mix-blend-mode:color-dodge" opacity="0.7" d="M59.794 45.3403C59.9004 45.3413 60.002 45.3841 60.0769 45.4596C60.1518 45.535 60.1938 45.6369 60.1938 45.7431V90.7446H59.3906V45.7431C59.3916 45.6366 59.4343 45.5347 59.5098 45.4593C59.5852 45.384 59.6873 45.3413 59.794 45.3403Z" fill="url(#paint3_linear_1097_3014)"/>
<path style="mix-blend-mode:color-dodge" opacity="0.7" d="M52.5342 55.6914C52.5628 55.6914 52.5911 55.697 52.6175 55.708C52.6439 55.7189 52.6679 55.7349 52.6881 55.7551C52.7084 55.7753 52.7244 55.7992 52.7353 55.8256C52.7463 55.852 52.7519 55.8803 52.7519 55.9088V80.3967H52.3164V55.9088C52.3164 55.8512 52.3393 55.7959 52.3802 55.7551C52.421 55.7143 52.4764 55.6914 52.5342 55.6914Z" fill="url(#paint4_linear_1097_3014)"/>
<path style="mix-blend-mode:color-dodge" opacity="0.7" d="M72.1904 39.5655C72.2193 39.565 72.248 39.5703 72.2748 39.581C72.3017 39.5917 72.3261 39.6076 72.3467 39.6279C72.3673 39.6481 72.3836 39.6722 72.3948 39.6989C72.406 39.7255 72.4117 39.754 72.4117 39.7829V64.2708H71.9727V39.7829C71.9727 39.7252 71.9956 39.6699 72.0364 39.6291C72.0773 39.5884 72.1327 39.5655 72.1904 39.5655Z" fill="url(#paint5_linear_1097_3014)"/>
<path style="mix-blend-mode:color-dodge" opacity="0.7" d="M145.425 41.5796C145.454 41.5796 145.482 41.5853 145.509 41.5965C145.536 41.6076 145.56 41.624 145.58 41.6445C145.6 41.6651 145.616 41.6895 145.627 41.7163C145.638 41.7431 145.643 41.7717 145.643 41.8006V66.2885H145.207V41.8006C145.207 41.7717 145.212 41.7431 145.223 41.7163C145.233 41.6895 145.249 41.6651 145.27 41.6445C145.29 41.624 145.314 41.6076 145.341 41.5965C145.367 41.5853 145.396 41.5796 145.425 41.5796Z" fill="url(#paint6_linear_1097_3014)"/>
<g style="mix-blend-mode:color-dodge" opacity="0.3">
<path d="M55.3086 80.3965C55.3093 80.6474 55.3844 80.8923 55.5245 81.1005C55.6646 81.3088 55.8633 81.4709 56.0956 81.5664C56.3278 81.6618 56.5832 81.6865 56.8295 81.6371C57.0758 81.5877 57.3019 81.4666 57.4793 81.289C57.6566 81.1114 57.7773 80.8853 57.8261 80.6392C57.8748 80.3932 57.8494 80.1382 57.7531 79.9065C57.6569 79.6749 57.494 79.4769 57.2851 79.3376C57.0762 79.1984 56.8306 79.124 56.5794 79.124C56.4122 79.124 56.2467 79.157 56.0923 79.221C55.9379 79.285 55.7976 79.3787 55.6795 79.497C55.5615 79.6152 55.468 79.7555 55.4043 79.9098C55.3407 80.0642 55.3081 80.2296 55.3086 80.3965Z" fill="#1ED4FC"/>
</g>
<g style="mix-blend-mode:color-dodge" opacity="0.3">
<path d="M55.7695 80.3967C55.7695 80.5574 55.8173 80.7146 55.9067 80.8482C55.9961 80.9819 56.1232 81.086 56.272 81.1475C56.4207 81.209 56.5843 81.2251 56.7422 81.1938C56.9001 81.1624 57.0451 81.085 57.1589 80.9714C57.2728 80.8577 57.3503 80.7129 57.3817 80.5552C57.4131 80.3976 57.397 80.2342 57.3354 80.0857C57.2738 79.9372 57.1694 79.8102 57.0356 79.7209C56.9018 79.6316 56.7444 79.584 56.5834 79.584C56.3676 79.584 56.1605 79.6696 56.0079 79.822C55.8553 79.9744 55.7695 80.1811 55.7695 80.3967Z" fill="#1ED4FC"/>
</g>
<g style="mix-blend-mode:color-dodge">
<path d="M56.0391 80.3968C56.0391 80.5039 56.0709 80.6087 56.1305 80.6978C56.1901 80.7869 56.2749 80.8563 56.374 80.8973C56.4732 80.9383 56.5823 80.9491 56.6875 80.9282C56.7928 80.9073 56.8894 80.8557 56.9653 80.7799C57.0412 80.7041 57.0929 80.6076 57.1138 80.5025C57.1348 80.3974 57.124 80.2884 57.0829 80.1894C57.0419 80.0904 56.9723 80.0058 56.8831 79.9463C56.7939 79.8868 56.689 79.855 56.5817 79.855C56.4377 79.855 56.2997 79.9121 56.198 80.0137C56.0962 80.1153 56.0391 80.2531 56.0391 80.3968Z" fill="#1ED4FC"/>
</g>
<g style="mix-blend-mode:color-dodge" opacity="0.3">
<path d="M151.266 45.8033C151.266 46.055 151.34 46.301 151.48 46.5103C151.62 46.7195 151.819 46.8826 152.052 46.9789C152.285 47.0753 152.541 47.1005 152.789 47.0514C153.036 47.0023 153.263 46.8811 153.441 46.7031C153.619 46.5251 153.741 46.2984 153.79 46.0515C153.839 45.8047 153.814 45.5488 153.717 45.3163C153.621 45.0838 153.458 44.8851 153.248 44.7452C153.038 44.6054 152.792 44.5308 152.54 44.5308C152.373 44.5303 152.207 44.5629 152.052 44.6267C151.897 44.6905 151.756 44.7842 151.638 44.9024C151.519 45.0207 151.426 45.1612 151.362 45.3158C151.298 45.4704 151.265 45.636 151.266 45.8033Z" fill="#1ED4FC"/>
</g>
<g style="mix-blend-mode:color-dodge" opacity="0.3">
<path d="M151.723 45.8036C151.723 45.965 151.771 46.1228 151.86 46.2571C151.95 46.3913 152.078 46.4959 152.227 46.5577C152.377 46.6195 152.541 46.6357 152.7 46.6042C152.858 46.5727 153.004 46.4949 153.118 46.3808C153.232 46.2666 153.31 46.1212 153.342 45.9628C153.373 45.8045 153.357 45.6404 153.295 45.4912C153.233 45.3421 153.129 45.2146 152.994 45.1249C152.86 45.0352 152.702 44.9873 152.54 44.9873C152.433 44.9868 152.326 45.0076 152.227 45.0485C152.127 45.0893 152.037 45.1494 151.961 45.2253C151.885 45.3012 151.825 45.3914 151.784 45.4906C151.743 45.5899 151.722 45.6962 151.723 45.8036Z" fill="#1ED4FC"/>
</g>
<g style="mix-blend-mode:color-dodge">
<path d="M151.996 45.8037C151.997 45.9107 152.029 46.0151 152.089 46.1037C152.149 46.1923 152.234 46.2612 152.334 46.3017C152.433 46.3421 152.542 46.3524 152.647 46.3311C152.752 46.3097 152.848 46.2579 152.924 46.182C152.999 46.106 153.05 46.0095 153.071 45.9045C153.092 45.7995 153.081 45.6907 153.04 45.5919C152.998 45.4932 152.929 45.4087 152.84 45.3494C152.751 45.29 152.646 45.2583 152.539 45.2583C152.467 45.2583 152.396 45.2724 152.33 45.2999C152.264 45.3273 152.204 45.3676 152.154 45.4182C152.103 45.4689 152.063 45.5291 152.036 45.5952C152.009 45.6614 151.996 45.7322 151.996 45.8037Z" fill="#1ED4FC"/>
</g>
<g style="mix-blend-mode:color-dodge" opacity="0.3">
<path d="M65.1211 58.7461C65.1218 58.997 65.1969 59.242 65.337 59.4502C65.4771 59.6584 65.6758 59.8205 65.9081 59.916C66.1403 60.0115 66.3957 60.0361 66.642 59.9867C66.8883 59.9374 67.1144 59.8162 67.2918 59.6386C67.4691 59.461 67.5898 59.2349 67.6386 58.9888C67.6873 58.7428 67.6619 58.4878 67.5656 58.2562C67.4693 58.0245 67.3065 57.8265 67.0976 57.6872C66.8887 57.548 66.6431 57.4736 66.3919 57.4736C66.2247 57.4736 66.0592 57.5066 65.9048 57.5706C65.7503 57.6346 65.6101 57.7283 65.492 57.8466C65.374 57.9648 65.2805 58.1051 65.2168 58.2594C65.1531 58.4138 65.1206 58.5792 65.1211 58.7461Z" fill="#1ED4FC"/>
</g>
<g style="mix-blend-mode:color-dodge" opacity="0.3">
<path d="M65.5781 58.7459C65.5788 58.9065 65.6272 59.0633 65.717 59.1965C65.8069 59.3297 65.9342 59.4333 66.083 59.4942C66.2318 59.5552 66.3953 59.5708 66.553 59.539C66.7106 59.5073 66.8553 59.4296 66.9688 59.3158C67.0822 59.202 67.1594 59.0572 67.1905 58.8996C67.2216 58.7421 67.2053 58.5789 67.1436 58.4306C67.0819 58.2823 66.9776 58.1556 66.8438 58.0664C66.7101 57.9773 66.5528 57.9297 66.392 57.9297C66.2848 57.9297 66.1787 57.9508 66.0797 57.9919C65.9808 58.033 65.8909 58.0931 65.8152 58.169C65.7396 58.2448 65.6797 58.3348 65.6391 58.4339C65.5984 58.5329 65.5777 58.6389 65.5781 58.7459Z" fill="#1ED4FC"/>
</g>
<g style="mix-blend-mode:color-dodge">
<path d="M65.8516 58.746C65.8523 58.8531 65.8847 58.9574 65.9447 59.0461C66.0048 59.1347 66.0898 59.2036 66.189 59.2441C66.2882 59.2845 66.3972 59.2947 66.5022 59.2734C66.6072 59.2521 66.7036 59.2002 66.7791 59.1243C66.8546 59.0484 66.9059 58.9519 66.9266 58.8469C66.9472 58.7419 66.9363 58.6331 66.8951 58.5343C66.8539 58.4355 66.7844 58.3511 66.6952 58.2918C66.6061 58.2324 66.5013 58.2007 66.3942 58.2007C66.3226 58.2007 66.2518 58.2148 66.1857 58.2423C66.1196 58.2697 66.0597 58.3099 66.0092 58.3606C65.9588 58.4113 65.9189 58.4715 65.8918 58.5376C65.8648 58.6038 65.8511 58.6746 65.8516 58.746Z" fill="#1ED4FC"/>
</g>
<g style="mix-blend-mode:color-dodge" opacity="0.3">
<path d="M34.082 64.9589C34.082 65.2099 34.1566 65.4552 34.2962 65.6639C34.4358 65.8726 34.6343 66.0352 34.8665 66.1313C35.0987 66.2273 35.3543 66.2524 35.6008 66.2035C35.8473 66.1545 36.0737 66.0336 36.2514 65.8562C36.4292 65.6787 36.5502 65.4526 36.5992 65.2065C36.6483 64.9603 36.6231 64.7052 36.5269 64.4733C36.4307 64.2414 36.2679 64.0432 36.0589 63.9038C35.8499 63.7644 35.6042 63.6899 35.3528 63.6899C35.0158 63.6899 34.6926 63.8236 34.4542 64.0616C34.2159 64.2996 34.082 64.6224 34.082 64.9589Z" fill="#1ED4FC"/>
</g>
<g style="mix-blend-mode:color-dodge" opacity="0.3">
<path d="M34.5391 64.9592C34.5391 65.1199 34.5868 65.277 34.6762 65.4107C34.7657 65.5443 34.8928 65.6485 35.0415 65.71C35.1902 65.7715 35.3539 65.7876 35.5117 65.7563C35.6696 65.7249 35.8146 65.6475 35.9285 65.5338C36.0423 65.4202 36.1198 65.2754 36.1512 65.1177C36.1826 64.9601 36.1665 64.7967 36.1049 64.6482C36.0433 64.4997 35.939 64.3727 35.8051 64.2834C35.6713 64.1941 35.5139 64.1465 35.353 64.1465C35.1371 64.1465 34.9301 64.2321 34.7774 64.3845C34.6248 64.5369 34.5391 64.7436 34.5391 64.9592Z" fill="#1ED4FC"/>
</g>
<g style="mix-blend-mode:color-dodge">
<path d="M34.8125 64.9588C34.8125 65.066 34.8443 65.1707 34.9039 65.2598C34.9636 65.3489 35.0483 65.4183 35.1475 65.4594C35.2466 65.5004 35.3557 65.5111 35.461 65.4902C35.5662 65.4693 35.6629 65.4177 35.7388 65.3419C35.8146 65.2661 35.8663 65.1696 35.8873 65.0645C35.9082 64.9594 35.8975 64.8505 35.8564 64.7515C35.8153 64.6525 35.7458 64.5678 35.6565 64.5083C35.5673 64.4488 35.4624 64.417 35.3551 64.417C35.2112 64.417 35.0732 64.4741 34.9714 64.5757C34.8697 64.6773 34.8125 64.8151 34.8125 64.9588Z" fill="#1ED4FC"/>
</g>
<g style="mix-blend-mode:color-dodge" opacity="0.3">
<path d="M159.344 73.542C159.344 74.0917 159.507 74.6291 159.813 75.0863C160.119 75.5434 160.553 75.8998 161.062 76.1103C161.57 76.3209 162.13 76.3761 162.67 76.2691C163.21 76.1621 163.706 75.8977 164.096 75.5092C164.485 75.1208 164.751 74.6257 164.859 74.0866C164.966 73.5475 164.912 72.9886 164.702 72.4805C164.491 71.9724 164.135 71.5379 163.678 71.232C163.22 70.9261 162.682 70.7624 162.132 70.7617C161.766 70.7613 161.403 70.8328 161.065 70.9723C160.727 71.1118 160.419 71.3166 160.161 71.5748C159.902 71.833 159.696 72.1397 159.556 72.4772C159.416 72.8148 159.344 73.1766 159.344 73.542Z" fill="#1ED4FC"/>
</g>
<g style="mix-blend-mode:color-dodge" opacity="0.3">
<path d="M160.363 73.542C160.363 73.8945 160.468 74.2391 160.664 74.5322C160.86 74.8252 161.139 75.0537 161.465 75.1886C161.791 75.3235 162.15 75.3588 162.496 75.29C162.843 75.2212 163.161 75.0515 163.41 74.8022C163.66 74.553 163.83 74.2354 163.899 73.8897C163.968 73.544 163.932 73.1856 163.797 72.86C163.662 72.5343 163.433 72.256 163.14 72.0601C162.846 71.8643 162.501 71.7598 162.148 71.7598C161.675 71.7598 161.221 71.9475 160.886 72.2818C160.551 72.616 160.363 73.0693 160.363 73.542Z" fill="#1ED4FC"/>
</g>
<g style="mix-blend-mode:color-dodge">
<path d="M160.941 73.5424C160.941 73.777 161.011 74.0064 161.142 74.2015C161.272 74.3966 161.457 74.5488 161.674 74.6387C161.891 74.7286 162.13 74.7524 162.361 74.7069C162.591 74.6613 162.803 74.5487 162.969 74.383C163.136 74.2174 163.249 74.0062 163.296 73.7762C163.342 73.5462 163.319 73.3076 163.229 73.0907C163.14 72.8737 162.988 72.6881 162.793 72.5572C162.598 72.4264 162.369 72.3562 162.134 72.3555C161.818 72.3555 161.515 72.4804 161.292 72.7029C161.068 72.9254 160.942 73.2273 160.941 73.5424Z" fill="#1ED4FC"/>
</g>
<g style="mix-blend-mode:color-dodge" opacity="0.3">
<path d="M43.2383 66.146C43.2383 66.6957 43.4015 67.2331 43.7073 67.6903C44.0131 68.1474 44.4477 68.5038 44.9563 68.7143C45.4649 68.9249 46.0245 68.9801 46.5645 68.8731C47.1046 68.7661 47.6007 68.5017 47.9902 68.1132C48.3798 67.7248 48.6452 67.2297 48.7531 66.6906C48.8609 66.1515 48.8063 65.5926 48.5961 65.0845C48.3859 64.5764 48.0296 64.1419 47.5722 63.836C47.1147 63.5301 46.5768 63.3664 46.0262 63.3657C45.2874 63.3657 44.5788 63.6585 44.0561 64.1798C43.5334 64.7011 43.2392 65.4083 43.2383 66.146Z" fill="#1ED4FC"/>
</g>
<g style="mix-blend-mode:color-dodge" opacity="0.3">
<path d="M44.2422 66.146C44.2422 66.4985 44.3469 66.8431 44.543 67.1362C44.7391 67.4292 45.0179 67.6577 45.344 67.7926C45.6701 67.9275 46.029 67.9628 46.3752 67.894C46.7215 67.8252 47.0395 67.6555 47.2891 67.4062C47.5387 67.157 47.7087 66.8394 47.7776 66.4937C47.8465 66.148 47.8111 65.7896 47.676 65.464C47.5409 65.1383 47.3122 64.86 47.0186 64.6641C46.7251 64.4683 46.38 64.3638 46.027 64.3638C45.5537 64.3638 45.0997 64.5515 44.765 64.8858C44.4302 65.22 44.2422 65.6733 44.2422 66.146Z" fill="#1ED4FC"/>
</g>
<g style="mix-blend-mode:color-dodge">
<path d="M44.8359 66.146C44.8359 66.3806 44.9056 66.6099 45.036 66.805C45.1665 67.0001 45.3519 67.1523 45.5689 67.2422C45.7859 67.3322 46.0248 67.3559 46.2552 67.3104C46.4857 67.2649 46.6975 67.1522 46.8639 66.9865C47.0303 66.8209 47.1438 66.6097 47.1901 66.3797C47.2364 66.1497 47.2133 65.9111 47.1239 65.6942C47.0345 65.4772 46.8827 65.2916 46.6877 65.1608C46.4926 65.0299 46.2632 64.9597 46.0282 64.959C45.7126 64.959 45.4099 65.0839 45.1864 65.3064C44.9629 65.5289 44.8369 65.8308 44.8359 66.146Z" fill="#1ED4FC"/>
</g>
<g style="mix-blend-mode:color-dodge" opacity="0.3">
<path d="M164.398 59.3023C164.398 59.8521 164.562 60.3897 164.868 60.8469C165.174 61.3041 165.608 61.6605 166.117 61.8709C166.626 62.0813 167.186 62.1364 167.726 62.0291C168.266 61.9218 168.762 61.657 169.152 61.2682C169.541 60.8794 169.806 60.384 169.914 59.8447C170.021 59.3053 169.966 58.7463 169.755 58.2383C169.544 57.7303 169.188 57.296 168.73 56.9905C168.272 56.685 167.733 56.522 167.183 56.522C166.444 56.522 165.736 56.8149 165.214 57.3363C164.692 57.8577 164.398 58.5649 164.398 59.3023Z" fill="#1ED4FC"/>
</g>
<g style="mix-blend-mode:color-dodge" opacity="0.3">
<path d="M165.402 59.3023C165.402 59.6547 165.507 59.9993 165.703 60.2924C165.899 60.5855 166.178 60.8139 166.504 60.9488C166.83 61.0837 167.189 61.119 167.535 61.0502C167.882 60.9815 168.2 60.8117 168.449 60.5625C168.699 60.3132 168.869 59.9957 168.938 59.65C169.007 59.3042 168.971 58.9459 168.836 58.6202C168.701 58.2946 168.472 58.0162 168.179 57.8204C167.885 57.6245 167.54 57.52 167.187 57.52C166.714 57.52 166.26 57.7078 165.925 58.042C165.59 58.3763 165.402 58.8296 165.402 59.3023Z" fill="#1ED4FC"/>
</g>
<g style="mix-blend-mode:color-dodge">
<path d="M165.996 59.3022C165.996 59.537 166.066 59.7665 166.196 59.9616C166.327 60.1568 166.513 60.309 166.73 60.3988C166.947 60.4887 167.186 60.5122 167.417 60.4664C167.647 60.4206 167.859 60.3075 168.025 60.1415C168.192 59.9755 168.305 59.764 168.351 59.5338C168.397 59.3035 168.373 59.0649 168.283 58.848C168.193 58.6311 168.041 58.4457 167.845 58.3153C167.65 58.1849 167.42 58.1152 167.185 58.1152C167.029 58.1152 166.874 58.1459 166.73 58.2056C166.586 58.2652 166.455 58.3527 166.344 58.4629C166.234 58.5731 166.146 58.704 166.087 58.848C166.027 58.992 165.996 59.1463 165.996 59.3022Z" fill="#1ED4FC"/>
</g>
<g style="mix-blend-mode:color-dodge" opacity="0.3">
<path d="M157.547 53.1821C157.546 53.2978 157.58 53.4112 157.644 53.5078C157.708 53.6044 157.799 53.6799 157.906 53.7247C158.013 53.7695 158.131 53.7816 158.244 53.7594C158.358 53.7373 158.463 53.6819 158.545 53.6003C158.627 53.5187 158.683 53.4145 158.706 53.301C158.729 53.1875 158.718 53.0698 158.674 52.9628C158.629 52.8557 158.554 52.7642 158.458 52.6998C158.362 52.6355 158.248 52.6011 158.132 52.6011C157.978 52.6011 157.829 52.6622 157.72 52.771C157.61 52.8799 157.548 53.0277 157.547 53.1821Z" fill="#1ED4FC"/>
</g>
<g style="mix-blend-mode:color-dodge" opacity="0.3">
<path d="M157.758 53.1821C157.758 53.2526 157.779 53.3215 157.818 53.3802C157.857 53.4388 157.913 53.4845 157.978 53.5114C158.043 53.5384 158.115 53.5455 158.184 53.5317C158.254 53.518 158.317 53.484 158.367 53.4342C158.417 53.3843 158.451 53.3208 158.465 53.2517C158.479 53.1825 158.472 53.1109 158.445 53.0457C158.418 52.9806 158.372 52.9249 158.313 52.8858C158.254 52.8466 158.185 52.8257 158.115 52.8257C158.02 52.8257 157.929 52.8632 157.862 52.9301C157.795 52.9969 157.758 53.0876 157.758 53.1821Z" fill="#1ED4FC"/>
</g>
<g style="mix-blend-mode:color-dodge">
<path d="M157.885 53.1821C157.88 53.2171 157.884 53.2527 157.894 53.2863C157.905 53.32 157.922 53.3511 157.946 53.3775C157.969 53.4038 157.998 53.425 158.03 53.4394C158.062 53.4539 158.097 53.4614 158.133 53.4614C158.168 53.4614 158.203 53.4539 158.235 53.4394C158.267 53.425 158.296 53.4038 158.32 53.3775C158.343 53.3511 158.361 53.32 158.371 53.2863C158.382 53.2527 158.385 53.2171 158.381 53.1821C158.385 53.1471 158.382 53.1116 158.371 53.0779C158.361 53.0442 158.343 53.0132 158.32 52.9868C158.296 52.9604 158.267 52.9392 158.235 52.9248C158.203 52.9103 158.168 52.9028 158.133 52.9028C158.097 52.9028 158.062 52.9103 158.03 52.9248C157.998 52.9392 157.969 52.9604 157.946 52.9868C157.922 53.0132 157.905 53.0442 157.894 53.0779C157.884 53.1116 157.88 53.1471 157.885 53.1821Z" fill="#1ED4FC"/>
</g>
<g style="mix-blend-mode:color-dodge" opacity="0.3">
<path d="M65.2695 42.56C65.2695 42.6749 65.3037 42.7873 65.3676 42.8828C65.4315 42.9783 65.5224 43.0528 65.6287 43.0968C65.735 43.1408 65.852 43.1523 65.9649 43.1299C66.0778 43.1074 66.1815 43.0521 66.2628 42.9708C66.3442 42.8896 66.3996 42.7861 66.4221 42.6734C66.4445 42.5607 66.433 42.4438 66.389 42.3377C66.3449 42.2315 66.2703 42.1408 66.1747 42.0769C66.079 42.0131 65.9665 41.979 65.8514 41.979C65.6974 41.9799 65.5499 42.0415 65.441 42.1502C65.3321 42.259 65.2705 42.4062 65.2695 42.56Z" fill="#1ED4FC"/>
</g>
<g style="mix-blend-mode:color-dodge" opacity="0.3">
<path d="M65.477 42.5598C65.477 42.6338 65.499 42.7062 65.5402 42.7677C65.5814 42.8293 65.6399 42.8772 65.7084 42.9056C65.7769 42.9339 65.8523 42.9413 65.925 42.9269C65.9977 42.9124 66.0645 42.8768 66.1169 42.8244C66.1693 42.7721 66.205 42.7054 66.2195 42.6328C66.2339 42.5602 66.2265 42.485 66.1981 42.4166C66.1698 42.3482 66.1217 42.2897 66.0601 42.2486C65.9984 42.2075 65.926 42.1855 65.8518 42.1855C65.8019 42.183 65.7521 42.1909 65.7054 42.2088C65.6588 42.2267 65.6164 42.2542 65.5811 42.2895C65.5458 42.3247 65.5183 42.367 65.5003 42.4136C65.4824 42.4602 65.4745 42.51 65.477 42.5598Z" fill="#1ED4FC"/>
</g>
<g style="mix-blend-mode:color-dodge">
<path d="M65.6055 42.5601C65.6062 42.6085 65.6212 42.6557 65.6487 42.6957C65.6762 42.7357 65.7149 42.7667 65.76 42.7847C65.8051 42.8028 65.8545 42.8072 65.902 42.7973C65.9496 42.7874 65.9931 42.7637 66.0272 42.7292C66.0613 42.6946 66.0844 42.6508 66.0936 42.6032C66.1028 42.5556 66.0977 42.5063 66.079 42.4616C66.0603 42.4168 66.0287 42.3786 65.9883 42.3518C65.9478 42.3249 65.9004 42.3106 65.8518 42.3105C65.8192 42.3105 65.7868 42.317 65.7567 42.3296C65.7266 42.3422 65.6993 42.3606 65.6764 42.3838C65.6535 42.4071 65.6354 42.4346 65.6232 42.4648C65.6111 42.4951 65.605 42.5275 65.6055 42.5601Z" fill="#1ED4FC"/>
</g>
<g style="mix-blend-mode:color-dodge" opacity="0.3">
<path d="M55.1836 57.4736C55.1836 57.5885 55.2177 57.7008 55.2817 57.7964C55.3456 57.8919 55.4365 57.9664 55.5428 58.0104C55.6491 58.0543 55.7661 58.0659 55.879 58.0434C55.9918 58.021 56.0955 57.9657 56.1769 57.8844C56.2583 57.8032 56.3137 57.6996 56.3361 57.5869C56.3586 57.4742 56.3471 57.3574 56.303 57.2512C56.259 57.1451 56.1844 57.0543 56.0887 56.9905C55.993 56.9267 55.8805 56.8926 55.7655 56.8926C55.6111 56.8926 55.4631 56.9538 55.354 57.0628C55.2449 57.1717 55.1836 57.3195 55.1836 57.4736Z" fill="#1ED4FC"/>
</g>
<g style="mix-blend-mode:color-dodge" opacity="0.3">
<path d="M55.3911 57.4734C55.3911 57.5474 55.4131 57.6198 55.4543 57.6813C55.4954 57.7429 55.554 57.7908 55.6225 57.8191C55.691 57.8475 55.7663 57.8549 55.839 57.8404C55.9117 57.826 55.9785 57.7904 56.0309 57.738C56.0834 57.6857 56.1191 57.619 56.1335 57.5464C56.148 57.4738 56.1406 57.3985 56.1122 57.3301C56.0838 57.2618 56.0358 57.2033 55.9741 57.1622C55.9125 57.1211 55.84 57.0991 55.7659 57.0991C55.716 57.0965 55.6661 57.1045 55.6195 57.1224C55.5729 57.1403 55.5305 57.1678 55.4952 57.203C55.4598 57.2383 55.4323 57.2806 55.4144 57.3272C55.3965 57.3737 55.3885 57.4235 55.3911 57.4734Z" fill="#1ED4FC"/>
</g>
<g style="mix-blend-mode:color-dodge">
<path d="M55.5196 57.4736C55.5203 57.5221 55.5353 57.5693 55.5628 57.6093C55.5903 57.6493 55.629 57.6802 55.6741 57.6983C55.7191 57.7164 55.7685 57.7207 55.8161 57.7109C55.8636 57.701 55.9072 57.6773 55.9413 57.6427C55.9753 57.6082 55.9985 57.5644 56.0077 57.5168C56.0169 57.4691 56.0118 57.4199 55.9931 57.3751C55.9743 57.3304 55.9428 57.2922 55.9023 57.2653C55.8619 57.2385 55.8144 57.2241 55.7659 57.2241C55.7332 57.2241 55.7009 57.2306 55.6708 57.2432C55.6407 57.2558 55.6134 57.2742 55.5904 57.2974C55.5675 57.3206 55.5494 57.3482 55.5373 57.3784C55.5251 57.4087 55.5191 57.441 55.5196 57.4736Z" fill="#1ED4FC"/>
</g>
<g style="mix-blend-mode:color-dodge" opacity="0.3">
<path d="M47.2227 57.627C47.2227 57.8266 47.4832 57.9834 47.8045 57.9834C48.1258 57.9834 48.3864 57.823 48.3864 57.627C48.3864 57.4309 48.1258 57.2705 47.8045 57.2705C47.4832 57.2705 47.2227 57.4309 47.2227 57.627Z" fill="#1ED4FC"/>
</g>
<g style="mix-blend-mode:color-dodge" opacity="0.3">
<path d="M47.4297 57.6271C47.4297 57.7554 47.5975 57.8552 47.8045 57.8552C48.0115 57.8552 48.1793 57.7554 48.1793 57.6271C48.1793 57.4987 48.0115 57.3989 47.8045 57.3989C47.5975 57.3989 47.4297 57.5023 47.4297 57.6271Z" fill="#1ED4FC"/>
</g>
<g style="mix-blend-mode:color-dodge">
<path d="M47.5586 57.6269C47.5586 57.7124 47.6657 57.7802 47.8049 57.7802C47.9441 57.7802 48.0512 57.7124 48.0512 57.6269C48.0512 57.5414 47.9406 57.4736 47.8049 57.4736C47.6693 57.4736 47.5586 57.5449 47.5586 57.6269Z" fill="#1ED4FC"/>
</g>
<g style="mix-blend-mode:color-dodge" opacity="0.3">
<path d="M46.9727 75.3208C46.9727 75.5168 47.2368 75.6772 47.5581 75.6772C47.8794 75.6772 48.14 75.5168 48.14 75.3208C48.14 75.1248 47.8794 74.9644 47.5581 74.9644C47.2368 74.9644 46.9727 75.1212 46.9727 75.3208Z" fill="#1ED4FC"/>
</g>
<g style="mix-blend-mode:color-dodge" opacity="0.3">
<path d="M47.2031 75.321C47.2031 75.4458 47.3709 75.5492 47.5779 75.5492C47.785 75.5492 47.9349 75.4458 47.9349 75.321C47.9349 75.1963 47.7707 75.0894 47.5779 75.0894C47.3852 75.0894 47.2031 75.1927 47.2031 75.321Z" fill="#1ED4FC"/>
</g>
<g style="mix-blend-mode:color-dodge">
<path d="M47.3086 75.3208C47.3086 75.4027 47.4193 75.4705 47.5585 75.4705C47.6977 75.4705 47.8048 75.4027 47.8048 75.3208C47.8048 75.2388 47.6941 75.1675 47.5585 75.1675C47.4228 75.1675 47.3086 75.2352 47.3086 75.3208Z" fill="#1ED4FC"/>
</g>
<g style="mix-blend-mode:color-dodge" opacity="0.3">
<path d="M169.441 53.182C169.441 53.3132 169.48 53.4413 169.553 53.5504C169.626 53.6594 169.73 53.7444 169.851 53.7946C169.973 53.8447 170.106 53.8579 170.235 53.8323C170.364 53.8067 170.482 53.7436 170.575 53.6508C170.668 53.5581 170.731 53.44 170.757 53.3114C170.782 53.1828 170.769 53.0495 170.719 52.9283C170.669 52.8072 170.583 52.7036 170.474 52.6308C170.365 52.5579 170.237 52.519 170.105 52.519C169.929 52.519 169.76 52.5889 169.636 52.7132C169.511 52.8376 169.441 53.0062 169.441 53.182Z" fill="#1ED4FC"/>
</g>
<g style="mix-blend-mode:color-dodge" opacity="0.3">
<path d="M169.684 53.182C169.684 53.2659 169.709 53.3479 169.755 53.4176C169.802 53.4874 169.868 53.5418 169.946 53.5739C170.023 53.606 170.109 53.6144 170.191 53.598C170.274 53.5816 170.349 53.5412 170.409 53.4819C170.468 53.4226 170.509 53.347 170.525 53.2647C170.541 53.1825 170.533 53.0972 170.501 53.0197C170.469 52.9422 170.414 52.8759 170.344 52.8293C170.275 52.7827 170.192 52.7578 170.108 52.7578C170.053 52.7578 169.997 52.7688 169.946 52.7901C169.894 52.8114 169.847 52.8427 169.808 52.882C169.769 52.9214 169.737 52.9682 169.716 53.0197C169.695 53.0711 169.684 53.1263 169.684 53.182Z" fill="#1ED4FC"/>
</g>
<g style="mix-blend-mode:color-dodge">
<path d="M169.824 53.182C169.824 53.2377 169.841 53.2921 169.872 53.3384C169.903 53.3847 169.947 53.4208 169.998 53.4421C170.05 53.4635 170.107 53.469 170.161 53.4582C170.216 53.4473 170.266 53.4205 170.306 53.3811C170.345 53.3417 170.372 53.2915 170.383 53.2369C170.394 53.1823 170.388 53.1257 170.367 53.0742C170.345 53.0228 170.309 52.9788 170.263 52.9478C170.217 52.9169 170.162 52.9004 170.106 52.9004C170.031 52.9004 169.96 52.9301 169.907 52.9829C169.854 53.0357 169.824 53.1073 169.824 53.182Z" fill="#1ED4FC"/>
</g>
<g style="mix-blend-mode:color-dodge" opacity="0.3">
<path d="M169.441 70.4872C169.441 70.6183 169.48 70.7465 169.553 70.8555C169.626 70.9646 169.73 71.0496 169.851 71.0997C169.973 71.1499 170.106 71.163 170.235 71.1375C170.364 71.1119 170.482 71.0487 170.575 70.956C170.668 70.8633 170.731 70.7452 170.757 70.6166C170.782 70.4879 170.769 70.3546 170.719 70.2335C170.669 70.1123 170.583 70.0088 170.474 69.936C170.365 69.8631 170.237 69.8242 170.105 69.8242C169.929 69.8242 169.76 69.8941 169.636 70.0184C169.511 70.1427 169.441 70.3114 169.441 70.4872Z" fill="#1ED4FC"/>
</g>
<g style="mix-blend-mode:color-dodge" opacity="0.3">
<path d="M169.684 70.4876C169.684 70.5715 169.709 70.6536 169.755 70.7233C169.802 70.7931 169.868 70.8474 169.946 70.8795C170.023 70.9116 170.109 70.92 170.191 70.9037C170.274 70.8873 170.349 70.8469 170.409 70.7876C170.468 70.7283 170.509 70.6527 170.525 70.5704C170.541 70.4881 170.533 70.4028 170.501 70.3253C170.469 70.2478 170.414 70.1816 170.344 70.135C170.275 70.0884 170.192 70.0635 170.108 70.0635C170.053 70.0635 169.997 70.0745 169.946 70.0958C169.894 70.1171 169.847 70.1483 169.808 70.1877C169.769 70.2271 169.737 70.2739 169.716 70.3253C169.695 70.3768 169.684 70.4319 169.684 70.4876Z" fill="#1ED4FC"/>
</g>
<g style="mix-blend-mode:color-dodge">
<path d="M169.824 70.4876C169.824 70.5433 169.841 70.5978 169.872 70.6441C169.903 70.6904 169.947 70.7265 169.998 70.7478C170.05 70.7691 170.107 70.7747 170.161 70.7638C170.216 70.753 170.266 70.7261 170.306 70.6868C170.345 70.6474 170.372 70.5972 170.383 70.5426C170.394 70.488 170.388 70.4313 170.367 70.3799C170.345 70.3284 170.309 70.2845 170.263 70.2535C170.217 70.2226 170.162 70.2061 170.106 70.2061C170.031 70.2061 169.96 70.2357 169.907 70.2885C169.854 70.3413 169.824 70.413 169.824 70.4876Z" fill="#1ED4FC"/>
</g>
<g style="mix-blend-mode:color-dodge">
<path style="mix-blend-mode:screen" opacity="0.14" d="M173.711 39.2553C210.257 60.3249 210.257 94.5046 173.711 115.556C137.164 136.608 77.9107 136.626 41.3605 115.556C4.81034 94.4868 4.81391 60.3249 41.3605 39.2553C77.9071 18.1857 137.157 18.1857 173.711 39.2553Z" fill="url(#paint7_linear_1097_3014)"/>
<path style="mix-blend-mode:screen" opacity="0.14" d="M173.711 39.2553C137.157 18.1857 77.8999 18.1857 41.3604 39.2553C4.82094 60.3249 4.8138 94.5046 41.3604 115.556C77.907 136.608 137.164 136.626 173.711 115.556C210.257 94.4868 210.257 60.3249 173.711 39.2553ZM173.018 115.157C136.853 136.006 78.2211 136.006 42.0565 115.157C5.89185 94.3086 5.89185 60.5067 42.0565 39.6545C78.2211 18.8024 136.853 18.8059 173.018 39.6545C209.183 60.5031 209.179 94.3086 173.018 115.157Z" fill="url(#paint8_linear_1097_3014)"/>
</g>
<path d="M169.463 93.2323C169.52 92.2413 168.895 91.2433 167.596 90.4912L113.418 59.2593C110.919 57.8335 106.836 57.8335 104.337 59.2593L50.1596 90.4912C48.9138 91.2041 48.2891 92.1593 48.2891 93.1075V109.996C48.2891 110.944 48.9138 111.892 50.1596 112.612L104.337 143.848C106.836 145.274 110.919 145.274 113.418 143.848L167.596 112.612C168.841 111.899 169.466 110.944 169.466 109.996L169.463 93.2323Z" fill="url(#paint9_linear_1097_3014)"/>
<path d="M167.595 90.4912C170.094 91.917 170.094 94.2873 167.595 95.7274L113.418 126.959C110.919 128.385 106.835 128.385 104.337 126.959L50.1592 95.7274C47.6605 94.3016 47.6605 91.9312 50.1592 90.4912L104.337 59.2593C106.835 57.8335 110.919 57.8335 113.418 59.2593L167.595 90.4912Z" fill="url(#paint10_linear_1097_3014)"/>
<g style="mix-blend-mode:multiply" opacity="0.5">
<path d="M169.463 100.14C169.434 101.071 168.813 101.99 167.596 102.692L113.418 133.935C110.919 135.361 106.836 135.361 104.337 133.935L50.1596 102.692C48.9138 101.979 48.2891 101.028 48.2891 100.08V103.879C48.2891 104.827 48.9138 105.776 50.1596 106.496L104.337 137.728C106.836 139.153 110.919 139.153 113.418 137.728L167.596 106.489C168.841 105.776 169.466 104.82 169.466 103.872V100.14H169.463Z" fill="#0A20CC"/>
</g>
<path opacity="0.3" d="M108.877 123.37C107.022 123.399 105.191 122.95 103.562 122.065L61.2715 97.6841C59.3866 96.597 58.3086 94.9324 58.3086 93.1074C58.3086 91.2824 59.3795 89.6213 61.2715 88.5341L103.562 64.1532C105.202 63.2962 107.026 62.8486 108.877 62.8486C110.728 62.8486 112.552 63.2962 114.192 64.1532L156.482 88.5341C158.367 89.6213 159.445 91.2859 159.445 93.1074C159.445 94.9288 158.374 96.597 156.482 97.6841L114.192 122.065C112.563 122.95 110.732 123.399 108.877 123.37Z" fill="#4CE8F3"/>
<path opacity="0.5" d="M108.877 122.062C107.259 122.088 105.661 121.699 104.237 120.932L61.9428 96.551C60.4792 95.7062 59.6367 94.4515 59.6367 93.1077C59.6367 91.7639 60.4792 90.5128 61.9428 89.668L104.237 65.287C105.677 64.5446 107.274 64.1572 108.895 64.1572C110.516 64.1572 112.113 64.5446 113.553 65.287L155.847 89.668C157.311 90.5128 158.153 91.7675 158.153 93.1077C158.153 94.4479 157.311 95.7062 155.847 96.551L113.553 120.932C112.118 121.705 110.507 122.094 108.877 122.062Z" fill="#4CE8F3"/>
<path d="M155.173 90.8048C157.375 92.0737 157.375 94.1518 155.173 95.4207L112.886 119.798C110.684 121.067 107.078 121.067 104.876 119.798L62.5855 95.4172C60.383 94.1482 60.383 92.0701 62.5855 90.8012L104.876 66.4202C107.078 65.1477 110.684 65.1477 112.886 66.4202L155.173 90.8048Z" fill="#4CE8F3"/>
<path d="M108.877 119.442C107.713 119.469 106.561 119.201 105.528 118.665L63.2346 94.2838C62.6134 93.9274 62.2422 93.4854 62.2422 93.1075C62.2422 92.7297 62.5992 92.2948 63.2346 91.9348L105.528 67.5503C106.571 67.0414 107.716 66.7769 108.877 66.7769C110.037 66.7769 111.182 67.0414 112.225 67.5503L154.519 91.9348C155.14 92.2913 155.515 92.7332 155.515 93.1075C155.515 93.4818 155.158 93.9238 154.515 94.2838L112.225 118.665C111.192 119.201 110.041 119.469 108.877 119.442Z" fill="#D2FFFF"/>
<path d="M155.169 75.0999L112.883 50.7154C110.68 49.4464 107.075 49.4464 104.872 50.7154L62.5785 75.0999C61.4755 75.7344 60.9258 76.5685 60.9258 77.4061V90.4771C60.9258 91.3183 61.4719 92.1631 62.5785 92.8011L104.869 117.182C107.071 118.451 110.677 118.451 112.879 117.182L155.169 92.8011C156.344 92.1238 156.89 91.2185 156.815 90.3274V77.4061C156.822 76.5685 156.269 75.7344 155.169 75.0999Z" fill="url(#paint11_linear_1097_3014)"/>
<path d="M155.173 75.0999C157.375 76.3689 157.375 78.447 155.173 79.7159L112.886 104.097C110.684 105.366 107.078 105.366 104.876 104.097L62.5855 79.7159C60.383 78.447 60.383 76.3689 62.5855 75.0999L104.876 50.7154C107.078 49.4464 110.684 49.4464 112.886 50.7154L155.173 75.0999Z" fill="url(#paint12_linear_1097_3014)"/>
<path d="M141.312 77.684C141.392 76.9352 141.392 76.18 141.312 75.4312L134.662 74.9465C134.49 74.0791 134.199 73.2395 133.798 72.4513L139.609 70.5301C139.166 69.7967 138.662 69.1015 138.103 68.452L131.645 69.4714C130.894 68.6929 130.072 67.9864 129.189 67.3613L133.28 64.2958C132.848 64.0178 132.409 63.7433 131.942 63.4724C131.474 63.2015 130.999 62.952 130.514 62.7025L125.234 65.08C124.047 64.5261 122.824 64.0498 121.575 63.6542L123.321 59.9151C122.146 59.5836 120.94 59.2913 119.719 59.0489L116.417 62.4173C114.983 62.183 113.537 62.0212 112.087 61.9326L111.227 58.0865C109.931 58.0402 108.628 58.0402 107.325 58.0865L106.511 61.9326C105.066 62.0243 103.627 62.1885 102.199 62.4245L98.8647 59.0525C97.6403 59.2984 96.4445 59.5872 95.2665 59.9222L97.0513 63.6613C95.8051 64.0591 94.5854 64.5353 93.3995 65.0871L88.0914 62.7096C87.6094 62.9591 87.1311 63.2158 86.6635 63.4796C86.1958 63.7433 85.7603 64.0249 85.3355 64.3029L89.4621 67.3648C88.589 67.9953 87.7753 68.704 87.0312 69.4821L80.5557 68.4591C80.0042 69.109 79.5087 69.8041 79.0743 70.5372L84.9107 72.4585C84.5192 73.2481 84.2382 74.0876 84.0754 74.9536L77.4287 75.4348C77.3519 76.1849 77.3519 76.9409 77.4287 77.6911L84.0861 78.1759C84.2556 79.0439 84.5464 79.8838 84.95 80.671L79.1314 82.5922C79.5788 83.3241 80.0824 84.02 80.6378 84.6739L87.1025 83.6509C87.8529 84.4285 88.6739 85.1349 89.5549 85.7611L85.4605 88.8229C85.8936 89.1034 86.3398 89.3778 86.7991 89.6463C87.2668 89.9172 87.7415 90.1703 88.227 90.4198L93.5102 88.0423C94.6988 88.5963 95.9222 89.0725 97.1727 89.4681L95.4199 93.2108C96.5979 93.5387 97.8009 93.831 99.0218 94.077L102.327 90.705C103.769 90.9322 105.221 91.0845 106.679 91.1612L107.532 95.0216C108.831 95.0667 110.131 95.0667 111.43 95.0216L112.251 91.1612C113.696 91.07 115.135 90.9058 116.563 90.6693L119.901 94.0413C121.125 93.7989 122.325 93.5067 123.496 93.1752L121.711 89.4325C122.957 89.0353 124.177 88.5591 125.363 88.0067L130.667 90.3806C131.149 90.1347 131.627 89.8816 132.095 89.6143C132.563 89.3469 132.991 89.0689 133.419 88.7873L129.293 85.729C130.167 85.1003 130.981 84.3915 131.724 83.6117L138.196 84.6383C138.75 83.9875 139.248 83.2912 139.684 82.5566L133.841 80.6389C134.232 79.8489 134.514 79.0095 134.68 78.1438L141.312 77.684ZM122.086 67.4183L114.764 71.6671C111.677 70.5987 108.343 70.4648 105.18 71.2822L100.421 65.9996C107.364 64.0392 115.856 64.5061 122.086 67.4183ZM89.198 77.8052C88.5518 74.3975 90.4759 70.8616 94.9737 68.2524C95.553 67.9164 96.1487 67.6094 96.7586 67.3327L101.695 72.8078C100.136 73.8771 99.3466 75.1888 99.3359 76.5077L89.198 77.8052ZM103.002 87.6966C100.217 87.1959 97.5346 86.2384 95.063 84.8628C92.7355 83.5226 91.0863 81.9328 90.1154 80.229L100.253 78.9315C100.82 79.6295 101.516 80.2127 102.302 80.6496C103.215 81.1619 104.19 81.5526 105.204 81.8116L103.002 87.6966ZM106.572 78.1937C105.005 77.2919 104.994 75.8233 106.572 74.9179C108.149 74.0126 110.67 74.0161 112.237 74.9179C113.804 75.8198 113.815 77.2883 112.255 78.1937C110.695 79.0991 108.128 79.0991 106.557 78.1937H106.572ZM123.806 84.8628C119.283 87.4898 113.147 88.6091 107.229 88.2312L109.438 82.3641C111.937 82.3641 114.407 81.8295 116.335 80.7601L125.727 83.5725C125.113 84.0471 124.466 84.4783 123.792 84.8628H123.806ZM127.918 81.4231L118.741 78.6856C119.89 76.9746 119.58 75.0142 117.82 73.4351L125.145 69.1827C130.078 72.6901 130.999 77.4558 127.904 81.4231H127.918Z" fill="url(#paint13_linear_1097_3014)"/>
<path style="mix-blend-mode:screen" opacity="0.5" d="M141.3 75.4312V31.3066H77.4521V75.4277C77.3753 76.1778 77.3753 76.9338 77.4521 77.684L79.0727 77.8016C79.1156 80.5855 79.1548 82.5851 79.1548 82.5851C79.6022 83.3169 80.1059 84.0129 80.6613 84.6668L85.4839 83.904V88.8158C85.917 89.0962 86.3633 89.3707 86.8226 89.6392C87.2902 89.9101 87.765 90.1632 88.2504 90.4127L93.5336 88.0352C94.1547 88.3239 94.7901 88.5877 95.4434 88.8372V93.1894C96.6214 93.5174 97.8244 93.8096 99.0452 94.0556L102.351 90.6836C103.784 90.9172 105.228 91.0766 106.677 91.1612L107.53 95.0216C108.83 95.0667 110.129 95.0667 111.429 95.0216L112.25 91.1612C113.694 91.07 115.134 90.9058 116.562 90.6693L119.899 94.0413C121.124 93.7989 122.323 93.5067 123.494 93.1752V88.8194C124.129 88.5734 124.751 88.3132 125.35 88.0352L130.655 90.4091C131.137 90.1632 131.615 89.9101 132.083 89.6428C132.55 89.3754 132.979 89.0974 133.407 88.8158V83.9075L138.183 84.6668C138.737 84.016 139.235 83.3197 139.672 82.5851V77.8052L141.314 77.684C141.39 76.9347 141.385 76.1795 141.3 75.4312Z" fill="url(#paint14_linear_1097_3014)"/>
<path d="M123.303 20.6704L123.296 23.5327L121.547 27.2718L121.558 24.4095L123.303 20.6704Z" fill="url(#paint15_linear_1097_3014)"/>
<path d="M97.0641 24.4131L97.0569 27.2718L95.2578 23.5327L95.2685 20.6704L97.0641 24.4131Z" fill="url(#paint16_linear_1097_3014)"/>
<path d="M133.266 25.0405L133.259 27.9028L129.168 30.9647L129.175 28.106L133.266 25.0405Z" fill="url(#paint17_linear_1097_3014)"/>
<path d="M122.082 28.1592V31.0108C115.85 28.0986 107.361 27.6316 100.418 29.585V26.7334C107.361 24.7801 115.853 25.2506 122.082 28.1592Z" fill="url(#paint18_linear_1097_3014)"/>
<path d="M89.4888 28.1024L89.4781 30.9647L85.3516 27.9028L85.3587 25.0405L89.4888 28.1024Z" fill="url(#paint19_linear_1097_3014)"/>
<path d="M139.595 31.2749L139.585 34.1372L133.77 36.0584L133.78 33.1962L139.595 31.2749Z" fill="url(#paint20_linear_1097_3014)"/>
<path d="M84.9334 33.1962L84.9263 36.0584L79.0898 34.1372L79.097 31.2749L84.9334 33.1962Z" fill="url(#paint21_linear_1097_3014)"/>
<path d="M101.702 33.5486L101.694 36.4109L96.7539 30.9394L96.7646 28.0771L101.702 33.5486Z" fill="url(#paint22_linear_1097_3014)"/>
<path d="M125.145 29.9238L125.138 32.7861L117.812 37.035L117.82 34.1727L125.145 29.9238Z" fill="url(#paint23_linear_1097_3014)"/>
<path d="M89.0664 40.1002V37.2486C89.0664 34.2651 91.0369 31.2817 94.9635 29.004C95.5428 28.6691 96.1385 28.3634 96.7484 28.0879V30.9395C96.1308 31.2211 95.5311 31.5276 94.9635 31.8591C91.0369 34.1297 89.0735 37.1167 89.0664 40.1002Z" fill="url(#paint24_linear_1097_3014)"/>
<path d="M112.204 35.6624C110.637 34.7571 108.099 34.7571 106.539 35.6624C105.764 36.1116 105.379 36.6997 105.375 37.2878V40.1394C105.375 39.5513 105.764 38.9631 106.539 38.5104C108.099 37.6051 110.637 37.6086 112.204 38.5104C112.993 38.9667 113.389 39.5798 113.385 40.1608V37.3092C113.389 36.7139 112.993 36.1151 112.204 35.6624Z" fill="url(#paint25_linear_1097_3014)"/>
<path d="M129.692 37.3593V40.2109C129.692 37.5767 128.182 34.9355 125.145 32.7754V29.9238C128.182 32.0839 129.699 34.7252 129.692 37.3593Z" fill="url(#paint26_linear_1097_3014)"/>
<path d="M141.362 37.3594C141.362 38.3147 141.362 39.2699 141.362 40.211C141.362 40.5682 141.343 40.9252 141.305 41.2803V38.4287C141.343 38.0723 141.362 37.7158 141.362 37.3594Z" fill="url(#paint27_linear_1097_3014)"/>
<path d="M77.391 40.086C77.391 39.1307 77.391 38.179 77.391 37.2344C77.391 37.6368 77.4125 38.039 77.4552 38.4392V41.2907C77.4089 40.8909 77.3875 40.4885 77.391 40.086Z" fill="url(#paint28_linear_1097_3014)"/>
<path d="M141.31 38.4287L141.299 41.291L134.652 41.7757L134.663 38.9135L141.31 38.4287Z" fill="url(#paint29_linear_1097_3014)"/>
<path d="M84.1217 38.9135L84.1145 41.7757L77.457 41.291L77.4642 38.4287L84.1217 38.9135Z" fill="url(#paint30_linear_1097_3014)"/>
<path d="M119.417 37.3379V40.1895C119.405 40.9379 119.169 41.6656 118.738 42.2782V39.4267C119.169 38.814 119.405 38.0863 119.417 37.3379Z" fill="url(#paint31_linear_1097_3014)"/>
<path d="M100.251 39.6904L100.243 42.5527L90.1055 43.8466L90.1126 40.9843L100.251 39.6904Z" fill="url(#paint32_linear_1097_3014)"/>
<path d="M134.66 38.9136V41.7652C134.496 42.6309 134.215 43.4703 133.824 44.2603V41.4087C134.215 40.6189 134.496 39.7794 134.66 38.9136Z" fill="url(#paint33_linear_1097_3014)"/>
<path d="M84.985 41.4087V44.2603C84.5798 43.4738 84.2889 42.6336 84.1211 41.7652V38.9136C84.2911 39.7814 84.5819 40.6213 84.985 41.4087Z" fill="url(#paint34_linear_1097_3014)"/>
<path d="M105.201 42.5705V45.4221C104.187 45.1646 103.211 44.7739 102.299 44.2601C101.512 43.8241 100.816 43.2408 100.25 42.542V39.6904C100.817 40.3896 101.512 40.974 102.299 41.4121C103.212 41.9215 104.188 42.3109 105.201 42.5705Z" fill="url(#paint35_linear_1097_3014)"/>
<path d="M116.319 41.5049V44.3565C114.391 45.4258 111.914 45.9569 109.426 45.9569V43.1053C111.91 43.1089 114.391 42.5707 116.319 41.5049Z" fill="url(#paint36_linear_1097_3014)"/>
<path d="M125.711 44.3173L125.704 47.1795L116.309 44.3672L116.319 41.5049L125.711 44.3173Z" fill="url(#paint37_linear_1097_3014)"/>
<path d="M139.657 43.3262V46.1777C139.222 46.9134 138.725 47.611 138.172 48.263V45.4114C138.725 44.7593 139.222 44.0618 139.657 43.3262Z" fill="url(#paint38_linear_1097_3014)"/>
<path d="M138.178 45.4113L138.171 48.2736L131.699 47.2435L131.706 44.3848L138.178 45.4113Z" fill="url(#paint39_linear_1097_3014)"/>
<path d="M87.1359 44.3882L87.1252 47.2469L80.6641 48.2735L80.6712 45.4112L87.1359 44.3882Z" fill="url(#paint40_linear_1097_3014)"/>
<path d="M80.6701 45.4112V48.2628C80.1133 47.6092 79.6084 46.9132 79.1602 46.1812V43.3296C79.6087 44.0615 80.1135 44.7575 80.6701 45.4112Z" fill="url(#paint41_linear_1097_3014)"/>
<path d="M131.708 44.3848V47.2363C130.967 48.0172 130.153 48.7261 129.277 49.3536V46.5021C130.153 45.8745 130.967 45.1656 131.708 44.3848Z" fill="url(#paint42_linear_1097_3014)"/>
<path d="M89.5888 46.4985V49.3501C88.7058 48.7237 87.8835 48.016 87.1328 47.2363V44.3848C87.8832 45.1647 88.7055 45.8724 89.5888 46.4985Z" fill="url(#paint43_linear_1097_3014)"/>
<path d="M109.424 43.1089L109.417 45.9712L107.207 51.8383L107.214 48.976L109.424 43.1089Z" fill="url(#paint44_linear_1097_3014)"/>
<path d="M125.351 48.7764V51.6279C124.165 52.1797 122.945 52.6559 121.699 53.0537V50.2022C122.946 49.8065 124.166 49.3303 125.351 48.7764Z" fill="url(#paint45_linear_1097_3014)"/>
<path d="M97.2058 50.1914V53.043C95.9567 52.6468 94.7346 52.1705 93.5469 51.6172V48.7656C94.735 49.3179 95.9571 49.7941 97.2058 50.1914Z" fill="url(#paint46_linear_1097_3014)"/>
<path d="M130.655 51.1537L130.648 54.016L125.344 51.6385L125.351 48.7798L130.655 51.1537Z" fill="url(#paint47_linear_1097_3014)"/>
<path d="M133.405 49.5605V52.4121C132.976 52.6902 132.541 52.9682 132.08 53.2355C131.62 53.5029 131.141 53.7559 130.652 54.0054V51.1539C131.134 50.9044 131.613 50.6548 132.08 50.3839C132.548 50.113 132.976 49.8386 133.405 49.5605Z" fill="url(#paint48_linear_1097_3014)"/>
<path d="M93.5442 48.7798L93.5371 51.6421L88.2539 54.016L88.261 51.1537L93.5442 48.7798Z" fill="url(#paint49_linear_1097_3014)"/>
<path d="M88.2548 51.1539V54.0054C87.7693 53.7559 87.2945 53.5029 86.8269 53.2355C86.3593 52.9682 85.9202 52.6902 85.4883 52.4121V49.5605C85.9202 49.8386 86.3664 50.1166 86.8269 50.3839C87.2874 50.6513 87.7765 50.9044 88.2548 51.1539Z" fill="url(#paint50_linear_1097_3014)"/>
<path d="M116.563 51.4282V54.2798C115.152 54.5115 113.707 54.6755 112.254 54.7717V51.9201C113.703 51.8239 115.149 51.6599 116.563 51.4282Z" fill="url(#paint51_linear_1097_3014)"/>
<path d="M106.675 51.9167V54.7683C105.229 54.6803 103.788 54.5161 102.359 54.2764V51.4248C103.788 51.6646 105.229 51.8287 106.675 51.9167Z" fill="url(#paint52_linear_1097_3014)"/>
<path d="M123.493 53.9341V56.7857C122.323 57.1183 121.126 57.4059 119.902 57.6483V54.7967C121.123 54.5638 122.32 54.2763 123.493 53.9341Z" fill="url(#paint53_linear_1097_3014)"/>
<path d="M119.899 54.7966L119.892 57.6589L116.551 54.2905L116.561 51.4282L119.899 54.7966Z" fill="url(#paint54_linear_1097_3014)"/>
<path d="M102.36 51.4282L102.352 54.2869L99.0469 57.6589L99.054 54.8002L102.36 51.4282Z" fill="url(#paint55_linear_1097_3014)"/>
<path d="M99.055 54.804V57.6556C97.8317 57.418 96.6311 57.1304 95.4531 56.793V53.9414C96.6311 54.2646 97.8317 54.5521 99.055 54.804Z" fill="url(#paint56_linear_1097_3014)"/>
<path d="M112.251 51.9199L112.244 54.7822L111.43 58.6247L111.437 55.7624L112.251 51.9199Z" fill="url(#paint57_linear_1097_3014)"/>
<path d="M107.535 55.7661L107.528 58.6284L106.668 54.7788L106.679 51.9165L107.535 55.7661Z" fill="url(#paint58_linear_1097_3014)"/>
<path d="M141.309 38.4284C141.39 37.6784 141.39 36.922 141.309 36.172L134.659 35.6908C134.488 34.8233 134.197 33.9836 133.795 33.1957L139.592 31.278C139.149 30.5435 138.645 29.8472 138.086 29.1964L131.628 30.2087C130.877 29.43 130.055 28.7224 129.172 28.095L133.263 25.0331C132.831 24.7515 132.392 24.477 131.925 24.2097C131.457 23.9423 130.982 23.6857 130.497 23.4398L125.217 25.8173C124.029 25.2649 122.807 24.7887 121.558 24.3915L123.304 20.6523C122.129 20.3208 120.923 20.0286 119.702 19.7897L116.4 23.1582C114.971 22.9202 113.53 22.756 112.084 22.6663L111.224 18.8166C109.928 18.7703 108.625 18.7739 107.322 18.8166L106.508 22.6663C105.064 22.758 103.624 22.9221 102.196 23.1582L98.8622 19.7862C97.6377 20.0286 96.4419 20.3208 95.2639 20.6523L97.0487 24.3915C95.8031 24.7908 94.5835 25.267 93.3969 25.8173L88.1031 23.4362C87.6212 23.6821 87.1428 23.9388 86.6752 24.2061C86.2076 24.4734 85.7721 24.7479 85.3473 25.0295L89.4738 28.0914C88.6008 28.7219 87.7871 29.4306 87.0429 30.2087L80.5674 29.1821C80.0167 29.8338 79.5212 30.5301 79.086 31.2638L84.9225 33.185C84.5303 33.9743 84.2492 34.814 84.0872 35.6801L77.4404 36.1613C77.3636 36.9115 77.3636 37.6675 77.4404 38.4177L84.0979 38.9024C84.2679 39.7703 84.5587 40.6101 84.9617 41.3976L79.1431 43.3188C79.5905 44.0506 80.0941 44.7466 80.6495 45.4005L87.1143 44.3739C87.8636 45.1537 88.6846 45.8614 89.5666 46.4876L85.4722 49.5495C85.9041 49.8275 86.3503 50.1056 86.8108 50.3729C87.2713 50.6402 87.7532 50.8933 88.2387 51.1428L93.5219 48.7689C94.7112 49.3213 95.9345 49.7975 97.1844 50.1947L95.4317 53.9374C96.6097 54.2653 97.8103 54.5528 99.0335 54.8L102.339 51.428C103.768 51.6677 105.209 51.8319 106.655 51.9199L107.529 55.7659C108.829 55.8123 110.128 55.8087 111.428 55.7659L112.241 51.9234C113.694 51.8272 115.14 51.6632 116.554 51.4315L119.891 54.8C121.114 54.5623 122.313 54.2748 123.486 53.9374L121.701 50.1947C122.948 49.799 124.168 49.3228 125.353 48.7689L130.657 51.1464C131.139 50.8969 131.618 50.6474 132.085 50.3765C132.553 50.1056 132.981 49.8311 133.41 49.5531L129.283 46.4912C130.158 45.8648 130.972 45.157 131.714 44.3775L138.186 45.404C138.734 44.7537 139.226 44.0585 139.657 43.3259L133.813 41.4082C134.205 40.6186 134.488 39.7791 134.652 38.9131L141.309 38.4284ZM122.083 28.1591L114.762 32.4115C111.675 31.3412 108.34 31.2072 105.177 32.0266L100.419 26.744C107.362 24.78 115.854 25.2505 122.083 28.1591ZM89.1954 38.546C88.5493 35.1419 90.4734 31.606 94.9712 28.9932C95.5505 28.6584 96.1462 28.3526 96.756 28.0771L101.693 33.5486C100.133 34.6179 99.3441 35.9297 99.3334 37.2485L89.1954 38.546ZM102.999 48.4374C100.215 47.9379 97.5322 46.9816 95.0604 45.6072C92.733 44.2634 91.0838 42.6736 90.1128 40.9734L100.251 39.6759C100.818 40.3751 101.513 40.9594 102.3 41.3976C103.213 41.9082 104.188 42.2988 105.202 42.5596L102.999 48.4374ZM106.569 38.9381C105.002 38.0363 104.991 36.5677 106.569 35.6623C108.147 34.7569 110.667 34.7569 112.234 35.6623C113.801 36.5677 113.812 38.0327 112.252 38.9381C110.692 39.8434 108.126 39.8328 106.555 38.9381H106.569ZM123.804 45.6072C119.281 48.2306 113.145 49.3535 107.226 48.9756L109.436 43.1085C111.934 43.1085 114.405 42.5703 116.332 41.5045L125.724 44.3169C125.109 44.7902 124.463 45.2214 123.789 45.6072H123.804ZM127.916 42.1675L118.753 39.4228C119.902 37.7119 119.591 35.755 117.832 34.1724L125.157 29.9235C130.076 33.4167 130.997 38.2002 127.902 42.1675H127.916Z" fill="#4AD4FF"/>
<path d="M111.437 55.7627V58.6143C110.138 58.6606 108.835 58.6642 107.539 58.6143V55.7627C108.838 55.8126 110.138 55.809 111.437 55.7627Z" fill="url(#paint59_linear_1097_3014)"/>
<path style="mix-blend-mode:screen" opacity="0.5" d="M107.105 31.3066V93.0789L107.537 95.0216C108.837 95.0667 110.136 95.0667 111.436 95.0216V31.3066H107.105Z" fill="url(#paint60_linear_1097_3014)"/>
<path style="mix-blend-mode:screen" opacity="0.5" d="M95.4453 88.8337V93.1859C96.6233 93.5138 97.8215 93.8014 99.04 94.0485V32.2441H95.4453V88.8337Z" fill="url(#paint61_linear_1097_3014)"/>
<path style="mix-blend-mode:screen" opacity="0.5" d="M119.891 94.0449C121.115 93.8026 122.314 93.5103 123.485 93.1788V88.8194V32.2441H119.891V94.0449Z" fill="url(#paint62_linear_1097_3014)"/>
<path style="mix-blend-mode:screen" opacity="0.5" d="M138.18 32.8218V84.667C138.734 84.0163 139.232 83.3199 139.668 82.5854V32.8218H138.18Z" fill="url(#paint63_linear_1097_3014)"/>
<path style="mix-blend-mode:screen" opacity="0.5" d="M79.1562 32.2441V82.1717C79.1562 82.4355 79.1562 82.5852 79.1562 82.5852C79.6036 83.317 80.1073 84.013 80.6627 84.6668V32.2441H79.1562Z" fill="url(#paint64_linear_1097_3014)"/>
<path d="M184.385 160.034L183.493 160.547L142.188 136.733L143.076 136.22L184.385 160.034Z" fill="#7CFFFF"/>
<path d="M187.096 158.469L186.207 158.983L144.898 135.172L145.791 134.659L187.096 158.469Z" fill="#7CFFFF"/>
<path d="M189.807 156.908L188.918 157.418L147.613 133.607L148.499 133.094L189.807 156.908Z" fill="#7CFFFF"/>
<path d="M192.522 155.344L191.633 155.857L150.328 132.043L151.221 131.529L192.522 155.344Z" fill="#7CFFFF"/>
<path d="M195.233 153.779L194.348 154.292L153.039 130.478L153.928 129.964L195.233 153.779Z" fill="#7CFFFF"/>
<path d="M133.741 122.244L143.208 127.701L142.322 128.214L132.855 122.757L133.741 122.244Z" fill="#7CFFFF"/>
<path d="M136.452 120.679L145.922 126.136L145.033 126.649L135.566 121.192L136.452 120.679Z" fill="#7CFFFF"/>
<path d="M139.167 119.114L148.637 124.571L147.748 125.084L138.281 119.627L139.167 119.114Z" fill="#7CFFFF"/>
<path d="M141.881 117.549L151.348 123.007L150.455 123.523L140.988 118.063L141.881 117.549Z" fill="#7CFFFF"/>
<path d="M144.592 115.984L154.062 121.445L153.17 121.958L143.703 116.501L144.592 115.984Z" fill="#7CFFFF"/>
<path d="M143.076 136.22L143.205 127.701L142.32 128.214L142.188 136.733L143.076 136.22Z" fill="#7CFFFF"/>
<path d="M145.791 134.658L145.923 126.136L145.034 126.649L144.898 135.172L145.791 134.658Z" fill="#7CFFFF"/>
<path d="M148.499 133.094L148.634 124.571L147.745 125.085L147.613 133.607L148.499 133.094Z" fill="#7CFFFF"/>
<path d="M151.221 131.529L151.349 123.006L150.457 123.523L150.328 132.042L151.221 131.529Z" fill="#7CFFFF"/>
<path d="M153.928 129.964L154.06 121.445L153.168 121.959L153.039 130.478L153.928 129.964Z" fill="#7CFFFF"/>
<path d="M214.64 139.606L182.806 121.253C181.149 120.297 178.436 120.297 176.78 121.253L144.945 139.606C144.117 140.084 143.703 140.711 143.703 141.342V151.18C143.703 151.814 144.114 152.449 144.945 152.93L176.784 171.28C178.44 172.239 181.153 172.239 182.809 171.28L214.644 152.93C215.529 152.42 215.94 151.74 215.882 151.066V141.342C215.882 140.707 215.468 140.084 214.64 139.606Z" fill="url(#paint65_linear_1097_3014)"/>
<path d="M214.64 139.606C216.3 140.561 216.3 142.123 214.64 143.078L182.806 161.431C181.149 162.387 178.436 162.387 176.78 161.431L144.945 143.078C143.289 142.123 143.289 140.561 144.945 139.606L176.784 121.253C178.44 120.297 181.153 120.297 182.809 121.253L214.64 139.606Z" fill="url(#paint66_linear_1097_3014)"/>
<path d="M33.332 160.034L34.2245 160.547L75.5259 136.733L74.637 136.22L33.332 160.034Z" fill="#7CFFFF"/>
<path d="M30.6211 158.469L31.5099 158.983L72.815 135.172L71.9225 134.659L30.6211 158.469Z" fill="#7CFFFF"/>
<path d="M27.9062 156.908L28.7915 157.418L70.1001 133.607L69.2113 133.094L27.9062 156.908Z" fill="#7CFFFF"/>
<path d="M25.1914 155.344L26.0803 155.857L67.3888 132.043L66.4964 131.529L25.1914 155.344Z" fill="#7CFFFF"/>
<path d="M22.4766 153.779L23.3654 154.292L64.6704 130.478L63.7851 129.964L22.4766 153.779Z" fill="#7CFFFF"/>
<path d="M83.9747 122.244L74.5078 127.701L75.3967 128.214L84.8635 122.757L83.9747 122.244Z" fill="#7CFFFF"/>
<path d="M81.2598 120.679L71.793 126.136L72.6783 126.649L82.1487 121.192L81.2598 120.679Z" fill="#7CFFFF"/>
<path d="M78.5489 119.114L69.082 124.571L69.9673 125.084L79.4377 119.627L78.5489 119.114Z" fill="#7CFFFF"/>
<path d="M75.8337 117.549L66.3633 123.007L67.2557 123.523L76.7261 118.063L75.8337 117.549Z" fill="#7CFFFF"/>
<path d="M73.1263 115.984L63.6523 121.445L64.5448 121.958L74.0116 116.501L73.1263 115.984Z" fill="#7CFFFF"/>
<path d="M74.6363 136.22L74.5078 127.701L75.3967 128.214L75.5252 136.733L74.6363 136.22Z" fill="#7CFFFF"/>
<path d="M71.9215 134.658L71.793 126.136L72.6783 126.649L72.8139 135.172L71.9215 134.658Z" fill="#7CFFFF"/>
<path d="M69.2141 133.094L69.082 124.571L69.9673 125.085L70.103 133.607L69.2141 133.094Z" fill="#7CFFFF"/>
<path d="M66.4954 131.529L66.3633 123.006L67.2557 123.523L67.3878 132.042L66.4954 131.529Z" fill="#7CFFFF"/>
<path d="M63.788 129.964L63.6523 121.445L64.5448 121.959L64.6733 130.478L63.788 129.964Z" fill="#7CFFFF"/>
<path d="M70.9371 139.606L39.1025 121.253C37.4462 120.297 34.7332 120.297 33.0768 121.253L1.24226 139.606C0.414086 140.084 0 140.711 0 141.342V151.18C0 151.814 0.406947 152.449 1.24226 152.93L33.0768 171.28C34.7332 172.239 37.4462 172.239 39.1025 171.28L70.9371 152.93C71.8224 152.42 72.2329 151.74 72.1758 151.066V141.342C72.19 140.707 71.7652 140.084 70.9371 139.606Z" fill="url(#paint67_linear_1097_3014)"/>
<path d="M70.9371 139.606C72.597 140.561 72.597 142.123 70.9371 143.078L39.1025 161.431C37.4462 162.387 34.7332 162.387 33.0768 161.431L1.24226 143.078C-0.414085 142.123 -0.414085 140.561 1.24226 139.606L33.0768 121.253C34.7332 120.297 37.4462 120.297 39.1025 121.253L70.9371 139.606Z" fill="url(#paint68_linear_1097_3014)"/>
<path opacity="0.3" d="M41.2229 140.444L30.2389 122.885L1.24226 139.603C-0.414085 140.558 -0.414085 142.119 1.24226 143.074L14.5322 150.738H45.1853C45.1853 150.738 41.9832 141.064 41.2229 140.444Z" fill="#002586"/>
<path d="M20.9727 73.7132C20.9727 72.2304 22.0257 71.6245 23.3108 72.3659L43.9365 84.257C44.6173 84.702 45.1837 85.3007 45.5899 86.0048C45.9961 86.7088 46.2306 87.4984 46.2747 88.3098V149.077C46.2747 150.56 45.2252 151.166 43.9401 150.424L23.3108 138.533C22.6308 138.09 22.0649 137.493 21.6587 136.791C21.2525 136.088 21.0175 135.301 20.9727 134.491V73.7132Z" fill="#D4DBDF"/>
<path d="M46.2695 149.077V88.3101C46.2238 87.5006 45.9884 86.7131 45.5823 86.0111C45.1762 85.309 44.6107 84.7119 43.9313 84.268L23.3056 72.3769C22.6845 72.0204 22.1204 71.9777 21.6992 72.1951L24.4729 70.6053C24.7307 70.5114 25.0074 70.4809 25.2795 70.5162C25.5516 70.5516 25.8112 70.6518 26.0364 70.8085L46.6621 82.6996C47.3416 83.1444 47.9071 83.7421 48.3132 84.4447C48.7192 85.1473 48.9546 85.9353 49.0003 86.7453V147.519C49.0003 148.272 48.729 148.799 48.2863 149.038L45.7019 150.51C45.9008 150.331 46.0556 150.109 46.154 149.86C46.2525 149.612 46.292 149.344 46.2695 149.077Z" fill="#95C4DF"/>
<path d="M20.9727 73.7135V132.474L46.2711 147.06V88.31C46.2697 88.1849 46.2613 88.0599 46.2461 87.9357L20.9905 73.3784C20.9834 73.4782 20.9727 73.5923 20.9727 73.7135Z" fill="url(#paint69_linear_1097_3014)"/>
<path d="M47.6276 146.233V87.1123L46.2461 87.9036C46.2642 88.0347 46.2738 88.1669 46.2746 88.2993V147.01L47.6276 146.233Z" fill="url(#paint70_linear_1097_3014)"/>
<path d="M46.0195 87.793V146.913L46.2694 147.059V88.3098C46.268 88.1847 46.2596 88.0598 46.2444 87.9356L46.0195 87.793Z" fill="url(#paint71_linear_1097_3014)"/>
<path d="M47.6276 146.233V87.1123L46.2461 87.9036C46.2642 88.0347 46.2738 88.1669 46.2746 88.2993V147.01L47.6276 146.233Z" fill="url(#paint72_linear_1097_3014)"/>
<path d="M46.0195 87.793V146.913L46.2694 147.059V88.3098C46.268 88.1847 46.2596 88.0598 46.2444 87.9356L46.0195 87.793Z" fill="url(#paint73_linear_1097_3014)"/>
<path opacity="0.3" d="M184.921 140.444L173.926 122.885L144.93 139.603C143.273 140.558 143.273 142.119 144.93 143.074L158.22 150.742H171.428C171.428 150.742 185.685 141.064 184.921 140.444Z" fill="#002586"/>
<path d="M195.703 73.7132C195.703 72.2304 194.632 71.6245 193.365 72.3659L172.739 84.257C172.055 84.6998 171.486 85.2977 171.077 86.002C170.668 86.7062 170.432 87.497 170.387 88.3098V149.077C170.387 150.56 171.44 151.166 172.725 150.424L193.351 138.533C194.033 138.091 194.601 137.494 195.01 136.792C195.418 136.09 195.656 135.302 195.703 134.491V73.7132Z" fill="#D4DBDF"/>
<path d="M170.384 149.077V88.3101C170.429 87.5004 170.664 86.7126 171.07 86.0104C171.476 85.3082 172.042 84.7113 172.722 84.2679L193.348 72.3769C193.969 72.0204 194.533 71.9776 194.954 72.1951L192.177 70.6053C191.92 70.5114 191.644 70.4809 191.372 70.5162C191.1 70.5516 190.841 70.6519 190.617 70.8085L169.998 82.6853C169.319 83.1301 168.753 83.7278 168.347 84.4304C167.941 85.1331 167.706 85.921 167.66 86.731V147.505C167.66 148.257 167.931 148.785 168.374 149.024L170.955 150.496C170.757 150.319 170.603 150.099 170.504 149.853C170.405 149.607 170.364 149.342 170.384 149.077Z" fill="#95C4DF"/>
<path d="M195.7 73.7135V132.474L170.398 147.06V88.31C170.398 88.1848 170.406 88.0598 170.423 87.9357L195.675 73.3784C195.691 73.4895 195.699 73.6014 195.7 73.7135Z" fill="url(#paint74_linear_1097_3014)"/>
<path d="M169.031 146.233V87.1123L170.409 87.9036C170.394 88.035 170.386 88.167 170.384 88.2993V147.01L169.031 146.233Z" fill="url(#paint75_linear_1097_3014)"/>
<path d="M170.637 87.793V146.913L170.387 147.059V88.3098C170.386 88.1846 170.395 88.0596 170.412 87.9356L170.637 87.793Z" fill="url(#paint76_linear_1097_3014)"/>
<path d="M169.031 146.233V87.1123L170.409 87.9036C170.394 88.035 170.386 88.167 170.384 88.2993V147.01L169.031 146.233Z" fill="url(#paint77_linear_1097_3014)"/>
<path d="M170.637 87.793V146.913L170.387 147.059V88.3098C170.386 88.1846 170.395 88.0596 170.412 87.9356L170.637 87.793Z" fill="url(#paint78_linear_1097_3014)"/>
<path d="M194.737 61.3911C194.737 62.4783 193.966 62.9238 193.024 62.3785L148.295 36.5931C147.797 36.2681 147.383 35.8307 147.085 35.3161C146.787 34.8015 146.615 34.2243 146.582 33.631V1.98205C146.582 0.89489 147.353 0.449331 148.295 0.994695L193.024 26.7801C193.522 27.1051 193.937 27.5425 194.234 28.0571C194.532 28.5716 194.704 29.1488 194.737 29.7422V61.3911Z" fill="url(#paint79_linear_1097_3014)"/>
<path d="M194.553 26.0171L149.821 0.231736C149.647 0.104984 149.442 0.0277543 149.228 0.00829307C149.013 -0.0111681 148.798 0.0278691 148.604 0.121237L147.176 0.834131C147.362 0.770842 147.561 0.752382 147.755 0.780256C147.95 0.808129 148.136 0.881549 148.297 0.994533L193.025 26.7799C193.523 27.1049 193.938 27.5423 194.236 28.0569C194.533 28.5714 194.705 29.1487 194.738 29.742V61.3909C194.757 61.593 194.725 61.7965 194.645 61.9831C194.565 62.1697 194.44 62.3337 194.282 62.4603L195.581 61.8044C195.995 61.6832 196.263 61.2662 196.263 60.621V28.9792C196.23 28.3862 196.058 27.8092 195.761 27.2946C195.464 26.7801 195.05 26.3425 194.553 26.0171Z" fill="url(#paint80_linear_1097_3014)"/>
<path d="M149.154 35.1139C148.905 34.9505 148.698 34.7313 148.549 34.4738C148.4 34.2164 148.314 33.9278 148.297 33.6311V3.95683C148.297 3.41146 148.682 3.19047 149.154 3.46137L192.168 28.2594C192.418 28.4224 192.625 28.6414 192.774 28.899C192.922 29.1565 193.009 29.4453 193.025 29.7422V59.4164C193.025 59.9618 192.64 60.1828 192.168 59.9119L149.154 35.1139Z" fill="url(#paint81_linear_1097_3014)"/>
<path d="M192.489 59.6976L149.475 34.8996C149.225 34.7368 149.018 34.5178 148.869 34.2602C148.72 34.0026 148.634 33.7137 148.618 33.4167V3.74253C148.613 3.60663 148.647 3.47217 148.714 3.354C148.464 3.38252 148.293 3.59639 148.293 3.9564V33.6306C148.31 33.9274 148.397 34.216 148.545 34.4734C148.694 34.7309 148.901 34.95 149.15 35.1134L192.165 59.9115C192.497 60.1004 192.782 60.0433 192.925 59.8081C192.772 59.819 192.619 59.7803 192.489 59.6976Z" fill="#172DD9"/>
<path d="M21.8555 61.3911C21.8555 62.4783 22.6265 62.9238 23.5689 62.3785L68.2973 36.5931C68.7955 36.2681 69.2102 35.8307 69.5078 35.3161C69.8055 34.8015 69.9777 34.2243 70.0107 33.631V1.98205C70.0107 0.89489 69.2397 0.449331 68.2973 0.994695L23.5689 26.7801C23.0707 27.1051 22.656 27.5425 22.3584 28.0571C22.0607 28.5716 21.8885 29.1488 21.8555 29.7422V61.3911Z" fill="url(#paint82_linear_1097_3014)"/>
<path d="M22.0575 26.0171L66.7895 0.231736C66.9633 0.104984 67.1684 0.0277543 67.3828 0.00829307C67.5972 -0.0111681 67.8128 0.0278691 68.0067 0.121237L69.4346 0.834131C69.2483 0.770842 69.0497 0.752382 68.8549 0.780256C68.6601 0.808129 68.4747 0.881549 68.3137 0.994533L23.5854 26.7799C23.0872 27.1049 22.6725 27.5423 22.3748 28.0569C22.0772 28.5714 21.9049 29.1487 21.8719 29.742V61.3909C21.8535 61.593 21.8856 61.7965 21.9654 61.9831C22.0451 62.1697 22.17 62.3337 22.3288 62.4603L21.033 61.8044C20.6154 61.6832 20.3477 61.2662 20.3477 60.621V28.9792C20.38 28.3861 20.5516 27.809 20.8486 27.2944C21.1457 26.7799 21.5598 26.3423 22.0575 26.0171Z" fill="url(#paint83_linear_1097_3014)"/>
<path d="M67.4576 35.1139C67.7062 34.9505 67.9132 34.7313 68.0619 34.4738C68.2107 34.2164 68.2971 33.9278 68.3143 33.6311V3.95683C68.3143 3.41146 67.9288 3.19047 67.4576 3.46137L24.4427 28.2594C24.1936 28.4224 23.9864 28.6414 23.8376 28.899C23.6888 29.1565 23.6026 29.4453 23.5859 29.7422V59.4164C23.5859 59.9618 23.9715 60.1828 24.4427 59.9119L67.4576 35.1139Z" fill="url(#paint84_linear_1097_3014)"/>
<path d="M24.1152 59.6976L67.1301 34.8996C67.3793 34.7368 67.5867 34.5178 67.7356 34.2602C67.8844 34.0026 67.9704 33.7137 67.9868 33.4167V3.74253C67.9911 3.60663 67.9578 3.47217 67.8904 3.354C68.1403 3.38252 68.3117 3.59639 68.3117 3.9564V33.6306C68.2945 33.9274 68.208 34.216 68.0593 34.4734C67.9105 34.7309 67.7036 34.95 67.4549 35.1134L24.44 59.9115C24.1081 60.1004 23.8225 60.0433 23.6797 59.8081C23.833 59.819 23.9857 59.7803 24.1152 59.6976Z" fill="#172DD9"/>
<path style="mix-blend-mode:screen" opacity="0.3" d="M24.9293 44.9587C25.4868 43.8167 26.4754 42.9424 27.678 42.5277C30.0911 41.6473 30.8372 47.4681 32.6756 46.4059C34.514 45.3436 34.9602 41.2195 36.0311 40.6029C37.102 39.9862 37.3626 40.5566 39.3188 39.4302C41.275 38.3038 46.6046 28.7368 49.6067 26.9973C52.6088 25.2578 54.6043 31.1499 55.6752 30.5333C56.7461 29.9166 57.3994 27.6389 58.4167 27.0508C59.4341 26.4626 59.9303 27.7637 61.1333 27.0508C62.3362 26.3379 64.396 19.8398 65.2027 19.3729C66.0095 18.906 66.3343 19.3551 66.3343 19.3551V33.4169L24.9258 57.2989L24.9293 44.9587Z" fill="url(#paint85_linear_1097_3014)"/>
<path style="mix-blend-mode:screen" opacity="0.3" d="M66.3525 23.1014C64.2357 24.3204 62.4258 17.662 61.1157 18.407C59.8057 19.1519 58.5027 26.1027 53.2445 29.136C50.2103 30.8862 48.1292 28.2271 45.0664 29.9915C39.7118 33.089 40.2865 40.1681 37.0845 42.018C35.7066 42.8093 34.9427 40.9808 32.3332 42.485C29.0991 44.3492 27.6248 48.598 24.9297 47.0439V57.2775L66.3382 33.3956L66.3525 23.1014Z" fill="url(#paint86_linear_1097_3014)"/>
<path style="mix-blend-mode:screen" opacity="0.3" d="M24.9297 40.9021C28.5351 38.824 31.8906 41.9144 34.4572 40.4352C37.0238 38.9559 36.3277 36.7566 39.0086 35.2132C41.6894 33.6698 45.0771 37.801 48.5147 35.8227C51.9523 33.8445 53.6051 26.1274 55.0508 25.2969C56.4965 24.4663 57.828 32.6112 59.3916 31.7129C60.9551 30.8147 60.1805 28.8613 62.8328 27.3393C65.4851 25.8173 66.3525 27.9524 66.3525 27.9524V33.4167L24.944 57.2987L24.9297 40.9021Z" fill="url(#paint87_linear_1097_3014)"/>
<g style="mix-blend-mode:screen">
<path d="M32.2332 46.5771C31.5514 46.5771 31.0123 45.6682 30.4483 44.7129C29.6951 43.4368 28.9133 42.1215 27.6889 42.5742C26.5003 42.9867 25.5219 43.8497 24.9653 44.9767L24.8867 44.9446C25.4534 43.7956 26.4495 42.9148 27.6604 42.4922C28.9526 42.0217 29.7843 43.4297 30.5161 44.6737C31.1801 45.7965 31.8048 46.8587 32.658 46.3739C33.6896 45.7787 34.275 44.2103 34.7998 42.8309C35.1996 41.7615 35.5423 40.8454 36.0206 40.571C36.368 40.3729 36.7539 40.2513 37.1522 40.2145C37.9161 40.106 38.6471 39.8323 39.294 39.4125C40.1615 38.9099 41.7428 36.675 43.4135 34.3046C45.5232 31.3212 47.9113 27.9421 49.5819 26.9796C51.4917 25.8782 53.0124 27.8137 54.1226 29.2288C54.7508 30.0344 55.297 30.7259 55.6647 30.5156C56.1966 30.2091 56.6321 29.4676 57.0569 28.7512C57.4816 28.0347 57.8957 27.3254 58.4062 27.0331C58.6021 26.9257 58.8227 26.8712 59.0462 26.8749C59.2697 26.8787 59.4884 26.9406 59.6806 27.0545C59.8976 27.1796 60.1439 27.2455 60.3945 27.2455C60.6452 27.2455 60.8914 27.1796 61.1085 27.0545C61.7546 26.6981 62.6791 24.5273 63.4966 22.6274C64.2105 20.9985 64.8031 19.5941 65.1779 19.3766C66.0132 18.899 66.3524 19.3517 66.3631 19.3766L66.2952 19.4265C66.2952 19.4265 65.9847 19.0166 65.2243 19.4586C64.8674 19.6618 64.2427 21.1197 63.5787 22.6666C62.7577 24.5808 61.826 26.7444 61.1549 27.1329C60.9255 27.2677 60.6642 27.3388 60.3981 27.3388C60.132 27.3388 59.8707 27.2677 59.6413 27.1329C59.4598 27.0256 59.2536 26.9672 59.0427 26.9634C58.8318 26.9597 58.6235 27.0107 58.4383 27.1115C57.9457 27.3931 57.5245 28.106 57.1175 28.7975C56.7106 29.489 56.2465 30.2732 55.6897 30.5798C55.2577 30.8293 54.7187 30.1449 54.0369 29.2752C52.9481 27.8815 51.4524 25.978 49.6069 27.0438C47.9541 27.9955 45.5696 31.3711 43.467 34.3474C41.7143 36.8247 40.2007 38.9812 39.319 39.4767C38.6583 39.9029 37.913 40.1813 37.1344 40.2929C36.7453 40.3312 36.3691 40.4528 36.0313 40.6494C35.5815 40.9096 35.2388 41.815 34.8462 42.8665C34.325 44.2602 33.7324 45.8428 32.6758 46.4524C32.5409 46.5299 32.3888 46.5728 32.2332 46.5771Z" fill="#A9D0E5"/>
</g>
<g style="mix-blend-mode:screen">
<path d="M26.0632 47.4219C25.6556 47.4131 25.2576 47.2963 24.9102 47.0833L24.953 47.0084C26.6093 47.9637 27.7731 46.7126 29.2366 45.13C30.1005 44.2032 31.0822 43.1517 32.2994 42.4495C33.8308 41.5691 34.7482 41.8221 35.4872 42.0289C36.0226 42.1786 36.4867 42.3069 37.0507 41.979C38.4322 41.1841 39.0961 39.4161 39.8672 37.3666C40.8631 34.7146 41.9912 31.7097 45.0326 29.956C46.5818 29.0649 47.8883 29.293 49.1698 29.5176C50.4514 29.7421 51.7115 29.9631 53.2143 29.097C56.7162 27.0795 58.4689 23.3047 59.6398 20.806C60.2288 19.5406 60.6536 18.6246 61.0926 18.3715C61.6995 18.015 62.367 19.12 63.1416 20.389C64.0948 21.9538 65.1799 23.7289 66.3294 23.0659L66.3722 23.1407C65.1478 23.8536 64.0448 22.0322 63.0703 20.4317C62.3563 19.2519 61.6674 18.1362 61.1355 18.4428C60.7214 18.6852 60.2752 19.6369 59.7076 20.8417C58.5439 23.3368 56.784 27.1401 53.2607 29.1718C51.7293 30.0523 50.4228 29.8241 49.1591 29.5996C47.8955 29.375 46.5997 29.1504 45.079 30.0309C42.0626 31.7668 40.9381 34.7574 39.9493 37.3986C39.1747 39.4589 38.5036 41.2411 37.0935 42.0538C36.4974 42.4103 36.0226 42.2641 35.4658 42.1109C34.7018 41.9006 33.8415 41.6582 32.3423 42.5243C31.1321 43.2194 30.1576 44.2638 29.2973 45.187C28.2121 46.3668 27.2305 47.4219 26.0632 47.4219Z" fill="#A9D0E5"/>
</g>
<g style="mix-blend-mode:screen">
<path d="M24.953 40.9418L24.9102 40.8669C26.8806 39.7298 28.8047 40.1326 30.5039 40.4891C31.9318 40.7885 33.2775 41.0701 34.4305 40.4C35.6871 39.6871 36.144 38.7924 36.6295 37.8621C37.115 36.9317 37.6147 35.9622 38.9819 35.1744C40.2563 34.4402 41.6806 34.9713 43.1906 35.5309C44.9076 36.1689 46.6818 36.8284 48.488 35.7875C50.5585 34.5934 51.9685 31.3213 53.1037 28.6907C53.8533 26.9619 54.4423 25.5932 55.0242 25.2581C55.0822 25.2234 55.1471 25.202 55.2143 25.1952C55.2816 25.1884 55.3495 25.1965 55.4132 25.2189C56.0165 25.4328 56.5805 26.8764 57.1731 28.4269C57.7657 29.9775 58.3761 31.5102 59.0008 31.7312C59.0595 31.7513 59.122 31.7582 59.1837 31.7515C59.2454 31.7447 59.3048 31.7244 59.3578 31.692C60.0217 31.307 60.2538 30.7331 60.5251 30.0666C60.9004 28.8923 61.7149 27.9079 62.799 27.3184C63.7199 26.7837 64.5303 26.634 65.2049 26.8657C65.4629 26.9605 65.6995 27.1053 65.9011 27.2919C66.1027 27.4785 66.2652 27.7032 66.3794 27.9528L66.3008 27.9849C66.0765 27.5055 65.6727 27.1331 65.1764 26.9477C64.5231 26.7231 63.7485 26.8728 62.8382 27.3896C61.7735 27.9737 60.9736 28.9433 60.6036 30.0986C60.3287 30.7795 60.0896 31.3676 59.397 31.7668C59.3323 31.806 59.2595 31.8301 59.1841 31.8375C59.1088 31.845 59.0327 31.8354 58.9615 31.8096C58.2976 31.5779 57.6836 29.9917 57.0839 28.4554C56.5234 27.0296 55.9416 25.5183 55.374 25.3187C55.3227 25.2996 55.2676 25.2926 55.2132 25.2982C55.1587 25.3037 55.1062 25.3217 55.0599 25.3508C54.503 25.6716 53.889 27.0938 53.175 28.7441C52.0363 31.3854 50.6156 34.6719 48.5344 35.8731C46.6925 36.9424 44.9005 36.2687 43.1799 35.6236C41.6877 35.0711 40.2813 34.5542 39.0426 35.2671C37.6968 36.0406 37.2006 36.9959 36.7223 37.9191C36.244 38.8423 35.7692 39.7548 34.4912 40.4926C33.3025 41.177 31.9389 40.8919 30.4967 40.5889C28.8011 40.2182 26.8949 39.8332 24.953 40.9418Z" fill="#A9D0E5"/>
</g>
<path d="M46.3125 19.0129C46.3298 18.6974 46.4212 18.3904 46.5794 18.1167C46.7375 17.843 46.9579 17.6103 47.2228 17.4374C47.3493 17.3581 47.4947 17.3138 47.644 17.3091C47.9653 17.3091 48.1795 17.5764 48.1795 17.9863C48.162 18.3022 48.0702 18.6095 47.9114 18.8833C47.7526 19.1571 47.5313 19.3895 47.2656 19.5618C47.1403 19.641 46.9961 19.6853 46.848 19.6901C46.5231 19.6901 46.3125 19.4228 46.3125 19.0129ZM47.2656 17.5087C47.0131 17.6741 46.8031 17.8963 46.6524 18.1576C46.5018 18.4189 46.4147 18.7119 46.3982 19.0129C46.3982 19.3693 46.5695 19.6046 46.848 19.6046C46.9807 19.5996 47.1098 19.5603 47.2228 19.4905C47.4761 19.3258 47.687 19.1037 47.8383 18.8424C47.9896 18.581 48.0772 18.2878 48.0938 17.9863C48.0938 17.6299 47.9189 17.3946 47.644 17.3946C47.5101 17.3995 47.3798 17.4388 47.2656 17.5087Z" fill="#A9D0E5"/>
<path d="M47.1599 19.5688H47.0742V29.5708H47.1599V19.5688Z" fill="#A9D0E5"/>
<path d="M54.3789 20.2282C54.3957 19.9126 54.4868 19.6054 54.645 19.3316C54.8032 19.0578 55.0239 18.8252 55.2892 18.6527C55.4145 18.5736 55.5587 18.5293 55.7068 18.5244C56.0317 18.5244 56.2423 18.7917 56.2423 19.2017C56.2244 19.517 56.1328 19.8238 55.9747 20.0974C55.8166 20.371 55.5965 20.6038 55.332 20.7772C55.2055 20.8565 55.0601 20.9008 54.9108 20.9055C54.5859 20.8877 54.3789 20.6203 54.3789 20.2282ZM55.332 18.724C55.0787 18.8888 54.8678 19.1108 54.7165 19.3722C54.5652 19.6335 54.4776 19.9268 54.461 20.2282C54.461 20.5847 54.6359 20.8199 54.9108 20.8199C55.0446 20.8146 55.1748 20.7753 55.2892 20.7059C55.5416 20.5405 55.7517 20.3182 55.9023 20.0569C56.053 19.7957 56.1401 19.5027 56.1566 19.2017C56.1566 18.8452 55.9853 18.61 55.7068 18.61C55.5757 18.6095 55.4467 18.6427 55.332 18.7062V18.724Z" fill="#A9D0E5"/>
<path d="M55.2185 20.7666H55.1328V25.2365H55.2185V20.7666Z" fill="#A9D0E5"/>
<path d="M28.2812 27.9777C28.299 27.6619 28.3909 27.3547 28.5497 27.081C28.7085 26.8073 28.9296 26.5747 29.1951 26.4022C29.3201 26.3226 29.4645 26.2782 29.6127 26.2739C29.9376 26.2739 30.1482 26.5413 30.1482 26.9512C30.1308 27.2671 30.0389 27.5744 29.8801 27.8481C29.7213 28.1219 29.5001 28.3544 29.2344 28.5267C29.1091 28.6059 28.9649 28.6502 28.8167 28.655C28.5026 28.655 28.2812 28.3877 28.2812 27.9777ZM29.2344 26.4735C28.9819 26.6389 28.7719 26.8612 28.6212 27.1225C28.4705 27.3837 28.3834 27.6767 28.3669 27.9777C28.3669 28.3342 28.5383 28.5694 28.8167 28.5694C28.9505 28.5641 29.0807 28.5248 29.1951 28.4554C29.4476 28.29 29.6576 28.0677 29.8083 27.8065C29.9589 27.5452 30.046 27.2522 30.0625 26.9512C30.0625 26.5947 29.8912 26.3595 29.6127 26.3595C29.4826 26.3666 29.3563 26.4058 29.2451 26.4735H29.2344Z" fill="#A9D0E5"/>
<path d="M29.1404 28.5337H29.0547V40.2145H29.1404V28.5337Z" fill="#A9D0E5"/>
<path d="M38.1719 27.4821C38.1897 27.1668 38.2814 26.86 38.4395 26.5864C38.5976 26.3128 38.8177 26.08 39.0821 25.9066C39.2087 25.8273 39.3541 25.783 39.5034 25.7783C39.8282 25.7783 40.0353 26.0457 40.0353 26.4556C40.0185 26.7712 39.9273 27.0784 39.7691 27.3522C39.611 27.626 39.3902 27.8586 39.125 28.0311C38.9997 28.1102 38.8555 28.1545 38.7073 28.1594C38.3825 28.1594 38.1719 27.8921 38.1719 27.4821ZM39.125 25.9815C38.8724 26.1459 38.6622 26.3675 38.5115 26.6282C38.3608 26.8889 38.2738 27.1815 38.2575 27.4821C38.2575 27.8386 38.4289 28.0738 38.7073 28.0738C38.84 28.0688 38.9692 28.0295 39.0821 27.9598C39.3351 27.7946 39.5457 27.5724 39.6969 27.3112C39.8482 27.0499 39.936 26.7569 39.9532 26.4556C39.9532 26.0991 39.7782 25.8639 39.5034 25.8639C39.369 25.869 39.2385 25.9096 39.125 25.9815Z" fill="#A9D0E5"/>
<path d="M39.0154 28.0381H38.9297V35.1171H39.0154V28.0381Z" fill="#A9D0E5"/>
<path d="M60.4102 10.7292C60.4279 10.4134 60.5198 10.1062 60.6786 9.83245C60.8374 9.55874 61.0585 9.32621 61.324 9.15371C61.4493 9.07453 61.5935 9.03023 61.7417 9.02539C62.0665 9.02539 62.2771 9.29273 62.2771 9.70264C62.2598 10.0181 62.1684 10.3252 62.0102 10.5988C61.8521 10.8725 61.6317 11.1052 61.3668 11.2781C61.2403 11.3574 61.0949 11.4017 60.9456 11.4065C60.6279 11.4065 60.4102 11.1391 60.4102 10.7292ZM61.3668 9.225C61.1144 9.39037 60.9043 9.61265 60.7537 9.87393C60.603 10.1352 60.5159 10.4282 60.4994 10.7292C60.4994 11.0857 60.6707 11.3209 60.9456 11.3209C61.0795 11.316 61.2098 11.2768 61.324 11.2068C61.5771 11.0419 61.7878 10.8198 61.9392 10.5585C62.0905 10.2972 62.1781 10.004 62.195 9.70264C62.195 9.34619 62.0237 9.11094 61.7452 9.11094C61.6125 9.11593 61.4834 9.15524 61.3704 9.225H61.3668Z" fill="#A9D0E5"/>
<path d="M61.2615 11.2852H61.1758V18.3642H61.2615V11.2852Z" fill="#A9D0E5"/>
<path style="mix-blend-mode:screen" opacity="0.3" d="M183.24 33.3921C185.114 34.4615 184.868 31.7311 186.571 32.7149C188.163 33.631 187.92 36.3186 189.894 37.4592C190.173 37.6001 190.486 37.6589 190.797 37.6286C191.108 37.5983 191.404 37.4802 191.651 37.2881V51.9024L179.574 44.941V24.2671C181.423 25.3329 181.37 32.3121 183.24 33.3921Z" fill="url(#paint88_linear_1097_3014)"/>
<path style="mix-blend-mode:screen" opacity="0.3" d="M191.651 40.9988C191.651 40.9988 191.19 39.3591 189.894 38.6142C188.299 37.6945 188.573 40.0007 186.574 38.8458C184.575 37.691 185.147 35.5131 183.504 34.5685C181.862 33.6239 182.059 34.9926 181.166 34.4794C180.274 33.9661 179.574 31.5601 179.574 31.5601V44.9411L191.651 51.9025V40.9988Z" fill="url(#paint89_linear_1097_3014)"/>
<path style="mix-blend-mode:screen" opacity="0.3" d="M168.367 24.3347C169.22 24.8288 170.21 25.035 171.19 24.9228C172.165 24.7695 173.114 25.126 174.532 25.9565C174.887 26.1973 175.312 26.3141 175.74 26.289C176.169 26.2639 176.577 26.0981 176.902 25.8175V43.3725L164.715 36.3505V23.9497C167.01 25.2721 167.189 23.7073 168.367 24.3347Z" fill="url(#paint90_linear_1097_3014)"/>
<path style="mix-blend-mode:screen" opacity="0.3" d="M176.901 43.3727V30.0059C176.901 30.0059 176.213 28.7833 174.046 27.6462C171.879 26.5091 172.336 28.9187 170.858 28.0668C169.38 27.2149 169.045 26.4842 167.135 25.3828C165.225 24.2814 164.711 25.7392 164.711 25.7392V36.3471L176.901 43.3727Z" fill="url(#paint91_linear_1097_3014)"/>
<path style="mix-blend-mode:screen" opacity="0.3" d="M150.807 10.5082C151.878 11.1178 152.234 14.8319 153.416 15.4985C154.598 16.165 153.991 14.2866 155.579 15.2026C157.168 16.1187 156.65 17.0276 157.721 17.6372C158.792 18.2467 158.51 16.2114 160.077 17.0954C161.644 17.9794 161.676 20.5636 161.676 20.5636V34.5898L149.75 27.7139V11.3174C149.75 11.3174 149.75 9.89158 150.807 10.5082Z" fill="url(#paint92_linear_1097_3014)"/>
<path style="mix-blend-mode:screen" opacity="0.3" d="M161.673 34.5967V22.6344C161.673 22.6344 161.127 20.649 158.542 19.159C155.958 17.6691 156.275 19.9717 154.455 18.9202C152.634 17.8687 152.759 15.951 149.75 14.1973V27.7137L161.673 34.5967Z" fill="url(#paint93_linear_1097_3014)"/>
<path opacity="0.6" d="M185.918 51.9807L191.651 55.2885V53.0108L185.918 49.7065V51.9807Z" fill="#95C4DF"/>
<path opacity="0.3" d="M179.574 48.3235L185.307 51.6313V49.3571L179.574 46.0493V48.3235Z" fill="#95C4DF"/>
<path opacity="0.6" d="M171.109 43.4476L176.846 46.7519V44.4778L171.109 41.1699V43.4476Z" fill="#95C4DF"/>
<path opacity="0.3" d="M164.766 39.7902L170.502 43.0981V40.8204L164.766 37.5161V39.7902Z" fill="#95C4DF"/>
<path opacity="0.6" d="M156.016 34.7429L161.752 38.0507V35.773L156.016 32.4688V34.7429Z" fill="#95C4DF"/>
<path opacity="0.3" d="M149.672 31.0857L155.408 34.3935V32.1194L149.672 28.8115V31.0857Z" fill="#95C4DF"/>
</g>
<defs>
<linearGradient id="paint0_linear_1097_3014" x1="40.5616" y1="120.18" x2="40.5616" y2="64.3924" gradientUnits="userSpaceOnUse">
<stop/>
<stop offset="1" stop-color="#48D6F3"/>
</linearGradient>
<linearGradient id="paint1_linear_1097_3014" x1="153.24" y1="101.42" x2="153.24" y2="53.5276" gradientUnits="userSpaceOnUse">
<stop/>
<stop offset="1" stop-color="#48D6F3"/>
</linearGradient>
<linearGradient id="paint2_linear_1097_3014" x1="175.217" y1="102.162" x2="175.217" y2="54.2728" gradientUnits="userSpaceOnUse">
<stop/>
<stop offset="1" stop-color="#48D6F3"/>
</linearGradient>
<linearGradient id="paint3_linear_1097_3014" x1="59.794" y1="90.6127" x2="59.794" y2="42.421" gradientUnits="userSpaceOnUse">
<stop/>
<stop offset="1" stop-color="#48D6F3"/>
</linearGradient>
<linearGradient id="paint4_linear_1097_3014" x1="52.5342" y1="80.3255" x2="52.5342" y2="54.1017" gradientUnits="userSpaceOnUse">
<stop/>
<stop offset="1" stop-color="#48D6F3"/>
</linearGradient>
<linearGradient id="paint5_linear_1097_3014" x1="72.1797" y1="64.1995" x2="72.1797" y2="37.9757" gradientUnits="userSpaceOnUse">
<stop/>
<stop offset="1" stop-color="#48D6F3"/>
</linearGradient>
<linearGradient id="paint6_linear_1097_3014" x1="145.425" y1="66.2172" x2="145.425" y2="39.9934" gradientUnits="userSpaceOnUse">
<stop/>
<stop offset="1" stop-color="#48D6F3"/>
</linearGradient>
<linearGradient id="paint7_linear_1097_3014" x1="107.536" y1="129.23" x2="107.536" y2="6.08435" gradientUnits="userSpaceOnUse">
<stop stop-color="#1ED4FC"/>
<stop offset="1"/>
</linearGradient>
<linearGradient id="paint8_linear_1097_3014" x1="107.536" y1="128" x2="107.536" y2="11.759" gradientUnits="userSpaceOnUse">
<stop stop-color="white"/>
<stop offset="1"/>
</linearGradient>
<linearGradient id="paint9_linear_1097_3014" x1="115.078" y1="101.552" x2="99.9355" y2="101.552" gradientUnits="userSpaceOnUse">
<stop stop-color="#0373EE"/>
<stop offset="1" stop-color="#0A20CC"/>
</linearGradient>
<linearGradient id="paint10_linear_1097_3014" x1="162.251" y1="60.407" x2="16.7745" y2="149.802" gradientUnits="userSpaceOnUse">
<stop stop-color="#4AD4FF"/>
<stop offset="1" stop-color="#0A20CC"/>
</linearGradient>
<linearGradient id="paint11_linear_1097_3014" x1="117.063" y1="83.9505" x2="100.203" y2="83.9505" gradientUnits="userSpaceOnUse">
<stop stop-color="#0373EE"/>
<stop offset="1" stop-color="#0A20CC"/>
</linearGradient>
<linearGradient id="paint12_linear_1097_3014" x1="150.696" y1="60.4606" x2="-8.73164" y2="125.251" gradientUnits="userSpaceOnUse">
<stop stop-color="#4AD4FF"/>
<stop offset="1" stop-color="#0A20CC"/>
</linearGradient>
<linearGradient id="paint13_linear_1097_3014" x1="109.385" y1="100.19" x2="109.385" y2="57.0492" gradientUnits="userSpaceOnUse">
<stop stop-color="#0373EE"/>
<stop offset="1" stop-color="#0A20CC"/>
</linearGradient>
<linearGradient id="paint14_linear_1097_3014" x1="109.383" y1="31.9875" x2="109.383" y2="93.5245" gradientUnits="userSpaceOnUse">
<stop offset="0.07"/>
<stop offset="1" stop-color="#4CE8F3"/>
</linearGradient>
<linearGradient id="paint15_linear_1097_3014" x1="141.434" y1="23.9711" x2="77.1147" y2="23.9711" gradientUnits="userSpaceOnUse">
<stop stop-color="#009EFF"/>
<stop offset="1" stop-color="#0A20CC"/>
</linearGradient>
<linearGradient id="paint16_linear_1097_3014" x1="141.443" y1="23.9711" x2="77.1237" y2="23.9711" gradientUnits="userSpaceOnUse">
<stop stop-color="#009EFF"/>
<stop offset="1" stop-color="#0A20CC"/>
</linearGradient>
<linearGradient id="paint17_linear_1097_3014" x1="141.433" y1="28.0026" x2="77.1217" y2="28.0026" gradientUnits="userSpaceOnUse">
<stop stop-color="#009EFF"/>
<stop offset="1" stop-color="#0A20CC"/>
</linearGradient>
<linearGradient id="paint18_linear_1097_3014" x1="141.427" y1="28.2875" x2="77.1257" y2="28.2875" gradientUnits="userSpaceOnUse">
<stop stop-color="#009EFF"/>
<stop offset="1" stop-color="#0A20CC"/>
</linearGradient>
<linearGradient id="paint19_linear_1097_3014" x1="141.428" y1="28.0026" x2="77.1305" y2="28.0026" gradientUnits="userSpaceOnUse">
<stop stop-color="#009EFF"/>
<stop offset="1" stop-color="#0A20CC"/>
</linearGradient>
<linearGradient id="paint20_linear_1097_3014" x1="141.427" y1="33.6667" x2="77.1291" y2="33.6667" gradientUnits="userSpaceOnUse">
<stop stop-color="#009EFF"/>
<stop offset="1" stop-color="#0A20CC"/>
</linearGradient>
<linearGradient id="paint21_linear_1097_3014" x1="141.431" y1="33.6667" x2="77.1265" y2="33.6667" gradientUnits="userSpaceOnUse">
<stop stop-color="#009EFF"/>
<stop offset="1" stop-color="#0A20CC"/>
</linearGradient>
<linearGradient id="paint22_linear_1097_3014" x1="141.429" y1="32.244" x2="77.1313" y2="32.244" gradientUnits="userSpaceOnUse">
<stop stop-color="#009EFF"/>
<stop offset="1" stop-color="#0A20CC"/>
</linearGradient>
<linearGradient id="paint23_linear_1097_3014" x1="141.433" y1="33.4812" x2="77.1286" y2="33.4812" gradientUnits="userSpaceOnUse">
<stop stop-color="#009EFF"/>
<stop offset="1" stop-color="#0A20CC"/>
</linearGradient>
<linearGradient id="paint24_linear_1097_3014" x1="141.427" y1="34.0869" x2="77.1258" y2="34.0869" gradientUnits="userSpaceOnUse">
<stop stop-color="#009EFF"/>
<stop offset="1" stop-color="#0A20CC"/>
</linearGradient>
<linearGradient id="paint25_linear_1097_3014" x1="141.429" y1="37.5766" x2="77.128" y2="37.5766" gradientUnits="userSpaceOnUse">
<stop stop-color="#009EFF"/>
<stop offset="1" stop-color="#0A20CC"/>
</linearGradient>
<linearGradient id="paint26_linear_1097_3014" x1="141.429" y1="35.0745" x2="77.1321" y2="35.0745" gradientUnits="userSpaceOnUse">
<stop stop-color="#009EFF"/>
<stop offset="1" stop-color="#0A20CC"/>
</linearGradient>
<linearGradient id="paint27_linear_1097_3014" x1="141.426" y1="39.327" x2="76.8094" y2="39.327" gradientUnits="userSpaceOnUse">
<stop stop-color="#009EFF"/>
<stop offset="1" stop-color="#0A20CC"/>
</linearGradient>
<linearGradient id="paint28_linear_1097_3014" x1="141.229" y1="39.2554" x2="77.1268" y2="39.2554" gradientUnits="userSpaceOnUse">
<stop stop-color="#009EFF"/>
<stop offset="1" stop-color="#0A20CC"/>
</linearGradient>
<linearGradient id="paint29_linear_1097_3014" x1="141.428" y1="40.104" x2="77.1338" y2="40.104" gradientUnits="userSpaceOnUse">
<stop stop-color="#009EFF"/>
<stop offset="1" stop-color="#0A20CC"/>
</linearGradient>
<linearGradient id="paint30_linear_1097_3014" x1="141.426" y1="40.1004" x2="77.1286" y2="40.1004" gradientUnits="userSpaceOnUse">
<stop stop-color="#009EFF"/>
<stop offset="1" stop-color="#0A20CC"/>
</linearGradient>
<linearGradient id="paint31_linear_1097_3014" x1="141.431" y1="39.8081" x2="77.1228" y2="39.8081" gradientUnits="userSpaceOnUse">
<stop stop-color="#009EFF"/>
<stop offset="1" stop-color="#0A20CC"/>
</linearGradient>
<linearGradient id="paint32_linear_1097_3014" x1="141.427" y1="41.7685" x2="77.126" y2="41.7685" gradientUnits="userSpaceOnUse">
<stop stop-color="#009EFF"/>
<stop offset="1" stop-color="#0A20CC"/>
</linearGradient>
<linearGradient id="paint33_linear_1097_3014" x1="141.431" y1="41.5941" x2="77.1196" y2="41.5941" gradientUnits="userSpaceOnUse">
<stop stop-color="#009EFF"/>
<stop offset="1" stop-color="#0A20CC"/>
</linearGradient>
<linearGradient id="paint34_linear_1097_3014" x1="141.439" y1="41.5905" x2="77.1281" y2="41.5905" gradientUnits="userSpaceOnUse">
<stop stop-color="#009EFF"/>
<stop offset="1" stop-color="#0A20CC"/>
</linearGradient>
<linearGradient id="paint35_linear_1097_3014" x1="141.427" y1="42.5598" x2="77.129" y2="42.5598" gradientUnits="userSpaceOnUse">
<stop stop-color="#009EFF"/>
<stop offset="1" stop-color="#0A20CC"/>
</linearGradient>
<linearGradient id="paint36_linear_1097_3014" x1="141.428" y1="43.7362" x2="77.1271" y2="43.7362" gradientUnits="userSpaceOnUse">
<stop stop-color="#009EFF"/>
<stop offset="1" stop-color="#0A20CC"/>
</linearGradient>
<linearGradient id="paint37_linear_1097_3014" x1="141.429" y1="44.3422" x2="77.1276" y2="44.3422" gradientUnits="userSpaceOnUse">
<stop stop-color="#009EFF"/>
<stop offset="1" stop-color="#0A20CC"/>
</linearGradient>
<linearGradient id="paint38_linear_1097_3014" x1="141.427" y1="45.7999" x2="77.1157" y2="45.7999" gradientUnits="userSpaceOnUse">
<stop stop-color="#009EFF"/>
<stop offset="1" stop-color="#0A20CC"/>
</linearGradient>
<linearGradient id="paint39_linear_1097_3014" x1="141.43" y1="46.3274" x2="77.1221" y2="46.3274" gradientUnits="userSpaceOnUse">
<stop stop-color="#009EFF"/>
<stop offset="1" stop-color="#0A20CC"/>
</linearGradient>
<linearGradient id="paint40_linear_1097_3014" x1="141.431" y1="46.3308" x2="77.1265" y2="46.3308" gradientUnits="userSpaceOnUse">
<stop stop-color="#009EFF"/>
<stop offset="1" stop-color="#0A20CC"/>
</linearGradient>
<linearGradient id="paint41_linear_1097_3014" x1="141.437" y1="45.7998" x2="77.1254" y2="45.7998" gradientUnits="userSpaceOnUse">
<stop stop-color="#009EFF"/>
<stop offset="1" stop-color="#0A20CC"/>
</linearGradient>
<linearGradient id="paint42_linear_1097_3014" x1="141.429" y1="46.8728" x2="77.1383" y2="46.8728" gradientUnits="userSpaceOnUse">
<stop stop-color="#009EFF"/>
<stop offset="1" stop-color="#0A20CC"/>
</linearGradient>
<linearGradient id="paint43_linear_1097_3014" x1="141.432" y1="46.8728" x2="77.1269" y2="46.8728" gradientUnits="userSpaceOnUse">
<stop stop-color="#009EFF"/>
<stop offset="1" stop-color="#0A20CC"/>
</linearGradient>
<linearGradient id="paint44_linear_1097_3014" x1="141.433" y1="47.4718" x2="77.1252" y2="47.4718" gradientUnits="userSpaceOnUse">
<stop stop-color="#009EFF"/>
<stop offset="1" stop-color="#0A20CC"/>
</linearGradient>
<linearGradient id="paint45_linear_1097_3014" x1="141.429" y1="50.9151" x2="77.1279" y2="50.9151" gradientUnits="userSpaceOnUse">
<stop stop-color="#009EFF"/>
<stop offset="1" stop-color="#0A20CC"/>
</linearGradient>
<linearGradient id="paint46_linear_1097_3014" x1="141.427" y1="50.915" x2="77.1263" y2="50.915" gradientUnits="userSpaceOnUse">
<stop stop-color="#009EFF"/>
<stop offset="1" stop-color="#0A20CC"/>
</linearGradient>
<linearGradient id="paint47_linear_1097_3014" x1="141.429" y1="51.3961" x2="77.1278" y2="51.3961" gradientUnits="userSpaceOnUse">
<stop stop-color="#009EFF"/>
<stop offset="1" stop-color="#0A20CC"/>
</linearGradient>
<linearGradient id="paint48_linear_1097_3014" x1="141.429" y1="51.7883" x2="77.1317" y2="51.7883" gradientUnits="userSpaceOnUse">
<stop stop-color="#009EFF"/>
<stop offset="1" stop-color="#0A20CC"/>
</linearGradient>
<linearGradient id="paint49_linear_1097_3014" x1="141.428" y1="51.3961" x2="77.1272" y2="51.3961" gradientUnits="userSpaceOnUse">
<stop stop-color="#009EFF"/>
<stop offset="1" stop-color="#0A20CC"/>
</linearGradient>
<linearGradient id="paint50_linear_1097_3014" x1="141.433" y1="51.7883" x2="77.128" y2="51.7883" gradientUnits="userSpaceOnUse">
<stop stop-color="#009EFF"/>
<stop offset="1" stop-color="#0A20CC"/>
</linearGradient>
<linearGradient id="paint51_linear_1097_3014" x1="141.433" y1="53.1035" x2="77.1246" y2="53.1035" gradientUnits="userSpaceOnUse">
<stop stop-color="#009EFF"/>
<stop offset="1" stop-color="#0A20CC"/>
</linearGradient>
<linearGradient id="paint52_linear_1097_3014" x1="141.43" y1="53.1037" x2="77.1252" y2="53.1037" gradientUnits="userSpaceOnUse">
<stop stop-color="#009EFF"/>
<stop offset="1" stop-color="#0A20CC"/>
</linearGradient>
<linearGradient id="paint53_linear_1097_3014" x1="141.431" y1="55.7983" x2="77.1231" y2="55.7983" gradientUnits="userSpaceOnUse">
<stop stop-color="#009EFF"/>
<stop offset="1" stop-color="#0A20CC"/>
</linearGradient>
<linearGradient id="paint54_linear_1097_3014" x1="141.432" y1="54.5436" x2="77.1234" y2="54.5436" gradientUnits="userSpaceOnUse">
<stop stop-color="#009EFF"/>
<stop offset="1" stop-color="#0A20CC"/>
</linearGradient>
<linearGradient id="paint55_linear_1097_3014" x1="141.426" y1="54.5436" x2="77.1253" y2="54.5436" gradientUnits="userSpaceOnUse">
<stop stop-color="#009EFF"/>
<stop offset="1" stop-color="#0A20CC"/>
</linearGradient>
<linearGradient id="paint56_linear_1097_3014" x1="141.431" y1="55.7985" x2="77.1263" y2="55.7985" gradientUnits="userSpaceOnUse">
<stop stop-color="#009EFF"/>
<stop offset="1" stop-color="#0A20CC"/>
</linearGradient>
<linearGradient id="paint57_linear_1097_3014" x1="141.433" y1="55.2741" x2="77.1246" y2="55.2741" gradientUnits="userSpaceOnUse">
<stop stop-color="#009EFF"/>
<stop offset="1" stop-color="#0A20CC"/>
</linearGradient>
<linearGradient id="paint58_linear_1097_3014" x1="141.444" y1="55.2742" x2="77.1109" y2="55.2742" gradientUnits="userSpaceOnUse">
<stop stop-color="#009EFF"/>
<stop offset="1" stop-color="#0A20CC"/>
</linearGradient>
<linearGradient id="paint59_linear_1097_3014" x1="141.426" y1="57.2134" x2="77.1359" y2="57.2134" gradientUnits="userSpaceOnUse">
<stop stop-color="#009EFF"/>
<stop offset="1" stop-color="#0A20CC"/>
</linearGradient>
<linearGradient id="paint60_linear_1097_3014" x1="109.269" y1="50.9041" x2="109.269" y2="97.8945" gradientUnits="userSpaceOnUse">
<stop offset="0.07"/>
<stop offset="1" stop-color="#4CE8F3"/>
</linearGradient>
<linearGradient id="paint61_linear_1097_3014" x1="97.2444" y1="43.9641" x2="97.2444" y2="97.7377" gradientUnits="userSpaceOnUse">
<stop offset="0.07"/>
<stop offset="1" stop-color="#4CE8F3"/>
</linearGradient>
<linearGradient id="paint62_linear_1097_3014" x1="121.69" y1="43.9641" x2="121.69" y2="97.7377" gradientUnits="userSpaceOnUse">
<stop offset="0.07"/>
<stop offset="1" stop-color="#4CE8F3"/>
</linearGradient>
<linearGradient id="paint63_linear_1097_3014" x1="138.922" y1="44.7806" x2="138.922" y2="91.8851" gradientUnits="userSpaceOnUse">
<stop offset="0.07"/>
<stop offset="1" stop-color="#4CE8F3"/>
</linearGradient>
<linearGradient id="paint64_linear_1097_3014" x1="79.9166" y1="44.7804" x2="79.9166" y2="91.8849" gradientUnits="userSpaceOnUse">
<stop offset="0.07"/>
<stop offset="1" stop-color="#4CE8F3"/>
</linearGradient>
<linearGradient id="paint65_linear_1097_3014" x1="185.958" y1="146.268" x2="173.267" y2="146.268" gradientUnits="userSpaceOnUse">
<stop stop-color="#0373EE"/>
<stop offset="1" stop-color="#0A20CC"/>
</linearGradient>
<linearGradient id="paint66_linear_1097_3014" x1="211.274" y1="128.585" x2="91.2676" y2="177.355" gradientUnits="userSpaceOnUse">
<stop stop-color="#4AD4FF"/>
<stop offset="1" stop-color="#0A20CC"/>
</linearGradient>
<linearGradient id="paint67_linear_1097_3014" x1="42.2545" y1="146.268" x2="29.5643" y2="146.268" gradientUnits="userSpaceOnUse">
<stop stop-color="#0373EE"/>
<stop offset="1" stop-color="#0A20CC"/>
</linearGradient>
<linearGradient id="paint68_linear_1097_3014" x1="67.5709" y1="128.585" x2="-52.4355" y2="177.355" gradientUnits="userSpaceOnUse">
<stop stop-color="#4AD4FF"/>
<stop offset="1" stop-color="#0A20CC"/>
</linearGradient>
<linearGradient id="paint69_linear_1097_3014" x1="62.8738" y1="74.4763" x2="23.6939" y2="122.503" gradientUnits="userSpaceOnUse">
<stop stop-color="#4AD4FF"/>
<stop offset="1" stop-color="#0A20CC"/>
</linearGradient>
<linearGradient id="paint70_linear_1097_3014" x1="46.9386" y1="75.7951" x2="46.9386" y2="118.391" gradientUnits="userSpaceOnUse">
<stop stop-color="#FE9FEE"/>
<stop offset="1" stop-color="#E33CE3"/>
</linearGradient>
<linearGradient id="paint71_linear_1097_3014" x1="43.5422" y1="83.0487" x2="53.3623" y2="213.617" gradientUnits="userSpaceOnUse">
<stop stop-color="#FE9FEE"/>
<stop offset="1" stop-color="#E33CE3"/>
</linearGradient>
<linearGradient id="paint72_linear_1097_3014" x1="46.9386" y1="75.7951" x2="46.9386" y2="118.391" gradientUnits="userSpaceOnUse">
<stop stop-color="#2580D3"/>
<stop offset="1" stop-color="#0A208F"/>
</linearGradient>
<linearGradient id="paint73_linear_1097_3014" x1="43.5422" y1="83.0487" x2="53.3623" y2="213.617" gradientUnits="userSpaceOnUse">
<stop stop-color="#328DE0"/>
<stop offset="1" stop-color="#172D9C"/>
</linearGradient>
<linearGradient id="paint74_linear_1097_3014" x1="166.129" y1="89.5647" x2="205.313" y2="137.595" gradientUnits="userSpaceOnUse">
<stop stop-color="#4AD4FF"/>
<stop offset="1" stop-color="#0A20CC"/>
</linearGradient>
<linearGradient id="paint75_linear_1097_3014" x1="169.72" y1="75.7951" x2="169.72" y2="118.391" gradientUnits="userSpaceOnUse">
<stop stop-color="#FE9FEE"/>
<stop offset="1" stop-color="#E33CE3"/>
</linearGradient>
<linearGradient id="paint76_linear_1097_3014" x1="173.114" y1="83.0487" x2="163.298" y2="213.617" gradientUnits="userSpaceOnUse">
<stop stop-color="#FE9FEE"/>
<stop offset="1" stop-color="#E33CE3"/>
</linearGradient>
<linearGradient id="paint77_linear_1097_3014" x1="169.72" y1="75.7951" x2="169.72" y2="118.391" gradientUnits="userSpaceOnUse">
<stop stop-color="#2580D3"/>
<stop offset="1" stop-color="#0A208F"/>
</linearGradient>
<linearGradient id="paint78_linear_1097_3014" x1="173.114" y1="83.0487" x2="163.298" y2="213.617" gradientUnits="userSpaceOnUse">
<stop stop-color="#328DE0"/>
<stop offset="1" stop-color="#172D9C"/>
</linearGradient>
<linearGradient id="paint79_linear_1097_3014" x1="181.269" y1="15.5484" x2="148.644" y2="65.3238" gradientUnits="userSpaceOnUse">
<stop stop-color="#0373EE"/>
<stop offset="1" stop-color="#0A20CC"/>
</linearGradient>
<linearGradient id="paint80_linear_1097_3014" x1="182.366" y1="32.2015" x2="184.571" y2="35.8793" gradientUnits="userSpaceOnUse">
<stop stop-color="#4AD4FF"/>
<stop offset="1" stop-color="#2161DF"/>
</linearGradient>
<linearGradient id="paint81_linear_1097_3014" x1="187.103" y1="12.6898" x2="137.218" y2="70.503" gradientUnits="userSpaceOnUse">
<stop stop-color="#4AD4FF"/>
<stop offset="1" stop-color="#0A20CC"/>
</linearGradient>
<linearGradient id="paint82_linear_1097_3014" x1="35.3382" y1="15.5484" x2="67.959" y2="65.3238" gradientUnits="userSpaceOnUse">
<stop stop-color="#0373EE"/>
<stop offset="1" stop-color="#0A20CC"/>
</linearGradient>
<linearGradient id="paint83_linear_1097_3014" x1="34.2409" y1="32.2015" x2="32.0396" y2="35.8793" gradientUnits="userSpaceOnUse">
<stop stop-color="#4AD4FF"/>
<stop offset="1" stop-color="#2161DF"/>
</linearGradient>
<linearGradient id="paint84_linear_1097_3014" x1="29.5081" y1="12.6862" x2="79.3929" y2="70.503" gradientUnits="userSpaceOnUse">
<stop stop-color="#4AD4FF"/>
<stop offset="1" stop-color="#0A20CC"/>
</linearGradient>
<linearGradient id="paint85_linear_1097_3014" x1="45.8342" y1="28.2342" x2="53.3496" y2="41.3302" gradientUnits="userSpaceOnUse">
<stop stop-color="#A9D0E5"/>
<stop offset="1"/>
</linearGradient>
<linearGradient id="paint86_linear_1097_3014" x1="45.8345" y1="28.2378" x2="53.3484" y2="41.3311" gradientUnits="userSpaceOnUse">
<stop stop-color="#A9D0E5"/>
<stop offset="1"/>
</linearGradient>
<linearGradient id="paint87_linear_1097_3014" x1="45.8345" y1="31.3885" x2="53.4484" y2="44.6562" gradientUnits="userSpaceOnUse">
<stop stop-color="#A9D0E5"/>
<stop offset="1"/>
</linearGradient>
<linearGradient id="paint88_linear_1097_3014" x1="186.132" y1="27.8137" x2="185.039" y2="49.5144" gradientUnits="userSpaceOnUse">
<stop stop-color="#A9D0E5"/>
<stop offset="1"/>
</linearGradient>
<linearGradient id="paint89_linear_1097_3014" x1="186.314" y1="27.8245" x2="185.225" y2="49.5252" gradientUnits="userSpaceOnUse">
<stop stop-color="#A9D0E5"/>
<stop offset="1"/>
</linearGradient>
<linearGradient id="paint90_linear_1097_3014" x1="170.84" y1="21.0874" x2="170.784" y2="43.1907" gradientUnits="userSpaceOnUse">
<stop stop-color="#A9D0E5"/>
<stop offset="1"/>
</linearGradient>
<linearGradient id="paint91_linear_1097_3014" x1="170.844" y1="21.0876" x2="170.787" y2="43.1909" gradientUnits="userSpaceOnUse">
<stop stop-color="#A9D0E5"/>
<stop offset="1"/>
</linearGradient>
<linearGradient id="paint92_linear_1097_3014" x1="155.711" y1="12.3119" x2="155.711" y2="33.7949" gradientUnits="userSpaceOnUse">
<stop stop-color="#A9D0E5"/>
<stop offset="1"/>
</linearGradient>
<linearGradient id="paint93_linear_1097_3014" x1="155.711" y1="12.3117" x2="155.711" y2="33.7947" gradientUnits="userSpaceOnUse">
<stop stop-color="#A9D0E5"/>
<stop offset="1"/>
</linearGradient>
<clipPath id="clip0_1097_3014">
<rect width="215.885" height="172" fill="white"/>
</clipPath>
</defs>
</svg>
