<svg width="89" height="55" viewBox="0 0 89 55" fill="none" xmlns="http://www.w3.org/2000/svg">
<path d="M44.2737 54.7639C44.2532 54.7639 44.2327 54.7537 44.2122 54.7434L0.0614744 29.2839C0.0204898 29.2635 0 29.2226 0 29.1714C0 29.1202 0.0204898 29.0793 0.0614744 29.0588L44.2122 3.59933C44.2532 3.57887 44.3044 3.57887 44.3454 3.59933L88.4961 29.0588C88.537 29.0793 88.5575 29.1202 88.5575 29.1714C88.5575 29.2123 88.537 29.2635 88.4961 29.2839L44.3454 54.7434C44.3249 54.7537 44.3044 54.7639 44.2737 54.7639ZM0.389359 29.1816L44.2839 54.4876L88.1784 29.1816L44.2839 3.87564L0.389359 29.1816Z" fill="#00FFFF"/>
<path d="M82.8835 21.855H78.1292V28.6803C78.119 29.0385 78.3546 29.3966 78.826 29.6627C79.7584 30.1948 81.2645 30.1948 82.1867 29.6627C82.658 29.3966 82.8835 29.0385 82.8835 28.6803V21.855Z" fill="url(#paint0_linear_1041_5684)"/>
<path d="M78.8243 20.8931C77.8919 21.4252 77.8919 22.295 78.8243 22.8373C79.7567 23.3694 81.2629 23.3694 82.185 22.8373C83.1174 22.3052 83.1174 21.4354 82.185 20.8931C81.2629 20.3507 79.7567 20.3507 78.8243 20.8931Z" fill="#00EAFF"/>
<path d="M76.9616 18.4473H72.2074V25.2726C72.1971 25.6308 72.4328 25.9889 72.9041 26.255C73.8365 26.7871 75.3427 26.7871 76.2648 26.255C76.7361 25.9889 76.9616 25.6308 76.9616 25.2726V18.4473Z" fill="url(#paint1_linear_1041_5684)"/>
<path d="M72.9024 17.4753C71.97 18.0074 71.97 18.8772 72.9024 19.4195C73.8348 19.9516 75.341 19.9516 76.2632 19.4195C77.1956 18.8874 77.1956 18.0176 76.2632 17.4753C75.341 16.9431 73.8348 16.9431 72.9024 17.4753Z" fill="#00EAFF"/>
<path d="M71.0475 15.0293H66.2933V21.8547C66.283 22.2128 66.5187 22.571 66.99 22.837C67.9224 23.3691 69.4286 23.3691 70.3508 22.837C70.8221 22.571 71.0475 22.2128 71.0475 21.8547V15.0293Z" fill="url(#paint2_linear_1041_5684)"/>
<path d="M66.9806 14.0573C66.0481 14.5894 66.0481 15.4592 66.9806 16.0016C67.913 16.5337 69.4191 16.5337 70.3413 16.0016C71.2737 15.4695 71.2737 14.5996 70.3413 14.0573C69.4191 13.5252 67.913 13.5252 66.9806 14.0573Z" fill="#00EAFF"/>
<path d="M65.1256 11.6118H60.3714V18.4372C60.3612 18.7953 60.5968 19.1535 61.0681 19.4195C62.0005 19.9516 63.5067 19.9516 64.4289 19.4195C64.9002 19.1535 65.1256 18.7953 65.1256 18.4372V11.6118Z" fill="url(#paint3_linear_1041_5684)"/>
<path d="M61.0587 10.6499C60.1263 11.182 60.1263 12.0518 61.0587 12.5942C61.9911 13.1263 63.4973 13.1263 64.4194 12.5942C65.3518 12.0621 65.3518 11.1923 64.4194 10.6499C63.4973 10.1076 61.9911 10.1076 61.0587 10.6499Z" fill="#00EAFF"/>
<path d="M59.2037 8.2041H54.4495V15.0295C54.4393 15.3876 54.6749 15.7458 55.1463 16.0118C56.0787 16.5439 57.5849 16.5439 58.507 16.0118C58.9783 15.7458 59.2037 15.3876 59.2037 15.0295V8.2041Z" fill="url(#paint4_linear_1041_5684)"/>
<path d="M55.1446 7.23209C54.2122 7.7642 54.2122 8.63399 55.1446 9.17634C56.077 9.70845 57.5832 9.70845 58.5054 9.17634C59.4378 8.64423 59.4378 7.77444 58.5054 7.23209C57.573 6.69998 56.0668 6.69998 55.1446 7.23209Z" fill="#00EAFF"/>
<path d="M53.2819 4.78613H48.5277V11.6115C48.5174 11.9697 48.7531 12.3278 49.2244 12.5938C50.1568 13.126 51.663 13.126 52.5851 12.5938C53.0565 12.3278 53.2819 11.9697 53.2819 11.6115V4.78613Z" fill="url(#paint5_linear_1041_5684)"/>
<path d="M49.2227 3.81412C48.2903 4.34623 48.2903 5.21603 49.2227 5.75837C50.1551 6.29048 51.6613 6.29048 52.5835 5.75837C53.5159 5.22626 53.5159 4.35647 52.5835 3.81412C51.6511 3.28201 50.1449 3.28201 49.2227 3.81412Z" fill="#00EAFF"/>
<path d="M47.36 1.37891H42.6058V8.20424C42.5955 8.56239 42.8312 8.91033 43.3025 9.18662C44.2349 9.71873 45.7411 9.71873 46.6633 9.18662C47.1346 8.92057 47.36 8.56239 47.36 8.20424V1.37891Z" fill="url(#paint6_linear_1041_5684)"/>
<path d="M43.3009 0.406758C42.3685 0.93887 42.3685 1.80866 43.3009 2.35101C44.2333 2.88312 45.7394 2.88312 46.6616 2.35101C47.594 1.81889 47.594 0.949103 46.6616 0.406758C45.7292 -0.135586 44.2333 -0.135586 43.3009 0.406758Z" fill="#00EAFF"/>
<path d="M76.9538 25.2725H72.1995V32.0978C72.1893 32.4559 72.425 32.8141 72.8963 33.0801C73.8287 33.6123 75.3349 33.6123 76.257 33.0801C76.7284 32.8141 76.9538 32.4559 76.9538 32.0978V25.2725Z" fill="url(#paint7_linear_1041_5684)"/>
<path d="M72.8946 24.3005C71.9622 24.8326 71.9622 25.7024 72.8946 26.2447C73.827 26.7768 75.3332 26.7768 76.2554 26.2447C77.1878 25.7126 77.1878 24.8428 76.2554 24.3005C75.3332 23.7683 73.827 23.7683 72.8946 24.3005Z" fill="#00EAFF"/>
<path d="M71.0319 21.8545H66.2777V28.6798C66.2674 29.038 66.5031 29.3961 66.9744 29.6622C67.9068 30.1943 69.413 30.1943 70.3352 29.6622C70.8065 29.3961 71.0319 29.038 71.0319 28.6798V21.8545Z" fill="url(#paint8_linear_1041_5684)"/>
<path d="M66.9727 20.8825C66.0403 21.4146 66.0403 22.2844 66.9727 22.8267C67.9051 23.3588 69.4113 23.3588 70.3335 22.8267C71.2659 22.2946 71.2659 21.4248 70.3335 20.8825C69.4113 20.3504 67.9051 20.3504 66.9727 20.8825Z" fill="#00EAFF"/>
<path d="M65.1178 18.437H60.3636V25.2624C60.3534 25.6205 60.589 25.9787 61.0603 26.2447C61.9927 26.7768 63.4989 26.7768 64.4211 26.2447C64.8924 25.9787 65.1178 25.6205 65.1178 25.2624V18.437Z" fill="url(#paint9_linear_1041_5684)"/>
<path d="M61.0509 17.4751C60.1185 18.0072 60.1185 18.8771 61.0509 19.4194C61.9833 19.9515 63.4894 19.9515 64.4116 19.4194C65.344 18.8873 65.344 18.0175 64.4116 17.4751C63.4894 16.9328 61.9833 16.9328 61.0509 17.4751Z" fill="#00EAFF"/>
<path d="M59.196 15.0293H54.4417V21.8547C54.4315 22.2128 54.6671 22.571 55.1385 22.837C56.0709 23.3691 57.577 23.3691 58.4992 22.837C58.9705 22.571 59.196 22.2128 59.196 21.8547V15.0293Z" fill="url(#paint10_linear_1041_5684)"/>
<path d="M55.1368 14.0573C54.2044 14.5894 54.2044 15.4592 55.1368 16.0016C56.0692 16.5337 57.5754 16.5337 58.4975 16.0016C59.4299 15.4695 59.4299 14.5996 58.4975 14.0573C57.5651 13.5252 56.059 13.5252 55.1368 14.0573Z" fill="#00EAFF"/>
<path d="M53.2741 11.6113H48.5199V18.4367C48.5096 18.7948 48.7453 19.153 49.2166 19.419C50.149 19.9512 51.6552 19.9512 52.5773 19.419C53.0486 19.153 53.2741 18.7948 53.2741 18.4367V11.6113Z" fill="url(#paint11_linear_1041_5684)"/>
<path d="M49.2149 10.6393C48.2825 11.1714 48.2825 12.0412 49.2149 12.5836C50.1473 13.1157 51.6535 13.1157 52.5757 12.5836C53.5081 12.0515 53.5081 11.1817 52.5757 10.6393C51.6433 10.1072 50.1371 10.1072 49.2149 10.6393Z" fill="#00EAFF"/>
<path d="M47.3522 8.2041H42.598V15.0295C42.5877 15.3876 42.8234 15.7458 43.2947 16.0118C44.2271 16.5439 45.7333 16.5439 46.6554 16.0118C47.1268 15.7458 47.3522 15.3876 47.3522 15.0295V8.2041Z" fill="url(#paint12_linear_1041_5684)"/>
<path d="M43.2931 7.23203C42.3606 7.76414 42.3606 8.63393 43.2931 9.17628C44.2255 9.70839 45.7316 9.70839 46.6538 9.17628C47.5862 8.64417 47.5862 7.77438 46.6538 7.23203C45.7214 6.68969 44.2152 6.69992 43.2931 7.23203Z" fill="#00EAFF"/>
<path d="M41.4303 4.78613H36.6761V11.6115C36.6659 11.9697 36.9015 12.3278 37.3728 12.5938C38.3052 13.126 39.8114 13.126 40.7336 12.5938C41.2049 12.3278 41.4303 11.9697 41.4303 11.6115V4.78613Z" fill="url(#paint13_linear_1041_5684)"/>
<path d="M37.3712 3.81412C36.4388 4.34623 36.4388 5.21603 37.3712 5.75837C38.3036 6.29048 39.8098 6.29048 40.7319 5.75837C41.6643 5.22626 41.6643 4.35647 40.7319 3.81412C39.8098 3.28201 38.3036 3.28201 37.3712 3.81412Z" fill="#00EAFF"/>
<path d="M71.0201 28.6802H66.2659V35.5055C66.2557 35.8637 66.4914 36.2218 66.9627 36.4879C67.8951 37.02 69.4013 37.02 70.3234 36.4879C70.7947 36.2218 71.0201 35.8637 71.0201 35.5055V28.6802Z" fill="url(#paint14_linear_1041_5684)"/>
<path d="M66.961 27.7082C66.0286 28.2403 66.0286 29.1101 66.961 29.6524C67.8934 30.1846 69.3996 30.1846 70.3218 29.6524C71.2542 29.1203 71.2542 28.2505 70.3218 27.7082C69.3996 27.1761 67.8934 27.1761 66.961 27.7082Z" fill="#00EAFF"/>
<path d="M65.1061 25.2725H60.3519V32.0978C60.3416 32.4559 60.5773 32.8141 61.0486 33.0801C61.981 33.6123 63.4872 33.6123 64.4094 33.0801C64.8807 32.8141 65.1061 32.4559 65.1061 32.0978V25.2725Z" fill="url(#paint15_linear_1041_5684)"/>
<path d="M61.0391 24.3003C60.1067 24.8324 60.1067 25.7022 61.0391 26.2446C61.9715 26.7767 63.4777 26.7767 64.3999 26.2446C65.3323 25.7124 65.3323 24.8427 64.3999 24.3003C63.4777 23.758 61.9715 23.758 61.0391 24.3003Z" fill="#00EAFF"/>
<path d="M59.1842 21.8545H54.43V28.6798C54.4198 29.038 54.6554 29.3961 55.1268 29.6622C56.0592 30.1943 57.5654 30.1943 58.4875 29.6622C58.9588 29.3961 59.1842 29.038 59.1842 28.6798V21.8545Z" fill="url(#paint16_linear_1041_5684)"/>
<path d="M55.1173 20.8825C54.1849 21.4146 54.1849 22.2844 55.1173 22.8267C56.0497 23.3588 57.5559 23.3588 58.478 22.8267C59.4104 22.2946 59.4104 21.4248 58.478 20.8825C57.5559 20.3504 56.0497 20.3504 55.1173 20.8825Z" fill="#00EAFF"/>
<path d="M53.2624 18.437H48.5081V25.2624C48.4979 25.6205 48.7335 25.9684 49.2049 26.2447C50.1373 26.7768 51.6435 26.7768 52.5656 26.2447C53.0369 25.9787 53.2624 25.6205 53.2624 25.2624V18.437Z" fill="url(#paint17_linear_1041_5684)"/>
<path d="M49.2032 17.4751C48.2708 18.0072 48.2708 18.8771 49.2032 19.4194C50.1356 19.9515 51.6418 19.9515 52.564 19.4194C53.4964 18.8873 53.4964 18.0175 52.564 17.4751C51.6316 16.9328 50.1254 16.9328 49.2032 17.4751Z" fill="#00EAFF"/>
<path d="M47.3405 15.0293H42.5863V21.8547C42.576 22.2128 42.8117 22.5607 43.283 22.837C44.2154 23.3691 45.7216 23.3691 46.6437 22.837C47.1151 22.571 47.3405 22.2128 47.3405 21.8547V15.0293Z" fill="url(#paint18_linear_1041_5684)"/>
<path d="M43.2813 14.0573C42.3489 14.5894 42.3489 15.4592 43.2813 16.0016C44.2137 16.5337 45.7199 16.5337 46.6421 16.0016C47.5745 15.4695 47.5745 14.5996 46.6421 14.0573C45.7097 13.5252 44.2035 13.5252 43.2813 14.0573Z" fill="#00EAFF"/>
<path d="M41.4186 11.6113H36.6644V18.4367C36.6541 18.7948 36.8898 19.153 37.3611 19.419C38.2935 19.9512 39.7997 19.9512 40.7219 19.419C41.1932 19.153 41.4186 18.7948 41.4186 18.4367V11.6113Z" fill="url(#paint19_linear_1041_5684)"/>
<path d="M37.3595 10.6393C36.4271 11.1714 36.4271 12.0412 37.3595 12.5836C38.2919 13.1157 39.798 13.1157 40.7202 12.5836C41.6526 12.0515 41.6526 11.1817 40.7202 10.6393C39.7878 10.1072 38.2816 10.1072 37.3595 10.6393Z" fill="#00EAFF"/>
<path d="M35.4967 8.19385H30.7425V15.0192C30.7323 15.3773 30.9679 15.7355 31.4393 16.0016C32.3717 16.5337 33.8778 16.5337 34.8 16.0016C35.2713 15.7355 35.4967 15.3773 35.4967 15.0192V8.19385Z" fill="url(#paint20_linear_1041_5684)"/>
<path d="M31.4376 7.23195C30.5052 7.76406 30.5052 8.63386 31.4376 9.1762C32.37 9.70831 33.8762 9.70831 34.7983 9.1762C35.7307 8.64409 35.7307 7.7743 34.7983 7.23195C33.8762 6.68961 32.37 6.68961 31.4376 7.23195Z" fill="#00EAFF"/>
<path d="M65.0866 32.0981H60.3324V38.9235C60.3221 39.2817 60.5578 39.6398 61.0291 39.9059C61.9615 40.438 63.4677 40.438 64.3898 39.9059C64.8611 39.6398 65.0866 39.2817 65.0866 38.9235V32.0981Z" fill="url(#paint21_linear_1041_5684)"/>
<path d="M61.0274 31.1261C60.095 31.6582 60.095 32.528 61.0274 33.0703C61.9598 33.6024 63.466 33.6024 64.3882 33.0703C65.3206 32.5382 65.3206 31.6684 64.3882 31.1261C63.466 30.5837 61.9598 30.594 61.0274 31.1261Z" fill="#00EAFF"/>
<path d="M59.1725 28.6802H54.4183V35.5055C54.408 35.8637 54.6437 36.2218 55.115 36.4879C56.0474 37.02 57.5536 37.02 58.4758 36.4879C58.9471 36.2218 59.1725 35.8637 59.1725 35.5055V28.6802Z" fill="url(#paint22_linear_1041_5684)"/>
<path d="M55.1056 27.7082C54.1731 28.2403 54.1731 29.1101 55.1056 29.6524C56.038 30.1846 57.5441 30.1846 58.4663 29.6524C59.3987 29.1203 59.3987 28.2505 58.4663 27.7082C57.5441 27.1761 56.038 27.1761 55.1056 27.7082Z" fill="#00EAFF"/>
<path d="M53.2506 25.2627H48.4964V32.0881C48.4862 32.4462 48.7218 32.8044 49.1932 33.0704C50.1256 33.6025 51.6317 33.6025 52.5539 33.0704C53.0252 32.8044 53.2506 32.4462 53.2506 32.0881V25.2627Z" fill="url(#paint23_linear_1041_5684)"/>
<path d="M49.1915 24.3008C48.2591 24.8329 48.2591 25.7027 49.1915 26.245C50.1239 26.7772 51.6301 26.7772 52.5522 26.245C53.4846 25.7129 53.4846 24.8431 52.5522 24.3008C51.6198 23.7585 50.1136 23.7585 49.1915 24.3008Z" fill="#00EAFF"/>
<path d="M47.3288 21.855H42.5745V28.6803C42.5643 29.0385 42.8 29.3966 43.2713 29.6627C44.2037 30.1948 45.7099 30.1948 46.632 29.6627C47.1033 29.3966 47.3288 29.0385 47.3288 28.6803V21.855Z" fill="url(#paint24_linear_1041_5684)"/>
<path d="M43.2696 20.883C42.3372 21.4151 42.3372 22.2849 43.2696 22.8272C44.202 23.3593 45.7082 23.3593 46.6304 22.8272C47.5628 22.2951 47.5628 21.4253 46.6304 20.883C45.698 20.3509 44.1918 20.3509 43.2696 20.883Z" fill="#00EAFF"/>
<path d="M41.4069 18.437H36.6527V25.2624C36.6424 25.6205 36.8781 25.9787 37.3494 26.2447C38.2818 26.7768 39.788 26.7768 40.7101 26.2447C41.1815 25.9787 41.4069 25.6205 41.4069 25.2624V18.437Z" fill="url(#paint25_linear_1041_5684)"/>
<path d="M37.3477 17.465C36.4153 17.9971 36.4153 18.8669 37.3477 19.4092C38.2801 19.9414 39.7863 19.9414 40.7085 19.4092C41.6409 18.8771 41.6409 18.0073 40.7085 17.465C39.7761 16.9329 38.2699 16.9329 37.3477 17.465Z" fill="#00EAFF"/>
<path d="M35.485 15.0195H30.7308V21.8449C30.7205 22.203 30.9562 22.5612 31.4275 22.8272C32.3599 23.3594 33.8661 23.3594 34.7883 22.8272C35.2596 22.5612 35.485 22.203 35.485 21.8449V15.0195Z" fill="url(#paint26_linear_1041_5684)"/>
<path d="M31.4259 14.0576C30.4935 14.5897 30.4935 15.4596 31.4259 16.0019C32.3583 16.534 33.8645 16.534 34.7866 16.0019C35.719 15.4698 35.719 14.6 34.7866 14.0576C33.8645 13.5153 32.3583 13.5153 31.4259 14.0576Z" fill="#00EAFF"/>
<path d="M29.5631 11.6118H24.8089V18.4372C24.7987 18.7953 25.0343 19.1535 25.5056 19.4195C26.438 19.9516 27.9442 19.9516 28.8664 19.4195C29.3377 19.1535 29.5631 18.7953 29.5631 18.4372V11.6118Z" fill="url(#paint27_linear_1041_5684)"/>
<path d="M25.504 10.6398C24.5716 11.1719 24.5716 12.0417 25.504 12.5841C26.4364 13.1162 27.9426 13.1162 28.8647 12.5841C29.7971 12.0519 29.7971 11.1822 28.8647 10.6398C27.9426 10.1077 26.4364 10.1077 25.504 10.6398Z" fill="#00EAFF"/>
<path d="M59.1608 35.5054H54.4066V42.3307C54.3963 42.6889 54.632 43.0368 55.1033 43.3131C56.0357 43.8452 57.5419 43.8452 58.464 43.3131C58.9354 43.047 59.1608 42.6889 59.1608 42.3307V35.5054Z" fill="url(#paint28_linear_1041_5684)"/>
<path d="M55.0938 34.5334C54.1614 35.0655 54.1614 35.9353 55.0938 36.4776C56.0262 37.0097 57.5324 37.0097 58.4546 36.4776C59.387 35.9455 59.387 35.0757 58.4546 34.5334C57.5324 34.0012 56.0262 34.0012 55.0938 34.5334Z" fill="#00EAFF"/>
<path d="M53.2389 32.0879H48.4847V38.9132C48.4744 39.2714 48.7101 39.6295 49.1814 39.8956C50.1138 40.4277 51.62 40.4277 52.5422 39.8956C53.0135 39.6295 53.2389 39.2714 53.2389 38.9132V32.0879Z" fill="url(#paint29_linear_1041_5684)"/>
<path d="M49.172 31.126C48.2396 31.6581 48.2396 32.5279 49.172 33.0702C50.1044 33.6024 51.6106 33.6024 52.5327 33.0702C53.4651 32.5381 53.4651 31.6683 52.5327 31.126C51.6106 30.5837 50.1044 30.5837 49.172 31.126Z" fill="#00EAFF"/>
<path d="M47.317 28.6802H42.5628V35.5055C42.5526 35.8637 42.7882 36.2218 43.2596 36.4879C44.192 37.02 45.6981 37.02 46.6203 36.4879C47.0916 36.2218 47.317 35.8637 47.317 35.5055V28.6802Z" fill="url(#paint30_linear_1041_5684)"/>
<path d="M43.2579 27.7082C42.3255 28.2403 42.3255 29.1101 43.2579 29.6524C44.1903 30.1846 45.6965 30.1846 46.6186 29.6524C47.551 29.1203 47.551 28.2505 46.6186 27.7082C45.6862 27.1761 44.18 27.1761 43.2579 27.7082Z" fill="#00EAFF"/>
<path d="M41.3952 25.2622H36.6409V32.0876C36.6307 32.4457 36.8664 32.8039 37.3377 33.0699C38.2701 33.602 39.7763 33.602 40.6984 33.0699C41.1697 32.8039 41.3952 32.4457 41.3952 32.0876V25.2622Z" fill="url(#paint31_linear_1041_5684)"/>
<path d="M37.336 24.2902C36.4036 24.8223 36.4036 25.6921 37.336 26.2345C38.2684 26.7666 39.7746 26.7666 40.6968 26.2345C41.6292 25.7024 41.6292 24.8325 40.6968 24.2902C39.7644 23.7581 38.2582 23.7581 37.336 24.2902Z" fill="#00EAFF"/>
<path d="M35.4733 21.8447H30.7191V28.6701C30.7088 29.0282 30.9445 29.3864 31.4158 29.6524C32.3482 30.1846 33.8544 30.1846 34.7765 29.6524C35.2479 29.3864 35.4733 29.0282 35.4733 28.6701V21.8447Z" fill="url(#paint32_linear_1041_5684)"/>
<path d="M31.4141 20.8828C30.4817 21.4149 30.4817 22.2847 31.4141 22.8271C32.3465 23.3592 33.8527 23.3592 34.7749 22.8271C35.7073 22.295 35.7073 21.4252 34.7749 20.8828C33.8425 20.3405 32.3363 20.3405 31.4141 20.8828Z" fill="#00EAFF"/>
<path d="M29.5514 18.437H24.7972V25.2624C24.7869 25.6205 25.0226 25.9787 25.4939 26.2447C26.4263 26.7768 27.9325 26.7768 28.8547 26.2447C29.326 25.9787 29.5514 25.6205 29.5514 25.2624V18.437Z" fill="url(#paint33_linear_1041_5684)"/>
<path d="M25.4923 17.465C24.5599 17.9971 24.5599 18.8669 25.4923 19.4092C26.4247 19.9414 27.9309 19.9414 28.853 19.4092C29.7854 18.8771 29.7854 18.0073 28.853 17.465C27.9309 16.9329 26.4247 16.9329 25.4923 17.465Z" fill="#00EAFF"/>
<path d="M23.6295 15.019H18.8753V21.8444C18.8651 22.2026 19.1007 22.5607 19.5721 22.8268C20.5045 23.3589 22.0107 23.3589 22.9328 22.8268C23.4041 22.5607 23.6295 22.2026 23.6295 21.8444V15.019Z" fill="url(#paint34_linear_1041_5684)"/>
<path d="M19.5704 14.047C18.638 14.5791 18.638 15.4489 19.5704 15.9913C20.5028 16.5234 22.009 16.5234 22.9311 15.9913C23.8635 15.4592 23.8635 14.5894 22.9311 14.047C22.009 13.5149 20.5028 13.5149 19.5704 14.047Z" fill="#00EAFF"/>
<path d="M53.2311 38.9131H48.4769V45.7385C48.4666 46.0966 48.7023 46.4547 49.1736 46.7208C50.106 47.2529 51.6122 47.2529 52.5344 46.7208C53.0057 46.4547 53.2311 46.0966 53.2311 45.7385V38.9131Z" fill="url(#paint35_linear_1041_5684)"/>
<path d="M49.1641 37.9512C48.2317 38.4833 48.2317 39.3531 49.1641 39.8954C50.0965 40.4276 51.6027 40.4276 52.5249 39.8954C53.4573 39.3633 53.4573 38.4935 52.5249 37.9512C51.6027 37.4088 50.0965 37.4088 49.1641 37.9512Z" fill="#00EAFF"/>
<path d="M47.3092 35.5054H42.555V42.3307C42.5448 42.6889 42.7804 43.047 43.2518 43.3131C44.1842 43.8452 45.6903 43.8452 46.6125 43.3131C47.0838 43.047 47.3092 42.6889 47.3092 42.3307V35.5054Z" fill="url(#paint36_linear_1041_5684)"/>
<path d="M43.2423 34.5334C42.3099 35.0655 42.3099 35.9353 43.2423 36.4776C44.1747 37.0097 45.6809 37.0097 46.603 36.4776C47.5354 35.9455 47.5354 35.0757 46.603 34.5334C45.6809 34.0012 44.1747 34.0012 43.2423 34.5334Z" fill="#00EAFF"/>
<path d="M41.3874 32.0879H36.6331V38.9132C36.6229 39.2714 36.8586 39.6295 37.3299 39.8956C38.2623 40.4277 39.7685 40.4277 40.6906 39.8956C41.1619 39.6295 41.3874 39.2714 41.3874 38.9132V32.0879Z" fill="url(#paint37_linear_1041_5684)"/>
<path d="M37.3282 31.1159C36.3958 31.648 36.3958 32.5178 37.3282 33.0601C38.2606 33.5922 39.7668 33.5922 40.6889 33.0601C41.6213 32.528 41.6213 31.6582 40.6889 31.1159C39.7565 30.5838 38.2504 30.5838 37.3282 31.1159Z" fill="#00EAFF"/>
<path d="M35.4655 28.6802H30.7113V35.5055C30.701 35.8637 30.9367 36.2218 31.408 36.4879C32.3404 37.02 33.8466 37.02 34.7687 36.4879C35.2401 36.2218 35.4655 35.8637 35.4655 35.5055V28.6802Z" fill="url(#paint38_linear_1041_5684)"/>
<path d="M31.4063 27.708C30.4739 28.2401 30.4739 29.11 31.4063 29.6523C32.3387 30.1844 33.8449 30.1844 34.7671 29.6523C35.6995 29.1202 35.6995 28.2504 34.7671 27.708C33.8347 27.1657 32.3285 27.1657 31.4063 27.708Z" fill="#00EAFF"/>
<path d="M29.5436 25.2622H24.7894V32.0876C24.7791 32.4457 25.0148 32.8039 25.4861 33.0699C26.4185 33.602 27.9247 33.602 28.8469 33.0699C29.3182 32.8039 29.5436 32.4457 29.5436 32.0876V25.2622Z" fill="url(#paint39_linear_1041_5684)"/>
<path d="M25.4845 24.2902C24.5521 24.8223 24.5521 25.6921 25.4845 26.2345C26.4169 26.7666 27.923 26.7666 28.8452 26.2345C29.7776 25.7024 29.7776 24.8325 28.8452 24.2902C27.923 23.7581 26.4169 23.7581 25.4845 24.2902Z" fill="#00EAFF"/>
<path d="M23.6217 21.8447H18.8675V28.6701C18.8573 29.0282 19.0929 29.3864 19.5643 29.6524C20.4967 30.1846 22.0028 30.1846 22.925 29.6524C23.3963 29.3864 23.6217 29.0282 23.6217 28.6701V21.8447Z" fill="url(#paint40_linear_1041_5684)"/>
<path d="M19.5626 20.8828C18.6302 21.4149 18.6302 22.2847 19.5626 22.8271C20.495 23.3592 22.0012 23.3592 22.9233 22.8271C23.8557 22.295 23.8557 21.4252 22.9233 20.8828C22.0012 20.3405 20.495 20.3405 19.5626 20.8828Z" fill="#00EAFF"/>
<path d="M17.6999 18.437H12.9456V25.2624C12.9354 25.6205 13.171 25.9787 13.6424 26.2447C14.5748 26.7768 16.081 26.7768 17.0031 26.2447C17.4744 25.9787 17.6999 25.6205 17.6999 25.2624V18.437Z" fill="url(#paint41_linear_1041_5684)"/>
<path d="M13.6407 17.465C12.7083 17.9971 12.7083 18.8669 13.6407 19.4092C14.5731 19.9414 16.0793 19.9414 17.0015 19.4092C17.9339 18.8771 17.9339 18.0073 17.0015 17.465C16.0793 16.9329 14.5731 16.9329 13.6407 17.465Z" fill="#00EAFF"/>
<path d="M47.2975 42.3311H42.5433V49.1564C42.533 49.5146 42.7687 49.8727 43.24 50.1388C44.1724 50.6709 45.6786 50.6709 46.6008 50.1388C47.0721 49.8727 47.2975 49.5146 47.2975 49.1564V42.3311Z" fill="url(#paint42_linear_1041_5684)"/>
<path d="M43.2306 41.359C42.2981 41.8912 42.2981 42.7609 43.2306 43.3033C44.163 43.8354 45.6691 43.8354 46.5913 43.3033C47.5237 42.7712 47.5237 41.9014 46.5913 41.359C45.6691 40.8269 44.163 40.8269 43.2306 41.359Z" fill="#00EAFF"/>
<path d="M41.3795 38.9131H36.6253V45.7385C36.6151 46.0966 36.8507 46.4547 37.3221 46.7208C38.2545 47.2529 39.7607 47.2529 40.6828 46.7208C41.1541 46.4547 41.3795 46.0966 41.3795 45.7385V38.9131Z" fill="url(#paint43_linear_1041_5684)"/>
<path d="M37.3204 37.9411C36.388 38.4732 36.388 39.343 37.3204 39.8854C38.2528 40.4175 39.759 40.4175 40.6811 39.8854C41.6135 39.3532 41.6135 38.4834 40.6811 37.9411C39.7487 37.409 38.2425 37.409 37.3204 37.9411Z" fill="#00EAFF"/>
<path d="M35.4538 35.5059H30.6995V42.3312C30.6893 42.6893 30.9249 43.0475 31.3963 43.3135C32.3287 43.8457 33.8349 43.8457 34.757 43.3135C35.2283 43.0475 35.4538 42.6893 35.4538 42.3312V35.5059Z" fill="url(#paint44_linear_1041_5684)"/>
<path d="M31.3946 34.5338C30.4622 35.066 30.4622 35.9358 31.3946 36.4781C32.327 37.0102 33.8332 37.0102 34.7554 36.4781C35.6878 35.946 35.6878 35.0762 34.7554 34.5338C33.823 34.0017 32.3168 34.0017 31.3946 34.5338Z" fill="#00EAFF"/>
<path d="M29.5319 32.0879H24.7777V38.9132C24.7674 39.2714 25.0031 39.6295 25.4744 39.8956C26.4068 40.4277 27.913 40.4277 28.8351 39.8956C29.3065 39.6295 29.5319 39.2714 29.5319 38.9132V32.0879Z" fill="url(#paint45_linear_1041_5684)"/>
<path d="M25.4727 31.1159C24.5403 31.648 24.5403 32.5178 25.4727 33.0601C26.4051 33.5922 27.9113 33.5922 28.8335 33.0601C29.7659 32.528 29.7659 31.6582 28.8335 31.1159C27.9011 30.5838 26.3949 30.5838 25.4727 31.1159Z" fill="#00EAFF"/>
<path d="M23.61 28.6704H18.8558V35.4958C18.8455 35.8539 19.0812 36.2018 19.5525 36.4781C20.4849 37.0102 21.9911 37.0102 22.9133 36.4781C23.3846 36.2121 23.61 35.8539 23.61 35.4958V28.6704Z" fill="url(#paint46_linear_1041_5684)"/>
<path d="M19.5509 27.7085C18.6185 28.2406 18.6185 29.1105 19.5509 29.6528C20.4833 30.1849 21.9894 30.1849 22.9116 29.6528C23.844 29.1207 23.844 28.2509 22.9116 27.7085C21.9894 27.1662 20.4833 27.1662 19.5509 27.7085Z" fill="#00EAFF"/>
<path d="M17.6881 25.2627H12.9339V32.0881C12.9237 32.4462 13.1593 32.7941 13.6306 33.0704C14.563 33.6025 16.0692 33.6025 16.9914 33.0704C17.4627 32.8044 17.6881 32.4462 17.6881 32.0881V25.2627Z" fill="url(#paint47_linear_1041_5684)"/>
<path d="M13.629 24.2907C12.6966 24.8228 12.6966 25.6926 13.629 26.235C14.5614 26.7671 16.0676 26.7671 16.9897 26.235C17.9221 25.7029 17.9221 24.833 16.9897 24.2907C16.0676 23.7586 14.5614 23.7586 13.629 24.2907Z" fill="#00EAFF"/>
<path d="M11.7663 21.8447H7.01204V28.6701C7.00179 29.0282 7.23745 29.3864 7.70877 29.6524C8.64117 30.1846 10.1474 30.1846 11.0695 29.6524C11.5408 29.3864 11.7663 29.0282 11.7663 28.6701V21.8447Z" fill="url(#paint48_linear_1041_5684)"/>
<path d="M7.70711 20.8727C6.77471 21.4048 6.77471 22.2746 7.70711 22.817C8.63951 23.3491 10.1457 23.3491 11.0679 22.817C12.0003 22.2849 12.0003 21.4151 11.0679 20.8727C10.1457 20.3406 8.63951 20.3406 7.70711 20.8727Z" fill="#00EAFF"/>
<defs>
<linearGradient id="paint0_linear_1041_5684" x1="80.5083" y1="32.7001" x2="80.5083" y2="21.9443" gradientUnits="userSpaceOnUse">
<stop stop-color="#00EAFF"/>
<stop offset="0.1721" stop-color="#00CAFF"/>
<stop offset="0.5686" stop-color="#0084FF"/>
<stop offset="0.8549" stop-color="#0059FF"/>
<stop offset="1" stop-color="#0048FF"/>
</linearGradient>
<linearGradient id="paint1_linear_1041_5684" x1="74.5877" y1="29.286" x2="74.5877" y2="18.5302" gradientUnits="userSpaceOnUse">
<stop stop-color="#00EAFF"/>
<stop offset="0.1721" stop-color="#00CAFF"/>
<stop offset="0.5686" stop-color="#0084FF"/>
<stop offset="0.8549" stop-color="#0059FF"/>
<stop offset="1" stop-color="#0048FF"/>
</linearGradient>
<linearGradient id="paint2_linear_1041_5684" x1="68.6649" y1="25.8718" x2="68.6649" y2="15.116" gradientUnits="userSpaceOnUse">
<stop stop-color="#00EAFF"/>
<stop offset="0.1721" stop-color="#00CAFF"/>
<stop offset="0.5686" stop-color="#0084FF"/>
<stop offset="0.8549" stop-color="#0059FF"/>
<stop offset="1" stop-color="#0048FF"/>
</linearGradient>
<linearGradient id="paint3_linear_1041_5684" x1="62.7444" y1="22.4581" x2="62.7444" y2="11.7023" gradientUnits="userSpaceOnUse">
<stop stop-color="#00EAFF"/>
<stop offset="0.1721" stop-color="#00CAFF"/>
<stop offset="0.5686" stop-color="#0084FF"/>
<stop offset="0.8549" stop-color="#0059FF"/>
<stop offset="1" stop-color="#0048FF"/>
</linearGradient>
<linearGradient id="paint4_linear_1041_5684" x1="56.8238" y1="19.044" x2="56.8238" y2="8.28811" gradientUnits="userSpaceOnUse">
<stop stop-color="#00EAFF"/>
<stop offset="0.1721" stop-color="#00CAFF"/>
<stop offset="0.5686" stop-color="#0084FF"/>
<stop offset="0.8549" stop-color="#0059FF"/>
<stop offset="1" stop-color="#0048FF"/>
</linearGradient>
<linearGradient id="paint5_linear_1041_5684" x1="50.9033" y1="15.6299" x2="50.9033" y2="4.87393" gradientUnits="userSpaceOnUse">
<stop stop-color="#00EAFF"/>
<stop offset="0.1721" stop-color="#00CAFF"/>
<stop offset="0.5686" stop-color="#0084FF"/>
<stop offset="0.8549" stop-color="#0059FF"/>
<stop offset="1" stop-color="#0048FF"/>
</linearGradient>
<linearGradient id="paint6_linear_1041_5684" x1="44.9828" y1="12.2162" x2="44.9828" y2="1.46026" gradientUnits="userSpaceOnUse">
<stop stop-color="#00EAFF"/>
<stop offset="0.1721" stop-color="#00CAFF"/>
<stop offset="0.5686" stop-color="#0084FF"/>
<stop offset="0.8549" stop-color="#0059FF"/>
<stop offset="1" stop-color="#0048FF"/>
</linearGradient>
<linearGradient id="paint7_linear_1041_5684" x1="74.5792" y1="36.1116" x2="74.5792" y2="25.356" gradientUnits="userSpaceOnUse">
<stop stop-color="#00EAFF"/>
<stop offset="0.1721" stop-color="#00CAFF"/>
<stop offset="0.5686" stop-color="#0084FF"/>
<stop offset="0.8549" stop-color="#0059FF"/>
<stop offset="1" stop-color="#0048FF"/>
</linearGradient>
<linearGradient id="paint8_linear_1041_5684" x1="68.6587" y1="32.6975" x2="68.6587" y2="21.9418" gradientUnits="userSpaceOnUse">
<stop stop-color="#00EAFF"/>
<stop offset="0.1721" stop-color="#00CAFF"/>
<stop offset="0.5686" stop-color="#0084FF"/>
<stop offset="0.8549" stop-color="#0059FF"/>
<stop offset="1" stop-color="#0048FF"/>
</linearGradient>
<linearGradient id="paint9_linear_1041_5684" x1="62.7358" y1="29.2838" x2="62.7358" y2="18.5281" gradientUnits="userSpaceOnUse">
<stop stop-color="#00EAFF"/>
<stop offset="0.1721" stop-color="#00CAFF"/>
<stop offset="0.5686" stop-color="#0084FF"/>
<stop offset="0.8549" stop-color="#0059FF"/>
<stop offset="1" stop-color="#0048FF"/>
</linearGradient>
<linearGradient id="paint10_linear_1041_5684" x1="56.8154" y1="25.8696" x2="56.8154" y2="15.1139" gradientUnits="userSpaceOnUse">
<stop stop-color="#00EAFF"/>
<stop offset="0.1721" stop-color="#00CAFF"/>
<stop offset="0.5686" stop-color="#0084FF"/>
<stop offset="0.8549" stop-color="#0059FF"/>
<stop offset="1" stop-color="#0048FF"/>
</linearGradient>
<linearGradient id="paint11_linear_1041_5684" x1="50.8947" y1="22.4556" x2="50.8947" y2="11.6997" gradientUnits="userSpaceOnUse">
<stop stop-color="#00EAFF"/>
<stop offset="0.1721" stop-color="#00CAFF"/>
<stop offset="0.5686" stop-color="#0084FF"/>
<stop offset="0.8549" stop-color="#0059FF"/>
<stop offset="1" stop-color="#0048FF"/>
</linearGradient>
<linearGradient id="paint12_linear_1041_5684" x1="44.9743" y1="19.0419" x2="44.9743" y2="8.28607" gradientUnits="userSpaceOnUse">
<stop stop-color="#00EAFF"/>
<stop offset="0.1721" stop-color="#00CAFF"/>
<stop offset="0.5686" stop-color="#0084FF"/>
<stop offset="0.8549" stop-color="#0059FF"/>
<stop offset="1" stop-color="#0048FF"/>
</linearGradient>
<linearGradient id="paint13_linear_1041_5684" x1="39.0537" y1="15.6276" x2="39.0537" y2="4.87189" gradientUnits="userSpaceOnUse">
<stop stop-color="#00EAFF"/>
<stop offset="0.1721" stop-color="#00CAFF"/>
<stop offset="0.5686" stop-color="#0084FF"/>
<stop offset="0.8549" stop-color="#0059FF"/>
<stop offset="1" stop-color="#0048FF"/>
</linearGradient>
<linearGradient id="paint14_linear_1041_5684" x1="68.6461" y1="39.5239" x2="68.6461" y2="28.768" gradientUnits="userSpaceOnUse">
<stop stop-color="#00EAFF"/>
<stop offset="0.1721" stop-color="#00CAFF"/>
<stop offset="0.5686" stop-color="#0084FF"/>
<stop offset="0.8549" stop-color="#0059FF"/>
<stop offset="1" stop-color="#0048FF"/>
</linearGradient>
<linearGradient id="paint15_linear_1041_5684" x1="62.7233" y1="36.1097" x2="62.7233" y2="25.3538" gradientUnits="userSpaceOnUse">
<stop stop-color="#00EAFF"/>
<stop offset="0.1721" stop-color="#00CAFF"/>
<stop offset="0.5686" stop-color="#0084FF"/>
<stop offset="0.8549" stop-color="#0059FF"/>
<stop offset="1" stop-color="#0048FF"/>
</linearGradient>
<linearGradient id="paint16_linear_1041_5684" x1="56.8028" y1="32.6955" x2="56.8028" y2="21.9396" gradientUnits="userSpaceOnUse">
<stop stop-color="#00EAFF"/>
<stop offset="0.1721" stop-color="#00CAFF"/>
<stop offset="0.5686" stop-color="#0084FF"/>
<stop offset="0.8549" stop-color="#0059FF"/>
<stop offset="1" stop-color="#0048FF"/>
</linearGradient>
<linearGradient id="paint17_linear_1041_5684" x1="50.8824" y1="29.2818" x2="50.8824" y2="18.5259" gradientUnits="userSpaceOnUse">
<stop stop-color="#00EAFF"/>
<stop offset="0.1721" stop-color="#00CAFF"/>
<stop offset="0.5686" stop-color="#0084FF"/>
<stop offset="0.8549" stop-color="#0059FF"/>
<stop offset="1" stop-color="#0048FF"/>
</linearGradient>
<linearGradient id="paint18_linear_1041_5684" x1="44.9617" y1="25.8676" x2="44.9617" y2="15.1118" gradientUnits="userSpaceOnUse">
<stop stop-color="#00EAFF"/>
<stop offset="0.1721" stop-color="#00CAFF"/>
<stop offset="0.5686" stop-color="#0084FF"/>
<stop offset="0.8549" stop-color="#0059FF"/>
<stop offset="1" stop-color="#0048FF"/>
</linearGradient>
<linearGradient id="paint19_linear_1041_5684" x1="39.0413" y1="22.4534" x2="39.0413" y2="11.6976" gradientUnits="userSpaceOnUse">
<stop stop-color="#00EAFF"/>
<stop offset="0.1721" stop-color="#00CAFF"/>
<stop offset="0.5686" stop-color="#0084FF"/>
<stop offset="0.8549" stop-color="#0059FF"/>
<stop offset="1" stop-color="#0048FF"/>
</linearGradient>
<linearGradient id="paint20_linear_1041_5684" x1="33.1207" y1="19.0397" x2="33.1207" y2="8.2839" gradientUnits="userSpaceOnUse">
<stop stop-color="#00EAFF"/>
<stop offset="0.1721" stop-color="#00CAFF"/>
<stop offset="0.5686" stop-color="#0084FF"/>
<stop offset="0.8549" stop-color="#0059FF"/>
<stop offset="1" stop-color="#0048FF"/>
</linearGradient>
<linearGradient id="paint21_linear_1041_5684" x1="62.7132" y1="42.9359" x2="62.7132" y2="32.1801" gradientUnits="userSpaceOnUse">
<stop stop-color="#00EAFF"/>
<stop offset="0.1721" stop-color="#00CAFF"/>
<stop offset="0.5686" stop-color="#0084FF"/>
<stop offset="0.8549" stop-color="#0059FF"/>
<stop offset="1" stop-color="#0048FF"/>
</linearGradient>
<linearGradient id="paint22_linear_1041_5684" x1="56.7903" y1="39.5217" x2="56.7903" y2="28.7659" gradientUnits="userSpaceOnUse">
<stop stop-color="#00EAFF"/>
<stop offset="0.1721" stop-color="#00CAFF"/>
<stop offset="0.5686" stop-color="#0084FF"/>
<stop offset="0.8549" stop-color="#0059FF"/>
<stop offset="1" stop-color="#0048FF"/>
</linearGradient>
<linearGradient id="paint23_linear_1041_5684" x1="50.8698" y1="36.1081" x2="50.8698" y2="25.3522" gradientUnits="userSpaceOnUse">
<stop stop-color="#00EAFF"/>
<stop offset="0.1721" stop-color="#00CAFF"/>
<stop offset="0.5686" stop-color="#0084FF"/>
<stop offset="0.8549" stop-color="#0059FF"/>
<stop offset="1" stop-color="#0048FF"/>
</linearGradient>
<linearGradient id="paint24_linear_1041_5684" x1="44.9493" y1="32.6939" x2="44.9493" y2="21.9381" gradientUnits="userSpaceOnUse">
<stop stop-color="#00EAFF"/>
<stop offset="0.1721" stop-color="#00CAFF"/>
<stop offset="0.5686" stop-color="#0084FF"/>
<stop offset="0.8549" stop-color="#0059FF"/>
<stop offset="1" stop-color="#0048FF"/>
</linearGradient>
<linearGradient id="paint25_linear_1041_5684" x1="39.0287" y1="29.2797" x2="39.0287" y2="18.5239" gradientUnits="userSpaceOnUse">
<stop stop-color="#00EAFF"/>
<stop offset="0.1721" stop-color="#00CAFF"/>
<stop offset="0.5686" stop-color="#0084FF"/>
<stop offset="0.8549" stop-color="#0059FF"/>
<stop offset="1" stop-color="#0048FF"/>
</linearGradient>
<linearGradient id="paint26_linear_1041_5684" x1="33.1083" y1="25.866" x2="33.1083" y2="15.1102" gradientUnits="userSpaceOnUse">
<stop stop-color="#00EAFF"/>
<stop offset="0.1721" stop-color="#00CAFF"/>
<stop offset="0.5686" stop-color="#0084FF"/>
<stop offset="0.8549" stop-color="#0059FF"/>
<stop offset="1" stop-color="#0048FF"/>
</linearGradient>
<linearGradient id="paint27_linear_1041_5684" x1="27.1878" y1="22.4519" x2="27.1878" y2="11.696" gradientUnits="userSpaceOnUse">
<stop stop-color="#00EAFF"/>
<stop offset="0.1721" stop-color="#00CAFF"/>
<stop offset="0.5686" stop-color="#0084FF"/>
<stop offset="0.8549" stop-color="#0059FF"/>
<stop offset="1" stop-color="#0048FF"/>
</linearGradient>
<linearGradient id="paint28_linear_1041_5684" x1="56.7777" y1="46.3474" x2="56.7777" y2="35.5916" gradientUnits="userSpaceOnUse">
<stop stop-color="#00EAFF"/>
<stop offset="0.1721" stop-color="#00CAFF"/>
<stop offset="0.5686" stop-color="#0084FF"/>
<stop offset="0.8549" stop-color="#0059FF"/>
<stop offset="1" stop-color="#0048FF"/>
</linearGradient>
<linearGradient id="paint29_linear_1041_5684" x1="50.8573" y1="42.9337" x2="50.8573" y2="32.1779" gradientUnits="userSpaceOnUse">
<stop stop-color="#00EAFF"/>
<stop offset="0.1721" stop-color="#00CAFF"/>
<stop offset="0.5686" stop-color="#0084FF"/>
<stop offset="0.8549" stop-color="#0059FF"/>
<stop offset="1" stop-color="#0048FF"/>
</linearGradient>
<linearGradient id="paint30_linear_1041_5684" x1="44.9368" y1="39.5196" x2="44.9368" y2="28.7638" gradientUnits="userSpaceOnUse">
<stop stop-color="#00EAFF"/>
<stop offset="0.1721" stop-color="#00CAFF"/>
<stop offset="0.5686" stop-color="#0084FF"/>
<stop offset="0.8549" stop-color="#0059FF"/>
<stop offset="1" stop-color="#0048FF"/>
</linearGradient>
<linearGradient id="paint31_linear_1041_5684" x1="39.0163" y1="36.1054" x2="39.0163" y2="25.3496" gradientUnits="userSpaceOnUse">
<stop stop-color="#00EAFF"/>
<stop offset="0.1721" stop-color="#00CAFF"/>
<stop offset="0.5686" stop-color="#0084FF"/>
<stop offset="0.8549" stop-color="#0059FF"/>
<stop offset="1" stop-color="#0048FF"/>
</linearGradient>
<linearGradient id="paint32_linear_1041_5684" x1="33.0958" y1="32.6917" x2="33.0958" y2="21.9359" gradientUnits="userSpaceOnUse">
<stop stop-color="#00EAFF"/>
<stop offset="0.1721" stop-color="#00CAFF"/>
<stop offset="0.5686" stop-color="#0084FF"/>
<stop offset="0.8549" stop-color="#0059FF"/>
<stop offset="1" stop-color="#0048FF"/>
</linearGradient>
<linearGradient id="paint33_linear_1041_5684" x1="27.1752" y1="29.2777" x2="27.1752" y2="18.5217" gradientUnits="userSpaceOnUse">
<stop stop-color="#00EAFF"/>
<stop offset="0.1721" stop-color="#00CAFF"/>
<stop offset="0.5686" stop-color="#0084FF"/>
<stop offset="0.8549" stop-color="#0059FF"/>
<stop offset="1" stop-color="#0048FF"/>
</linearGradient>
<linearGradient id="paint34_linear_1041_5684" x1="21.2549" y1="25.8635" x2="21.2549" y2="15.1076" gradientUnits="userSpaceOnUse">
<stop stop-color="#00EAFF"/>
<stop offset="0.1721" stop-color="#00CAFF"/>
<stop offset="0.5686" stop-color="#0084FF"/>
<stop offset="0.8549" stop-color="#0059FF"/>
<stop offset="1" stop-color="#0048FF"/>
</linearGradient>
<linearGradient id="paint35_linear_1041_5684" x1="50.8487" y1="49.7596" x2="50.8487" y2="39.0037" gradientUnits="userSpaceOnUse">
<stop stop-color="#00EAFF"/>
<stop offset="0.1721" stop-color="#00CAFF"/>
<stop offset="0.5686" stop-color="#0084FF"/>
<stop offset="0.8549" stop-color="#0059FF"/>
<stop offset="1" stop-color="#0048FF"/>
</linearGradient>
<linearGradient id="paint36_linear_1041_5684" x1="44.9282" y1="46.3454" x2="44.9282" y2="35.5896" gradientUnits="userSpaceOnUse">
<stop stop-color="#00EAFF"/>
<stop offset="0.1721" stop-color="#00CAFF"/>
<stop offset="0.5686" stop-color="#0084FF"/>
<stop offset="0.8549" stop-color="#0059FF"/>
<stop offset="1" stop-color="#0048FF"/>
</linearGradient>
<linearGradient id="paint37_linear_1041_5684" x1="39.0077" y1="42.9317" x2="39.0077" y2="32.1759" gradientUnits="userSpaceOnUse">
<stop stop-color="#00EAFF"/>
<stop offset="0.1721" stop-color="#00CAFF"/>
<stop offset="0.5686" stop-color="#0084FF"/>
<stop offset="0.8549" stop-color="#0059FF"/>
<stop offset="1" stop-color="#0048FF"/>
</linearGradient>
<linearGradient id="paint38_linear_1041_5684" x1="33.0871" y1="39.5176" x2="33.0871" y2="28.7617" gradientUnits="userSpaceOnUse">
<stop stop-color="#00EAFF"/>
<stop offset="0.1721" stop-color="#00CAFF"/>
<stop offset="0.5686" stop-color="#0084FF"/>
<stop offset="0.8549" stop-color="#0059FF"/>
<stop offset="1" stop-color="#0048FF"/>
</linearGradient>
<linearGradient id="paint39_linear_1041_5684" x1="27.1667" y1="36.1034" x2="27.1667" y2="25.3475" gradientUnits="userSpaceOnUse">
<stop stop-color="#00EAFF"/>
<stop offset="0.1721" stop-color="#00CAFF"/>
<stop offset="0.5686" stop-color="#0084FF"/>
<stop offset="0.8549" stop-color="#0059FF"/>
<stop offset="1" stop-color="#0048FF"/>
</linearGradient>
<linearGradient id="paint40_linear_1041_5684" x1="21.2462" y1="32.6897" x2="21.2462" y2="21.9339" gradientUnits="userSpaceOnUse">
<stop stop-color="#00EAFF"/>
<stop offset="0.1721" stop-color="#00CAFF"/>
<stop offset="0.5686" stop-color="#0084FF"/>
<stop offset="0.8549" stop-color="#0059FF"/>
<stop offset="1" stop-color="#0048FF"/>
</linearGradient>
<linearGradient id="paint41_linear_1041_5684" x1="15.3258" y1="29.2755" x2="15.3258" y2="18.5197" gradientUnits="userSpaceOnUse">
<stop stop-color="#00EAFF"/>
<stop offset="0.1721" stop-color="#00CAFF"/>
<stop offset="0.5686" stop-color="#0084FF"/>
<stop offset="0.8549" stop-color="#0059FF"/>
<stop offset="1" stop-color="#0048FF"/>
</linearGradient>
<linearGradient id="paint42_linear_1041_5684" x1="44.9157" y1="53.1716" x2="44.9157" y2="42.4158" gradientUnits="userSpaceOnUse">
<stop stop-color="#00EAFF"/>
<stop offset="0.1721" stop-color="#00CAFF"/>
<stop offset="0.5686" stop-color="#0084FF"/>
<stop offset="0.8549" stop-color="#0059FF"/>
<stop offset="1" stop-color="#0048FF"/>
</linearGradient>
<linearGradient id="paint43_linear_1041_5684" x1="38.9992" y1="49.7574" x2="38.9992" y2="39.0016" gradientUnits="userSpaceOnUse">
<stop stop-color="#00EAFF"/>
<stop offset="0.1721" stop-color="#00CAFF"/>
<stop offset="0.5686" stop-color="#0084FF"/>
<stop offset="0.8549" stop-color="#0059FF"/>
<stop offset="1" stop-color="#0048FF"/>
</linearGradient>
<linearGradient id="paint44_linear_1041_5684" x1="33.0747" y1="46.3438" x2="33.0747" y2="35.5879" gradientUnits="userSpaceOnUse">
<stop stop-color="#00EAFF"/>
<stop offset="0.1721" stop-color="#00CAFF"/>
<stop offset="0.5686" stop-color="#0084FF"/>
<stop offset="0.8549" stop-color="#0059FF"/>
<stop offset="1" stop-color="#0048FF"/>
</linearGradient>
<linearGradient id="paint45_linear_1041_5684" x1="27.1542" y1="42.9296" x2="27.1542" y2="32.1737" gradientUnits="userSpaceOnUse">
<stop stop-color="#00EAFF"/>
<stop offset="0.1721" stop-color="#00CAFF"/>
<stop offset="0.5686" stop-color="#0084FF"/>
<stop offset="0.8549" stop-color="#0059FF"/>
<stop offset="1" stop-color="#0048FF"/>
</linearGradient>
<linearGradient id="paint46_linear_1041_5684" x1="21.2338" y1="39.516" x2="21.2338" y2="28.7601" gradientUnits="userSpaceOnUse">
<stop stop-color="#00EAFF"/>
<stop offset="0.1721" stop-color="#00CAFF"/>
<stop offset="0.5686" stop-color="#0084FF"/>
<stop offset="0.8549" stop-color="#0059FF"/>
<stop offset="1" stop-color="#0048FF"/>
</linearGradient>
<linearGradient id="paint47_linear_1041_5684" x1="15.3132" y1="36.1017" x2="15.3132" y2="25.3459" gradientUnits="userSpaceOnUse">
<stop stop-color="#00EAFF"/>
<stop offset="0.1721" stop-color="#00CAFF"/>
<stop offset="0.5686" stop-color="#0084FF"/>
<stop offset="0.8549" stop-color="#0059FF"/>
<stop offset="1" stop-color="#0048FF"/>
</linearGradient>
<linearGradient id="paint48_linear_1041_5684" x1="9.39273" y1="32.6875" x2="9.39273" y2="21.9317" gradientUnits="userSpaceOnUse">
<stop stop-color="#00EAFF"/>
<stop offset="0.1721" stop-color="#00CAFF"/>
<stop offset="0.5686" stop-color="#0084FF"/>
<stop offset="0.8549" stop-color="#0059FF"/>
<stop offset="1" stop-color="#0048FF"/>
</linearGradient>
</defs>
</svg>
