<svg width="80" height="80" viewBox="0 0 80 80" fill="none" xmlns="http://www.w3.org/2000/svg">
<path d="M20 67.5C21.3807 67.5 22.5 66.3807 22.5 65C22.5 63.6193 21.3807 62.5 20 62.5C18.6193 62.5 17.5 63.6193 17.5 65C17.5 66.3807 18.6193 67.5 20 67.5Z" fill="white"/>
<path d="M12.5 75H67.5C70.25 75 72.5 72.75 72.5 70V60C72.5 57.25 70.25 55 67.5 55H12.5C9.75 55 7.5 57.25 7.5 60V70C7.5 72.75 9.75 75 12.5 75ZM12.5 60H67.5V70H12.5V60ZM57.5 50H22.5C14.225 50 7.5 43.275 7.5 35C7.5 27.375 13.225 21.05 20.625 20.125C22.825 11.375 30.825 5 40 5C49.175 5 57.175 11.375 59.375 20.125C66.775 21.05 72.5 27.375 72.5 35C72.5 43.275 65.775 50 57.5 50ZM22.375 25C19.7466 25.0393 17.2388 26.1094 15.3918 27.9799C13.5447 29.8503 12.5063 32.3713 12.5 35C12.5 40.525 16.975 45 22.5 45H57.5C63.025 45 67.5 40.525 67.5 35C67.5003 32.3736 66.4673 29.8526 64.6243 27.9814C62.7813 26.1103 60.2761 25.0394 57.65 25L57.35 25.025L55.15 25.075L54.85 22.875C53.775 15.525 47.4 10 40 10C32.6 10 26.225 15.525 25.175 22.875L24.875 25.075L22.375 25Z" fill="white"/>
</svg>
