<svg width="80" height="80" viewBox="0 0 80 80" fill="none" xmlns="http://www.w3.org/2000/svg">
<path d="M63.3346 21.6668H53.3346V18.3335C53.3346 15.6813 52.2811 13.1378 50.4057 11.2624C48.5303 9.38706 45.9868 8.3335 43.3346 8.3335H36.668C34.0158 8.3335 31.4723 9.38706 29.5969 11.2624C27.7215 13.1378 26.668 15.6813 26.668 18.3335V21.6668H16.668C14.0158 21.6668 11.4723 22.7204 9.5969 24.5958C7.72154 26.4711 6.66797 29.0147 6.66797 31.6668V61.6668C6.66797 64.319 7.72154 66.8625 9.5969 68.7379C11.4723 70.6133 14.0158 71.6668 16.668 71.6668H63.3346C65.9868 71.6668 68.5303 70.6133 70.4057 68.7379C72.2811 66.8625 73.3346 64.319 73.3346 61.6668V31.6668C73.3346 29.0147 72.2811 26.4711 70.4057 24.5958C68.5303 22.7204 65.9868 21.6668 63.3346 21.6668ZM33.3346 18.3335C33.3346 17.4494 33.6858 16.6016 34.3109 15.9765C34.9361 15.3514 35.7839 15.0002 36.668 15.0002H43.3346C44.2187 15.0002 45.0665 15.3514 45.6917 15.9765C46.3168 16.6016 46.668 17.4494 46.668 18.3335V21.6668H33.3346V18.3335ZM66.668 61.6668C66.668 62.5509 66.3168 63.3987 65.6917 64.0239C65.0665 64.649 64.2187 65.0002 63.3346 65.0002H16.668C15.7839 65.0002 14.9361 64.649 14.3109 64.0239C13.6858 63.3987 13.3346 62.5509 13.3346 61.6668V44.8335H23.3346V48.3335C23.3346 49.2176 23.6858 50.0654 24.3109 50.6905C24.9361 51.3156 25.7839 51.6668 26.668 51.6668C27.552 51.6668 28.3999 51.3156 29.025 50.6905C29.6501 50.0654 30.0013 49.2176 30.0013 48.3335V44.8335H50.0013V48.3335C50.0013 49.2176 50.3525 50.0654 50.9776 50.6905C51.6027 51.3156 52.4506 51.6668 53.3346 51.6668C54.2187 51.6668 55.0665 51.3156 55.6917 50.6905C56.3168 50.0654 56.668 49.2176 56.668 48.3335V44.8335H66.668V61.6668ZM66.668 38.3335H13.3346V31.6668C13.3346 30.7828 13.6858 29.9349 14.3109 29.3098C14.9361 28.6847 15.7839 28.3335 16.668 28.3335H63.3346C64.2187 28.3335 65.0665 28.6847 65.6917 29.3098C66.3168 29.9349 66.668 30.7828 66.668 31.6668V38.3335Z" fill="white"/>
</svg>
