<svg width="80" height="80" viewBox="0 0 80 80" fill="none" xmlns="http://www.w3.org/2000/svg">
<path d="M20 55C20 53.6739 20.5268 52.4021 21.4645 51.4645C22.4021 50.5268 23.6739 50 25 50C26.3261 50 27.5979 50.5268 28.5355 51.4645C29.4732 52.4021 30 53.6739 30 55V60C30 61.3261 29.4732 62.5979 28.5355 63.5355C27.5979 64.4732 26.3261 65 25 65C23.6739 65 22.4021 64.4732 21.4645 63.5355C20.5268 62.5979 20 61.3261 20 60V55ZM50 35C50 33.6739 50.5268 32.4021 51.4645 31.4645C52.4021 30.5268 53.6739 30 55 30C56.3261 30 57.5979 30.5268 58.5355 31.4645C59.4732 32.4021 60 33.6739 60 35V60C60 61.3261 59.4732 62.5979 58.5355 63.5355C57.5979 64.4732 56.3261 65 55 65C53.6739 65 52.4021 64.4732 51.4645 63.5355C50.5268 62.5979 50 61.3261 50 60V35ZM35 45C35 43.6739 35.5268 42.4021 36.4645 41.4645C37.4021 40.5268 38.6739 40 40 40C41.3261 40 42.5979 40.5268 43.5355 41.4645C44.4732 42.4021 45 43.6739 45 45V60C45 61.3261 44.4732 62.5979 43.5355 63.5355C42.5979 64.4732 41.3261 65 40 65C38.6739 65 37.4021 64.4732 36.4645 63.5355C35.5268 62.5979 35 61.3261 35 60V45Z" fill="white"/>
<path d="M20 7.5H15C12.3478 7.5 9.8043 8.55357 7.92893 10.4289C6.05357 12.3043 5 14.8478 5 17.5V70C5 72.6522 6.05357 75.1957 7.92893 77.0711C9.8043 78.9464 12.3478 80 15 80H65C67.6522 80 70.1957 78.9464 72.0711 77.0711C73.9464 75.1957 75 72.6522 75 70V17.5C75 14.8478 73.9464 12.3043 72.0711 10.4289C70.1957 8.55357 67.6522 7.5 65 7.5H60V12.5H65C66.3261 12.5 67.5979 13.0268 68.5355 13.9645C69.4732 14.9021 70 16.1739 70 17.5V70C70 71.3261 69.4732 72.5979 68.5355 73.5355C67.5979 74.4732 66.3261 75 65 75H15C13.6739 75 12.4021 74.4732 11.4645 73.5355C10.5268 72.5979 10 71.3261 10 70V17.5C10 16.1739 10.5268 14.9021 11.4645 13.9645C12.4021 13.0268 13.6739 12.5 15 12.5H20V7.5Z" fill="white"/>
<path d="M47.5 5C48.163 5 48.7989 5.26339 49.2678 5.73223C49.7366 6.20107 50 6.83696 50 7.5V12.5C50 13.163 49.7366 13.7989 49.2678 14.2678C48.7989 14.7366 48.163 15 47.5 15H32.5C31.837 15 31.2011 14.7366 30.7322 14.2678C30.2634 13.7989 30 13.163 30 12.5V7.5C30 6.83696 30.2634 6.20107 30.7322 5.73223C31.2011 5.26339 31.837 5 32.5 5H47.5ZM32.5 0C30.5109 0 28.6032 0.790176 27.1967 2.1967C25.7902 3.60322 25 5.51088 25 7.5V12.5C25 14.4891 25.7902 16.3968 27.1967 17.8033C28.6032 19.2098 30.5109 20 32.5 20H47.5C49.4891 20 51.3968 19.2098 52.8033 17.8033C54.2098 16.3968 55 14.4891 55 12.5V7.5C55 5.51088 54.2098 3.60322 52.8033 2.1967C51.3968 0.790176 49.4891 0 47.5 0L32.5 0Z" fill="white"/>
</svg>
