<svg width="80" height="80" viewBox="0 0 80 80" fill="none" xmlns="http://www.w3.org/2000/svg">
<path d="M17.5 25C16.837 25 16.2011 25.2634 15.7322 25.7322C15.2634 26.2011 15 26.837 15 27.5C15 28.163 15.2634 28.7989 15.7322 29.2678C16.2011 29.7366 16.837 30 17.5 30H52.5C53.163 30 53.7989 29.7366 54.2678 29.2678C54.7366 28.7989 55 28.163 55 27.5C55 26.837 54.7366 26.2011 54.2678 25.7322C53.7989 25.2634 53.163 25 52.5 25H17.5ZM17.5 35C16.837 35 16.2011 35.2634 15.7322 35.7322C15.2634 36.2011 15 36.837 15 37.5V47.5C15 48.163 15.2634 48.7989 15.7322 49.2678C16.2011 49.7366 16.837 50 17.5 50H27.5C28.163 50 28.7989 49.7366 29.2678 49.2678C29.7366 48.7989 30 48.163 30 47.5V37.5C30 36.837 29.7366 36.2011 29.2678 35.7322C28.7989 35.2634 28.163 35 27.5 35H17.5ZM20 45V40H25V45H20ZM37.5 35C36.837 35 36.2011 35.2634 35.7322 35.7322C35.2634 36.2011 35 36.837 35 37.5C35 38.163 35.2634 38.7989 35.7322 39.2678C36.2011 39.7366 36.837 40 37.5 40H52.5C53.163 40 53.7989 39.7366 54.2678 39.2678C54.7366 38.7989 55 38.163 55 37.5C55 36.837 54.7366 36.2011 54.2678 35.7322C53.7989 35.2634 53.163 35 52.5 35H37.5ZM37.5 45C36.837 45 36.2011 45.2634 35.7322 45.7322C35.2634 46.2011 35 46.837 35 47.5C35 48.163 35.2634 48.7989 35.7322 49.2678C36.2011 49.7366 36.837 50 37.5 50H52.5C53.163 50 53.7989 49.7366 54.2678 49.2678C54.7366 48.7989 55 48.163 55 47.5C55 46.837 54.7366 46.2011 54.2678 45.7322C53.7989 45.2634 53.163 45 52.5 45H37.5ZM5 20C5 17.3478 6.05357 14.8043 7.92893 12.9289C9.8043 11.0536 12.3478 10 15 10H55C57.6522 10 60.1957 11.0536 62.0711 12.9289C63.9464 14.8043 65 17.3478 65 20C67.6522 20 70.1957 21.0536 72.0711 22.9289C73.9464 24.8043 75 27.3478 75 30V52.5C75 55.8152 73.683 58.9946 71.3388 61.3388C68.9946 63.683 65.8152 65 62.5 65H17.5C14.1848 65 11.0054 63.683 8.66117 61.3388C6.31696 58.9946 5 55.8152 5 52.5V20ZM62.5 52.5C61.837 52.5 61.2011 52.2366 60.7322 51.7678C60.2634 51.2989 60 50.663 60 50V20C60 18.6739 59.4732 17.4021 58.5355 16.4645C57.5979 15.5268 56.3261 15 55 15H15C13.6739 15 12.4021 15.5268 11.4645 16.4645C10.5268 17.4021 10 18.6739 10 20V52.5C10 54.4891 10.7902 56.3968 12.1967 57.8033C13.6032 59.2098 15.5109 60 17.5 60H62.5C64.4891 60 66.3968 59.2098 67.8033 57.8033C69.2098 56.3968 70 54.4891 70 52.5V30C70 28.6739 69.4732 27.4021 68.5355 26.4645C67.5979 25.5268 66.3261 25 65 25V50C65 50.663 64.7366 51.2989 64.2678 51.7678C63.7989 52.2366 63.163 52.5 62.5 52.5Z" fill="white"/>
</svg>
