<svg width="80" height="80" viewBox="0 0 80 80" fill="none" xmlns="http://www.w3.org/2000/svg">
<path d="M12.0754 71.0716H68.9611C74.9539 71.0716 78.4368 67.5901 78.4368 60.6916V25.4344C78.4368 18.5387 74.9225 15.0901 67.9568 15.0901H35.3796C33.1025 15.0901 31.7296 14.5201 30.0554 13.1144L28.0125 11.4059C25.8025 9.56443 24.0954 8.92871 20.7811 8.92871H10.8025C4.94393 8.92871 1.5625 12.2773 1.5625 19.0401V60.6916C1.5625 67.623 5.11107 71.0716 12.0754 71.0716ZM6.9525 19.3087C6.9525 15.9944 8.72679 14.3201 11.9082 14.3201H19.4082C21.6182 14.3201 22.9568 14.8544 24.6654 16.3287L26.7082 18.003C28.8839 19.8101 30.6582 20.4801 33.9725 20.4801H67.8568C71.1711 20.4801 73.0468 22.2544 73.0468 25.7373V27.7459H6.9525V19.3087ZM12.1754 65.6801C8.82821 65.6801 6.9525 63.9059 6.9525 60.423V32.803H73.0468V60.4601C73.0468 63.9073 71.1711 65.683 67.8568 65.683L12.1754 65.6801Z" fill="white"/>
</svg>
