<svg width="80" height="80" viewBox="0 0 80 80" fill="none" xmlns="http://www.w3.org/2000/svg">
<path d="M61.3982 27.3998C59.3615 22.7198 55.8465 18.8367 51.3917 16.3456C46.937 13.8544 41.7884 12.8926 36.7347 13.6075C31.6811 14.3224 27.0013 16.6747 23.4124 20.3037C19.8235 23.9328 17.5235 28.6385 16.8648 33.6998C13.6868 34.4609 10.8989 36.3626 9.03063 39.0438C7.16235 41.725 6.34378 44.9989 6.73038 48.2439C7.11698 51.4888 8.68182 54.4788 11.1277 56.646C13.5736 58.8132 16.7303 60.0067 19.9982 59.9998H26.6648C27.5489 59.9998 28.3967 59.6486 29.0219 59.0235C29.647 58.3984 29.9982 57.5505 29.9982 56.6665C29.9982 55.7824 29.647 54.9346 29.0219 54.3095C28.3967 53.6843 27.5489 53.3331 26.6648 53.3331H19.9982C18.2301 53.3331 16.5344 52.6308 15.2841 51.3805C14.0339 50.1303 13.3315 48.4346 13.3315 46.6665C13.3315 44.8984 14.0339 43.2027 15.2841 41.9524C16.5344 40.7022 18.2301 39.9998 19.9982 39.9998C20.8822 39.9998 21.7301 39.6486 22.3552 39.0235C22.9803 38.3984 23.3315 37.5505 23.3315 36.6665C23.34 32.7241 24.7458 28.9123 27.2991 25.9084C29.8523 22.9045 33.3878 20.903 37.2773 20.2594C41.1669 19.6158 45.1586 20.3718 48.5434 22.3932C51.9282 24.4145 54.4869 27.5703 55.7648 31.2998C55.9554 31.8726 56.2979 32.3829 56.7558 32.7763C57.2137 33.1696 57.7698 33.4312 58.3648 33.5331C60.6787 33.9323 62.7784 35.1329 64.2959 36.9247C65.8134 38.7165 66.652 40.9851 66.6648 43.3331C66.6648 45.9853 65.6113 48.5289 63.7359 50.4042C61.8605 52.2796 59.317 53.3331 56.6648 53.3331C55.7808 53.3331 54.9329 53.6843 54.3078 54.3095C53.6827 54.9346 53.3315 55.7824 53.3315 56.6665C53.3315 57.5505 53.6827 58.3984 54.3078 59.0235C54.9329 59.6486 55.7808 59.9998 56.6648 59.9998C60.6436 59.9631 64.4779 58.5042 67.4747 55.8868C70.4715 53.2694 72.433 49.6663 73.0048 45.7287C73.5765 41.791 72.7206 37.7788 70.5919 34.4172C68.4632 31.0557 65.2022 28.5665 61.3982 27.3998ZM43.0648 62.0665C42.9983 61.8617 42.8968 61.67 42.7648 61.4998L42.3648 60.9665C42.0408 60.672 41.6688 60.4353 41.2648 60.2665C40.6578 60.0112 39.9888 59.9415 39.3421 60.0661C38.6955 60.1906 38.1002 60.504 37.6315 60.9665L37.2315 61.4998C37.0996 61.67 36.9981 61.8617 36.9315 62.0665C36.8354 62.2554 36.768 62.4577 36.7315 62.6665C36.7167 62.8885 36.7167 63.1112 36.7315 63.3331C36.7152 63.5439 36.7152 63.7557 36.7315 63.9665C36.7624 64.1873 36.83 64.4013 36.9315 64.5998C36.9981 64.8046 37.0996 64.9963 37.2315 65.1665L37.6315 65.6998C38.2703 66.3089 39.1156 66.6542 39.9982 66.6665C40.4338 66.6612 40.8641 66.5706 41.2648 66.3998C41.6688 66.231 42.0408 65.9942 42.3648 65.6998L42.7648 65.1665C42.8968 64.9963 42.9983 64.8046 43.0648 64.5998C43.1663 64.4013 43.2339 64.1873 43.2648 63.9665C43.3034 63.7574 43.3257 63.5457 43.3315 63.3331C43.3463 63.1112 43.3463 62.8885 43.3315 62.6665C43.2741 62.4539 43.1842 62.2515 43.0648 62.0665ZM39.9982 36.6665C38.2417 36.6654 36.5159 37.1269 34.9945 38.0046C33.4731 38.8824 32.2097 40.1453 31.3315 41.6665C31.1111 42.0469 30.9682 42.4672 30.9109 42.9031C30.8536 43.3391 30.8831 43.782 30.9978 44.2065C31.1124 44.631 31.3099 45.0286 31.5788 45.3764C31.8478 45.7242 32.1829 46.0154 32.5648 46.2331C33.3302 46.6677 34.2364 46.7819 35.0857 46.5509C35.935 46.3198 36.6584 45.7623 37.0982 44.9998C37.3919 44.4911 37.8147 44.0691 38.324 43.7764C38.8332 43.4837 39.4108 43.3308 39.9982 43.3331C40.8822 43.3331 41.7301 43.6843 42.3552 44.3095C42.9803 44.9346 43.3315 45.7824 43.3315 46.6665C43.3315 47.5505 42.9803 48.3984 42.3552 49.0235C41.7301 49.6486 40.8822 49.9998 39.9982 49.9998C39.1141 49.9998 38.2663 50.351 37.6411 50.9761C37.016 51.6012 36.6648 52.4491 36.6648 53.3331C36.6648 54.2172 37.016 55.0651 37.6411 55.6902C38.2663 56.3153 39.1141 56.6665 39.9982 56.6665C42.6503 56.6665 45.1939 55.6129 47.0692 53.7376C48.9446 51.8622 49.9982 49.3186 49.9982 46.6665C49.9982 44.0143 48.9446 41.4708 47.0692 39.5954C45.1939 37.72 42.6503 36.6665 39.9982 36.6665Z" fill="white"/>
</svg>
