<svg width="892" height="272" viewBox="0 0 892 272" fill="none" xmlns="http://www.w3.org/2000/svg">
<path d="M0.714183 266.998V5.27515H167.469V61.3586H56.7977V98.7476H142.045V154.831H56.7977V210.915H167.469V266.998H0.714183ZM304.187 271.859C289.481 271.859 275.398 269.553 261.938 264.942C248.478 260.206 236.7 253.476 226.605 244.752C216.51 235.903 209.219 225.372 204.732 213.158L257.451 193.716C258.697 197.33 261.439 200.82 265.676 204.185C270.039 207.55 275.522 210.354 282.128 212.597C288.733 214.716 296.086 215.775 304.187 215.775C311.665 215.775 318.707 214.716 325.312 212.597C331.917 210.354 337.276 207.3 341.389 203.437C345.502 199.573 347.558 195.087 347.558 189.977C347.558 184.742 345.377 180.443 341.015 177.078C336.778 173.588 331.294 170.846 324.564 168.852C317.959 166.733 311.166 165.175 304.187 164.178C285.243 161.436 268.231 156.95 253.151 150.718C238.196 144.362 226.356 135.638 217.632 124.546C209.032 113.454 204.732 99.3708 204.732 82.2965C204.732 65.9699 209.344 51.6998 218.566 39.4861C227.789 27.1477 239.94 17.5512 255.021 10.6966C270.225 3.8419 286.614 0.414575 304.187 0.414575C318.893 0.414575 332.977 2.78255 346.437 7.5185C360.021 12.1298 371.861 18.8598 381.956 27.7085C392.051 36.5573 399.28 47.1508 403.642 59.4892L350.923 78.5576C349.677 74.9433 346.873 71.516 342.511 68.2756C338.273 64.9106 332.852 62.1687 326.247 60.05C319.641 57.9313 312.288 56.8719 304.187 56.8719C296.959 56.7473 290.042 57.8067 283.436 60.05C276.831 62.2934 271.409 65.3468 267.172 69.2103C262.935 73.0738 260.816 77.4359 260.816 82.2965C260.816 89.0265 262.81 94.074 266.798 97.439C270.786 100.679 276.021 102.985 282.502 104.356C289.107 105.727 296.335 106.973 304.187 108.095C322.134 110.712 338.647 115.386 353.728 122.116C368.808 128.846 380.897 137.819 389.995 149.036C399.093 160.252 403.642 173.899 403.642 189.977C403.642 206.303 399.031 220.636 389.808 232.974C380.71 245.188 368.621 254.722 353.541 261.577C338.46 268.431 322.009 271.859 304.187 271.859ZM444.708 266.998V5.27515H531.451C549.522 5.27515 566.409 8.70247 582.113 15.5571C597.941 22.2871 611.837 31.6967 623.802 43.7858C635.891 55.7503 645.3 69.6465 652.03 85.4745C658.885 101.178 662.312 118.065 662.312 136.137C662.312 154.208 658.885 171.158 652.03 186.986C645.3 202.689 635.891 216.585 623.802 228.674C611.837 240.639 597.941 250.048 582.113 256.903C566.409 263.633 549.522 266.998 531.451 266.998H444.708ZM500.792 210.915H531.451C541.546 210.915 551.08 208.983 560.053 205.119C569.027 201.256 577.003 195.897 583.982 189.042C590.962 182.187 596.383 174.273 600.247 165.3C604.235 156.202 606.229 146.481 606.229 136.137C606.229 125.792 604.235 116.133 600.247 107.16C596.383 98.1868 590.962 90.2728 583.982 83.4181C577.128 76.4388 569.214 71.0174 560.24 67.1539C551.267 63.2904 541.67 61.3586 531.451 61.3586H500.792V210.915ZM791.631 271.859C776.925 271.859 762.842 269.553 749.382 264.942C735.922 260.206 724.144 253.476 714.049 244.752C703.954 235.903 696.663 225.372 692.177 213.158L744.895 193.716C746.141 197.33 748.883 200.82 753.121 204.185C757.483 207.55 762.966 210.354 769.572 212.597C776.177 214.716 783.53 215.775 791.631 215.775C799.109 215.775 806.151 214.716 812.756 212.597C819.362 210.354 824.721 207.3 828.833 203.437C832.946 199.573 835.003 195.087 835.003 189.977C835.003 184.742 832.822 180.443 828.46 177.078C824.222 173.588 818.738 170.846 812.008 168.852C805.403 166.733 798.611 165.175 791.631 164.178C772.688 161.436 755.676 156.95 740.595 150.718C725.64 144.362 713.8 135.638 705.076 124.546C696.476 113.454 692.177 99.3708 692.177 82.2965C692.177 65.9699 696.788 51.6998 706.011 39.4861C715.233 27.1477 727.385 17.5512 742.465 10.6966C757.67 3.8419 774.059 0.414575 791.631 0.414575C806.338 0.414575 820.421 2.78255 833.881 7.5185C847.466 12.1298 859.305 18.8598 869.4 27.7085C879.495 36.5573 886.724 47.1508 891.086 59.4892L838.368 78.5576C837.121 74.9433 834.317 71.516 829.955 68.2756C825.718 64.9106 820.296 62.1687 813.691 60.05C807.085 57.9313 799.732 56.8719 791.631 56.8719C784.403 56.7473 777.486 57.8067 770.88 60.05C764.275 62.2934 758.854 65.3468 754.616 69.2103C750.379 73.0738 748.26 77.4359 748.26 82.2965C748.26 89.0265 750.254 94.074 754.242 97.439C758.231 100.679 763.465 102.985 769.946 104.356C776.551 105.727 783.78 106.973 791.631 108.095C809.578 110.712 826.092 115.386 841.172 122.116C856.252 128.846 868.341 137.819 877.439 149.036C886.537 160.252 891.086 173.899 891.086 189.977C891.086 206.303 886.475 220.636 877.252 232.974C868.154 245.188 856.065 254.722 840.985 261.577C825.905 268.431 809.453 271.859 791.631 271.859Z" fill="url(#paint0_linear_2411_10646)"/>
<defs>
<linearGradient id="paint0_linear_2411_10646" x1="444" y1="5" x2="444" y2="335" gradientUnits="userSpaceOnUse">
<stop stop-color="white"/>
<stop offset="1" stop-opacity="0"/>
</linearGradient>
</defs>
</svg>
